<svg xmlns="http://www.w3.org/2000/svg" xmlns:xlink="http://www.w3.org/1999/xlink" width="2680" height="2784" viewBox="0 0 2680 2784"><defs><clipPath id="a"><rect width="1280" height="228" transform="translate(92 528)" fill="#fff" stroke="#707070" stroke-width="1"/></clipPath><clipPath id="b"><rect width="1280" height="293" transform="translate(92 528)" fill="#fff" stroke="#707070" stroke-width="1"/></clipPath><clipPath id="c"><rect width="1280" height="477" transform="translate(92 528)" fill="#fff" stroke="#707070" stroke-width="1"/></clipPath><clipPath id="d"><rect width="1280" height="275" transform="translate(92 528)" fill="#fff" stroke="#707070" stroke-width="1"/></clipPath><filter id="e" x="1769.684" y="502" width="362" height="76" filterUnits="userSpaceOnUse"><feOffset dy="2" input="SourceAlpha"/><feGaussianBlur stdDeviation="2" result="f"/><feFlood flood-opacity="0.502"/><feComposite operator="in" in2="f"/><feComposite in="SourceGraphic"/></filter><clipPath id="g"><path d="M0,0H1.47V.754H0Z" transform="translate(0.042 0.008)" fill="none"/></clipPath><clipPath id="h"><path d="M0,0H8.5V15.459H0Z" transform="translate(0.053 0.049)" fill="none"/></clipPath><filter id="i" x="1769.684" y="814" width="362" height="76" filterUnits="userSpaceOnUse"><feOffset dy="2" input="SourceAlpha"/><feGaussianBlur stdDeviation="2" result="j"/><feFlood flood-opacity="0.502"/><feComposite operator="in" in2="j"/><feComposite in="SourceGraphic"/></filter><filter id="m" x="1769.684" y="1031" width="362" height="76" filterUnits="userSpaceOnUse"><feOffset dy="2" input="SourceAlpha"/><feGaussianBlur stdDeviation="2" result="n"/><feFlood flood-opacity="0.502"/><feComposite operator="in" in2="n"/><feComposite in="SourceGraphic"/></filter><filter id="q" x="1769.684" y="1318" width="362" height="76" filterUnits="userSpaceOnUse"><feOffset dy="2" input="SourceAlpha"/><feGaussianBlur stdDeviation="2" result="r"/><feFlood flood-opacity="0.502"/><feComposite operator="in" in2="r"/><feComposite in="SourceGraphic"/></filter><filter id="u" x="2138" y="2415" width="362" height="214.09" filterUnits="userSpaceOnUse"><feOffset dy="2" input="SourceAlpha"/><feGaussianBlur stdDeviation="2" result="v"/><feFlood flood-opacity="0.502"/><feComposite operator="in" in2="v"/><feComposite in="SourceGraphic"/></filter><filter id="y" x="1740" y="2415" width="362" height="116.096" filterUnits="userSpaceOnUse"><feOffset dy="2" input="SourceAlpha"/><feGaussianBlur stdDeviation="2" result="z"/><feFlood flood-opacity="0.502"/><feComposite operator="in" in2="z"/><feComposite in="SourceGraphic"/></filter><clipPath id="ad"><rect width="2680" height="2784"/></clipPath></defs><g id="ac" clip-path="url(#ad)"><rect width="2680" height="2784" fill="#fff"/><text transform="translate(92 596)" fill="#707070" font-size="16" font-family="HelveticaNeue, Helvetica Neue"><tspan x="0" y="15">Primary Distribution Channel: WBB</tspan></text><text transform="translate(92 258)" fill="#707070" font-size="16" font-family="HelveticaNeue, Helvetica Neue"><tspan x="0" y="15">Default Primary Statement Preferences Card</tspan></text><g transform="translate(0 -220)" clip-path="url(#a)"><g transform="translate(92 279)"><rect width="1280" height="930" fill="#fff" stroke="#b3b3b3" stroke-miterlimit="10" stroke-width="1"/><g transform="translate(238 104)"><g fill="#fff"><path d="M 803.5 135.5 L 0.5 135.5 L 0.5 0.5 L 803.5 0.5 L 803.5 135.5 Z" stroke="none"/><path d="M 1 1 L 1 135 L 803 135 L 803 1 L 1 1 M 0 0 L 804 0 L 804 136 L 0 136 L 0 0 Z" stroke="none" fill="#979797"/></g><g transform="translate(24.477 16)"><text transform="translate(-0.477 13)" fill="#1c1c1c" font-size="14" font-family="Helvetica" letter-spacing="0em"><tspan x="0" y="0">Tax Exempt Status</tspan></text></g><path d="M0,0H804" transform="translate(0 48)" fill="none" stroke="#979797" stroke-width="1"/><g transform="translate(-4858 -620)"><g transform="translate(4342 497)"><g transform="translate(556 221)"><g fill="none" stroke="#555" stroke-miterlimit="10" stroke-width="2"><rect width="16" height="16" rx="2" stroke="none"/><rect x="1" y="1" width="14" height="14" rx="1" fill="none"/></g></g><text transform="translate(580 233)" fill="#1c1c1c" font-size="12" font-family="Helvetica"><tspan x="0" y="0">&lt; Org Unit &gt; is tax exempt.</tspan></text><g transform="translate(556 221)"><rect width="16" height="16" rx="2" fill="#008a00"/><g transform="translate(2 3)"><rect width="12" height="8" fill="none"/><path d="M0,3.441,3.731,6.881,10.325,0" transform="translate(1 1)" fill="none" stroke="#fff" stroke-miterlimit="10" stroke-width="2"/></g></g></g></g><g transform="translate(414 74)"><rect width="350" height="36" transform="translate(0 6)" fill="#fff"/><line x2="350" transform="translate(0 41.5)" fill="none" stroke="#979797" stroke-width="1"/><text transform="translate(0 10)" fill="#555" font-size="12" font-family="Helvetica" letter-spacing="0em"><tspan x="0" y="0">Reason code</tspan></text><text transform="translate(0 28)" fill="#1c1c1c" font-size="14" font-family="Helvetica" letter-spacing="0em"><tspan x="0" y="0">Other</tspan></text><g transform="translate(332 23)"><path d="M0,4.5,4.5,0,9,4.5" transform="translate(9 4.5) rotate(180)" fill="none" stroke="#4a4a4a" stroke-linecap="round" stroke-linejoin="round" stroke-width="2"/></g></g></g><g transform="translate(505 39)"><text transform="translate(135 21)" fill="#1c1c1c" font-size="26" font-family="Helvetica-Light, Helvetica" font-weight="300"><tspan x="-132.912" y="0">Setup Company Billing</tspan></text></g><g transform="translate(240 33)"><rect width="40" height="40" fill="none"/><g fill="#fff" stroke="#f0f4fb" stroke-miterlimit="10" stroke-width="1"><circle cx="20" cy="20" r="20" stroke="none"/><circle cx="20" cy="20" r="19.5" fill="none"/></g><g transform="translate(12 12)"><path d="M7.371,15.74.26,8.629a.889.889,0,0,1-.153-.2h0L.1,8.407.1,8.4.09,8.389.085,8.379l0-.007L.074,8.355h0a.892.892,0,0,1,0-.708v0l.007-.016,0-.007,0-.01L.1,7.6l0-.006.009-.017h0a.888.888,0,0,1,.153-.2L7.371.26A.889.889,0,0,1,8.629,1.517L3.035,7.111H15.111a.889.889,0,0,1,0,1.778H3.035l5.594,5.594A.889.889,0,0,1,7.371,15.74Z" transform="translate(0 0)" fill="#1c1c1c"/></g></g><g transform="translate(-5659 -328)"><g transform="translate(0 2)"><g transform="translate(5897 582)" fill="#fff"><path d="M 803.5 209.5 L 0.5 209.5 L 0.5 0.5 L 803.5 0.5 L 803.5 209.5 Z" stroke="none"/><path d="M 1 1 L 1 209 L 803 209 L 803 1 L 1 1 M 0 0 L 804 0 L 804 210 L 0 210 L 0 0 Z" stroke="none" fill="#979797"/></g><g transform="translate(5921 602)"><text transform="translate(0 13)" fill="#1c1c1c" font-size="14" font-family="Helvetica" letter-spacing="0em"><tspan x="0" y="0">Primary Statement Preferences</tspan></text></g><path d="M0,0H804" transform="translate(5897 631.543)" fill="none" stroke="#979797" stroke-width="1"/></g><g transform="translate(5936 669)"><rect width="350" height="36" fill="#fff"/><line x2="350" transform="translate(0 35.5)" fill="none" stroke="#979797" stroke-width="1"/><text transform="translate(0 22)" fill="#797979" font-size="14" font-family="Helvetica" letter-spacing="0em"><tspan x="0" y="0">Language Preference</tspan></text><g transform="translate(332 17)"><path d="M0,4.5,4.5,0,9,4.5" transform="translate(9 4.5) rotate(180)" fill="none" stroke="#4a4a4a" stroke-linecap="round" stroke-linejoin="round" stroke-width="2"/></g></g><g transform="translate(6310 664)" opacity="0.5"><rect width="350" height="36" transform="translate(0 6)" fill="#fff"/><line x2="350" transform="translate(0 41.5)" fill="none" stroke="#979797" stroke-width="1"/><text transform="translate(0 10)" fill="#555" font-size="12" font-family="Helvetica" letter-spacing="0em"><tspan x="0" y="0">Statement Type</tspan></text><text transform="translate(0 28)" fill="#1c1c1c" font-size="14" font-family="Helvetica" letter-spacing="0em"><tspan x="0" y="0">PDF</tspan></text><g transform="translate(332 23)"><path d="M0,4.5,4.5,0,9,4.5" transform="translate(9 4.5) rotate(180)" fill="none" stroke="#4a4a4a" stroke-linecap="round" stroke-linejoin="round" stroke-width="2"/></g></g><g transform="translate(5936 738)"><rect width="350" height="35.956" fill="#fff"/><line x2="350" transform="translate(0 35.456)" fill="none" stroke="#979797" stroke-width="1"/><text transform="translate(0 21.98)" fill="#797979" font-size="14" font-family="Helvetica" letter-spacing="0em"><tspan x="0" y="0">Primary Distribution Channel</tspan></text><g transform="translate(328 18.973)"><path d="M0,4.5,4.5,0,9,4.5" transform="translate(9 4.5) rotate(180)" fill="none" stroke="#4a4a4a" stroke-linecap="round" stroke-linejoin="round" stroke-width="2"/></g></g><g transform="translate(6310 738.398)"><rect width="350" height="36" fill="#fff"/><line x2="350" transform="translate(0 35.5)" fill="none" stroke="#979797" stroke-width="1"/><text transform="translate(0 22)" fill="#797979" font-size="14" font-family="Helvetica" letter-spacing="0em"><tspan x="0" y="0">Primary Statement Display Method</tspan></text><g transform="translate(328 19)"><path d="M0,4.5,4.5,0,9,4.5" transform="translate(9 4.5) rotate(180)" fill="none" stroke="#4a4a4a" stroke-linecap="round" stroke-linejoin="round" stroke-width="2"/></g></g></g><g transform="translate(-78 -262)"><text transform="translate(315 756)" fill="#797979" font-size="14" font-family="Helvetica" letter-spacing="0em"><tspan x="0" y="0">+ Add Secondary Statement Preferences</tspan></text></g><g transform="translate(14448.5 17003)"><g transform="translate(-14211.5 -16339)"><g transform="translate(0 16)"><g transform="translate(636)"><g fill="#444" stroke="#707070" stroke-width="1"><rect width="168" height="44" rx="22" stroke="none"/><rect x="0.5" y="0.5" width="167" height="43" rx="21.5" fill="none"/></g><text transform="translate(86 26)" fill="#fafafa" font-size="14" font-family="Helvetica"><tspan x="-14.393" y="0">Next</tspan></text></g><g fill="#fff" stroke="#707070" stroke-width="1"><rect width="168" height="44" rx="22" stroke="none"/><rect x="0.5" y="0.5" width="167" height="43" rx="21.5" fill="none"/></g><text transform="translate(86 26)" font-size="14" font-family="Helvetica"><tspan x="-21.79" y="0">Cancel</tspan></text></g></g><g transform="translate(-14212.5 -16491)"><g transform="translate(1)" fill="#fff"><path d="M 803 135.5 L 0.5 135.5 L 0.5 0.5 L 803 0.5 L 803 135.5 Z" stroke="none"/><path d="M 1 1 L 1 135 L 802.5 135 L 802.5 1 L 1 1 M 0 0 L 803.5 0 L 803.5 136 L 0 136 L 0 0 Z" stroke="none" fill="#979797"/></g><g transform="translate(24 16)"><text transform="translate(0 13)" fill="#1c1c1c" font-size="14" font-family="Helvetica" letter-spacing="0em"><tspan x="0" y="0">Billing Preferences</tspan></text></g><path d="M0,0H802" transform="translate(1.5 48)" fill="none" stroke="#979797" stroke-width="1"/><g transform="translate(41 77)"><rect width="349.5" height="36" fill="#fff"/><line x2="349.5" transform="translate(0 35.5)" fill="none" stroke="#979797" stroke-width="1"/><text transform="translate(0 22)" fill="#797979" font-size="14" font-family="Helvetica" letter-spacing="0em"><tspan x="0" y="0">Billing Preference Type</tspan></text><g transform="translate(327.5 19)"><path d="M0,4.5,4.5,0,9,4.5" transform="translate(9 4.5) rotate(180)" fill="none" stroke="#4a4a4a" stroke-linecap="round" stroke-linejoin="round" stroke-width="2"/></g></g></g></g></g></g><g transform="translate(0 118)" clip-path="url(#b)"><g transform="translate(92 279)"><rect width="1280" height="930" fill="#fff" stroke="#b3b3b3" stroke-miterlimit="10" stroke-width="1"/><g transform="translate(238 104)"><g fill="#fff"><path d="M 803.5 135.5 L 0.5 135.5 L 0.5 0.5 L 803.5 0.5 L 803.5 135.5 Z" stroke="none"/><path d="M 1 1 L 1 135 L 803 135 L 803 1 L 1 1 M 0 0 L 804 0 L 804 136 L 0 136 L 0 0 Z" stroke="none" fill="#979797"/></g><g transform="translate(24.477 16)"><text transform="translate(-0.477 13)" fill="#1c1c1c" font-size="14" font-family="Helvetica" letter-spacing="0em"><tspan x="0" y="0">Tax Exempt Status</tspan></text></g><path d="M0,0H804" transform="translate(0 48)" fill="none" stroke="#979797" stroke-width="1"/><g transform="translate(-516 -123)"><g transform="translate(556 221)"><g fill="none" stroke="#555" stroke-miterlimit="10" stroke-width="2"><rect width="16" height="16" rx="2" stroke="none"/><rect x="1" y="1" width="14" height="14" rx="1" fill="none"/></g></g><text transform="translate(580 233)" fill="#1c1c1c" font-size="12" font-family="Helvetica"><tspan x="0" y="0">&lt; Org Unit &gt; is tax exempt.</tspan></text><g transform="translate(556 221)"><rect width="16" height="16" rx="2" fill="#008a00"/><g transform="translate(2 3)"><rect width="12" height="8" fill="none"/><path d="M0,3.441,3.731,6.881,10.325,0" transform="translate(1 1)" fill="none" stroke="#fff" stroke-miterlimit="10" stroke-width="2"/></g></g></g><g transform="translate(414 74)"><rect width="350" height="36" transform="translate(0 6)" fill="#fff"/><line x2="350" transform="translate(0 41.5)" fill="none" stroke="#979797" stroke-width="1"/><text transform="translate(0 10)" fill="#555" font-size="12" font-family="Helvetica" letter-spacing="0em"><tspan x="0" y="0">Reason code</tspan></text><text transform="translate(0 28)" fill="#1c1c1c" font-size="14" font-family="Helvetica" letter-spacing="0em"><tspan x="0" y="0">Other</tspan></text><g transform="translate(332 23)"><path d="M0,4.5,4.5,0,9,4.5" transform="translate(9 4.5) rotate(180)" fill="none" stroke="#4a4a4a" stroke-linecap="round" stroke-linejoin="round" stroke-width="2"/></g></g></g><g transform="translate(505 39)"><text transform="translate(135 21)" fill="#1c1c1c" font-size="26" font-family="Helvetica-Light, Helvetica" font-weight="300"><tspan x="-132.912" y="0">Setup Company Billing</tspan></text></g><g transform="translate(240 33)"><rect width="40" height="40" fill="none"/><g fill="#fff" stroke="#f0f4fb" stroke-miterlimit="10" stroke-width="1"><circle cx="20" cy="20" r="20" stroke="none"/><circle cx="20" cy="20" r="19.5" fill="none"/></g><g transform="translate(12 12)"><path d="M7.371,15.74.26,8.629a.889.889,0,0,1-.153-.2h0L.1,8.407.1,8.4.09,8.389.085,8.379l0-.007L.074,8.355h0a.892.892,0,0,1,0-.708v0l.007-.016,0-.007,0-.01L.1,7.6l0-.006.009-.017h0a.888.888,0,0,1,.153-.2L7.371.26A.889.889,0,0,1,8.629,1.517L3.035,7.111H15.111a.889.889,0,0,1,0,1.778H3.035l5.594,5.594A.889.889,0,0,1,7.371,15.74Z" transform="translate(0 0)" fill="#1c1c1c"/></g></g><g transform="translate(-5659 -328)"><g transform="translate(0 2)"><g transform="translate(5897 582)" fill="#fff"><path d="M 803.5 277.5 L 0.5 277.5 L 0.5 0.4999847412109375 L 803.5 0.4999847412109375 L 803.5 277.5 Z" stroke="none"/><path d="M 1 0.999969482421875 L 1 277 L 803 277 L 803 0.999969482421875 L 1 0.999969482421875 M 0 -3.0517578125e-05 L 804 -3.0517578125e-05 L 804 278 L 0 278 L 0 -3.0517578125e-05 Z" stroke="none" fill="#979797"/></g><g transform="translate(5921 602)"><text transform="translate(0 13)" fill="#1c1c1c" font-size="14" font-family="Helvetica" letter-spacing="0em"><tspan x="0" y="0">Primary Statement Preferences</tspan></text></g><path d="M0,0H804" transform="translate(5897 631.543)" fill="none" stroke="#979797" stroke-width="1"/></g><g transform="translate(5937 664)"><rect width="350" height="36" transform="translate(0 5)" fill="#fff"/><line x2="350" transform="translate(0 40.5)" fill="none" stroke="#979797" stroke-width="1"/><text transform="translate(0 9)" fill="#555" font-size="12" font-family="Helvetica" letter-spacing="0em"><tspan x="0" y="0">Language Preference</tspan></text><text transform="translate(0 27)" fill="#1c1c1c" font-size="14" font-family="Helvetica" letter-spacing="0em"><tspan x="0" y="0">English</tspan></text><g transform="translate(332 22)"><path d="M0,4.5,4.5,0,9,4.5" transform="translate(9 4.5) rotate(180)" fill="none" stroke="#4a4a4a" stroke-linecap="round" stroke-linejoin="round" stroke-width="2"/></g></g><g transform="translate(5937 732)"><rect width="350" height="36" transform="translate(0 6)" fill="#fff"/><line x2="350" transform="translate(0 41.5)" fill="none" stroke="#979797" stroke-width="1"/><text transform="translate(0 10)" fill="#555" font-size="12" font-family="Helvetica" letter-spacing="0em"><tspan x="0" y="0">Primary Distribution Channel</tspan></text><text transform="translate(0 28)" fill="#1c1c1c" font-size="14" font-family="Helvetica" letter-spacing="0em"><tspan x="0" y="0">WBB</tspan></text><g transform="translate(332 23)"><path d="M0,4.5,4.5,0,9,4.5" transform="translate(9 4.5) rotate(180)" fill="none" stroke="#4a4a4a" stroke-linecap="round" stroke-linejoin="round" stroke-width="2"/></g></g><g transform="translate(5937 806)"><rect width="350" height="36" fill="#fff"/><line x2="350" transform="translate(0 35.5)" fill="none" stroke="#979797" stroke-width="1"/><text transform="translate(0 22)" fill="#555" font-size="14" font-family="Helvetica" letter-spacing="0em"><tspan x="0" y="0">WBB ID </tspan></text></g><g transform="translate(6311 738)"><rect width="350" height="36" fill="#fff"/><line x2="350" transform="translate(0 35.5)" fill="none" stroke="#979797" stroke-width="1"/><text transform="translate(0 22)" fill="#797979" font-size="14" font-family="Helvetica" letter-spacing="0em"><tspan x="0" y="0" xml:space="preserve"> WBB ID Type </tspan></text><g transform="translate(328 19)"><path d="M0,4.5,4.5,0,9,4.5" transform="translate(9 4.5) rotate(180)" fill="none" stroke="#4a4a4a" stroke-linecap="round" stroke-linejoin="round" stroke-width="2"/></g></g><g transform="translate(6311 800)"><rect width="350" height="36" transform="translate(0 6)" fill="#fff"/><line x2="350" transform="translate(0 41.5)" fill="none" stroke="#979797" stroke-width="1"/><text transform="translate(0 10)" fill="#555" font-size="12" font-family="Helvetica" letter-spacing="0em"><tspan x="0" y="0">Primary Statement Display Method</tspan></text><text transform="translate(0 28)" fill="#1c1c1c" font-size="14" font-family="Helvetica" letter-spacing="0em"><tspan x="0" y="0">Billing Account</tspan></text><g transform="translate(332 23)"><path d="M0,4.5,4.5,0,9,4.5" transform="translate(9 4.5) rotate(180)" fill="none" stroke="#4a4a4a" stroke-linecap="round" stroke-linejoin="round" stroke-width="2"/></g></g><g transform="translate(6311 664)" opacity="0.5"><rect width="350" height="36" transform="translate(0 6)" fill="#fff"/><line x2="350" transform="translate(0 41.5)" fill="none" stroke="#979797" stroke-width="1"/><text transform="translate(0 10)" fill="#555" font-size="12" font-family="Helvetica" letter-spacing="0em"><tspan x="0" y="0">Statement Type</tspan></text><text transform="translate(0 28)" fill="#1c1c1c" font-size="14" font-family="Helvetica" letter-spacing="0em"><tspan x="0" y="0">PDF</tspan></text><g transform="translate(332 23)"><path d="M0,4.5,4.5,0,9,4.5" transform="translate(9 4.5) rotate(180)" fill="none" stroke="#4a4a4a" stroke-linecap="round" stroke-linejoin="round" stroke-width="2"/></g></g></g><g transform="translate(238 744)"><g transform="translate(636)"><g fill="#444" stroke="#707070" stroke-width="1"><rect width="168" height="44" rx="22" stroke="none"/><rect x="0.5" y="0.5" width="167" height="43" rx="21.5" fill="none"/></g><text transform="translate(86 26)" fill="#fafafa" font-size="14" font-family="Helvetica"><tspan x="-14.393" y="0">Next</tspan></text></g><g fill="#fff" stroke="#707070" stroke-width="1"><rect width="168" height="44" rx="22" stroke="none"/><rect x="0.5" y="0.5" width="167" height="43" rx="21.5" fill="none"/></g><text transform="translate(86 26)" font-size="14" font-family="Helvetica"><tspan x="-21.79" y="0">Cancel</tspan></text></g><g transform="translate(-1 -400)"><g transform="translate(239 980)" fill="#fff"><path d="M 803.5 131.5 L 0.500030517578125 131.5 L 0.500030517578125 0.5 L 803.5 0.5 L 803.5 131.5 Z" stroke="none"/><path d="M 1.00006103515625 1 L 1.00006103515625 131 L 803 131 L 803 1 L 1.00006103515625 1 M 6.103515625e-05 0 L 804 0 L 804 132 L 6.103515625e-05 132 L 6.103515625e-05 0 Z" stroke="none" fill="#979797"/></g><g transform="translate(262.035 995)"><text transform="translate(0 13)" fill="#1c1c1c" font-size="14" font-family="Helvetica" letter-spacing="0em"><tspan x="0" y="0">Billing Preferences</tspan></text></g><path d="M0,0H803" transform="translate(239.5 1027)" fill="none" stroke="#979797" stroke-width="1"/><g transform="translate(278.086 1056)"><rect width="350" height="36" fill="#fff"/><line x2="350" transform="translate(0 35.5)" fill="none" stroke="#979797" stroke-width="1"/><text transform="translate(0 22)" fill="#797979" font-size="14" font-family="Helvetica" letter-spacing="0em"><tspan x="0" y="0">Billing Preference Type</tspan></text><g transform="translate(332 17)"><path d="M0,4.5,4.5,0,9,4.5" transform="translate(9 4.5) rotate(180)" fill="none" stroke="#4a4a4a" stroke-linecap="round" stroke-linejoin="round" stroke-width="2"/></g></g></g><g transform="translate(-78 -194)"><text transform="translate(315 756)" fill="#797979" font-size="14" font-family="Helvetica" letter-spacing="0em"><tspan x="0" y="0">+ Add Secondary Statement Preferences</tspan></text></g></g></g><g transform="translate(0 569)" clip-path="url(#c)"><g transform="translate(92 279)"><rect width="1280" height="1026" fill="#fff" stroke="#b3b3b3" stroke-miterlimit="10" stroke-width="1"/><g transform="translate(238 104)"><g fill="#fff"><path d="M 803.5 135.5 L 0.5 135.5 L 0.5 0.5 L 803.5 0.5 L 803.5 135.5 Z" stroke="none"/><path d="M 1 1 L 1 135 L 803 135 L 803 1 L 1 1 M 0 0 L 804 0 L 804 136 L 0 136 L 0 0 Z" stroke="none" fill="#979797"/></g><g transform="translate(24.477 16)"><text transform="translate(-0.477 13)" fill="#1c1c1c" font-size="14" font-family="Helvetica" letter-spacing="0em"><tspan x="0" y="0">Tax Exempt Status</tspan></text></g><path d="M0,0H804" transform="translate(0 48)" fill="none" stroke="#979797" stroke-width="1"/><g transform="translate(-516 -123)"><g transform="translate(556 221)"><g fill="none" stroke="#555" stroke-miterlimit="10" stroke-width="2"><rect width="16" height="16" rx="2" stroke="none"/><rect x="1" y="1" width="14" height="14" rx="1" fill="none"/></g></g><text transform="translate(580 233)" fill="#1c1c1c" font-size="12" font-family="Helvetica"><tspan x="0" y="0">&lt; Org Unit &gt; is tax exempt.</tspan></text><g transform="translate(556 221)"><rect width="16" height="16" rx="2" fill="#008a00"/><g transform="translate(2 3)"><rect width="12" height="8" fill="none"/><path d="M0,3.441,3.731,6.881,10.325,0" transform="translate(1 1)" fill="none" stroke="#fff" stroke-miterlimit="10" stroke-width="2"/></g></g></g><g transform="translate(414 74)"><rect width="350" height="36" transform="translate(0 6)" fill="#fff"/><line x2="350" transform="translate(0 41.5)" fill="none" stroke="#979797" stroke-width="1"/><text transform="translate(0 10)" fill="#555" font-size="12" font-family="Helvetica" letter-spacing="0em"><tspan x="0" y="0">Reason code</tspan></text><text transform="translate(0 28)" fill="#1c1c1c" font-size="14" font-family="Helvetica" letter-spacing="0em"><tspan x="0" y="0">Other</tspan></text><g transform="translate(332 23)"><path d="M0,4.5,4.5,0,9,4.5" transform="translate(9 4.5) rotate(180)" fill="none" stroke="#4a4a4a" stroke-linecap="round" stroke-linejoin="round" stroke-width="2"/></g></g></g><g transform="translate(505 39)"><text transform="translate(135 21)" fill="#1c1c1c" font-size="26" font-family="Helvetica-Light, Helvetica" font-weight="300"><tspan x="-132.912" y="0">Setup Company Billing</tspan></text></g><g transform="translate(240 33)"><rect width="40" height="40" fill="none"/><g fill="#fff" stroke="#f0f4fb" stroke-miterlimit="10" stroke-width="1"><circle cx="20" cy="20" r="20" stroke="none"/><circle cx="20" cy="20" r="19.5" fill="none"/></g><g transform="translate(12 12)"><path d="M7.371,15.74.26,8.629a.889.889,0,0,1-.153-.2h0L.1,8.407.1,8.4.09,8.389.085,8.379l0-.007L.074,8.355h0a.892.892,0,0,1,0-.708v0l.007-.016,0-.007,0-.01L.1,7.6l0-.006.009-.017h0a.888.888,0,0,1,.153-.2L7.371.26A.889.889,0,0,1,8.629,1.517L3.035,7.111H15.111a.889.889,0,0,1,0,1.778H3.035l5.594,5.594A.889.889,0,0,1,7.371,15.74Z" transform="translate(0 0)" fill="#1c1c1c"/></g></g><g transform="translate(-78 -8)"><text transform="translate(315 756)" fill="#797979" font-size="14" font-family="Helvetica" letter-spacing="0em"><tspan x="0" y="0">+ Add Secondary Statement Preferences</tspan></text></g><g transform="translate(14448.5 17257)"><g transform="translate(-14211.5 -16339)"><g transform="translate(0 16)"><g transform="translate(636)"><g fill="#444" stroke="#707070" stroke-width="1"><rect width="168" height="44" rx="22" stroke="none"/><rect x="0.5" y="0.5" width="167" height="43" rx="21.5" fill="none"/></g><text transform="translate(86 26)" fill="#fafafa" font-size="14" font-family="Helvetica"><tspan x="-14.393" y="0">Next</tspan></text></g><g fill="#fff" stroke="#707070" stroke-width="1"><rect width="168" height="44" rx="22" stroke="none"/><rect x="0.5" y="0.5" width="167" height="43" rx="21.5" fill="none"/></g><text transform="translate(86 26)" font-size="14" font-family="Helvetica"><tspan x="-21.79" y="0">Cancel</tspan></text></g></g><g transform="translate(-14212.5 -16491)"><g transform="translate(1)" fill="#fff"><path d="M 803 135.5 L 0.5 135.5 L 0.5 0.5 L 803 0.5 L 803 135.5 Z" stroke="none"/><path d="M 1 1 L 1 135 L 802.5 135 L 802.5 1 L 1 1 M 0 0 L 803.5 0 L 803.5 136 L 0 136 L 0 0 Z" stroke="none" fill="#979797"/></g><g transform="translate(24 16)"><text transform="translate(0 13)" fill="#1c1c1c" font-size="14" font-family="Helvetica" letter-spacing="0em"><tspan x="0" y="0">Billing Preferences</tspan></text></g><path d="M0,0H802" transform="translate(1.5 48)" fill="none" stroke="#979797" stroke-width="1"/><g transform="translate(41 77)"><rect width="349.5" height="36" fill="#fff"/><line x2="349.5" transform="translate(0 35.5)" fill="none" stroke="#979797" stroke-width="1"/><text transform="translate(0 22)" fill="#797979" font-size="14" font-family="Helvetica" letter-spacing="0em"><tspan x="0" y="0">Billing Preference Type</tspan></text><g transform="translate(327.5 19)"><path d="M0,4.5,4.5,0,9,4.5" transform="translate(9 4.5) rotate(180)" fill="none" stroke="#4a4a4a" stroke-linecap="round" stroke-linejoin="round" stroke-width="2"/></g></g></g></g><g transform="translate(2)"><g transform="translate(235 258)" fill="#fff"><path d="M 803.5 461.5 L 0.5 461.5 L 0.5 0.5000152587890625 L 803.5 0.5000152587890625 L 803.5 461.5 Z" stroke="none"/><path d="M 1 1.000030517578125 L 1 461 L 803 461 L 803 1.000030517578125 L 1 1.000030517578125 M 0 3.0517578125e-05 L 804 3.0517578125e-05 L 804 462 L 0 462 L 0 3.0517578125e-05 Z" stroke="none" fill="#979797"/></g><g transform="translate(259 274)"><text transform="translate(0 12)" fill="#1c1c1c" font-size="16" font-family="Helvetica" letter-spacing="0em"><tspan x="0" y="0">Primary Statement Preferences</tspan></text></g><path d="M0,0H804" transform="translate(235 306.355)" fill="none" stroke="#979797" stroke-width="1"/><g transform="translate(275 338)"><rect width="350" height="35.956" fill="#fff"/><line x2="350" transform="translate(0 35.456)" fill="none" stroke="#979797" stroke-width="1"/><text transform="translate(0 21.98)" fill="#797979" font-size="14" font-family="Helvetica" letter-spacing="0em"><tspan x="0" y="0">Language Preference</tspan></text><g transform="translate(328 18.973)"><path d="M0,4.5,4.5,0,9,4.5" transform="translate(9 4.5) rotate(180)" fill="none" stroke="#4a4a4a" stroke-linecap="round" stroke-linejoin="round" stroke-width="2"/></g></g><g transform="translate(649 406)"><rect width="350" height="36" fill="#fff"/><line x2="350" transform="translate(0 35.5)" fill="none" stroke="#979797" stroke-width="1"/><text transform="translate(0 22)" fill="#797979" font-size="14" font-family="Helvetica" letter-spacing="0em"><tspan x="0" y="0">Primary Statement Display Method</tspan></text><g transform="translate(328 19)"><path d="M0,4.5,4.5,0,9,4.5" transform="translate(9 4.5) rotate(180)" fill="none" stroke="#4a4a4a" stroke-linecap="round" stroke-linejoin="round" stroke-width="2"/></g></g><g transform="translate(649 332)" opacity="0.5"><rect width="350" height="36" transform="translate(0 6)" fill="#fff"/><line x2="350" transform="translate(0 41.5)" fill="none" stroke="#979797" stroke-width="1"/><text transform="translate(0 10)" fill="#555" font-size="12" font-family="Helvetica" letter-spacing="0em"><tspan x="0" y="0">Statement Type</tspan></text><text transform="translate(0 28)" fill="#1c1c1c" font-size="14" font-family="Helvetica" letter-spacing="0em"><tspan x="0" y="0">PDF</tspan></text><g transform="translate(332 23)"><path d="M0,4.5,4.5,0,9,4.5" transform="translate(9 4.5) rotate(180)" fill="none" stroke="#4a4a4a" stroke-linecap="round" stroke-linejoin="round" stroke-width="2"/></g></g><g transform="translate(275 400)"><rect width="350" height="36" transform="translate(0 6)" fill="#fff"/><line x2="350" transform="translate(0 41.5)" fill="none" stroke="#979797" stroke-width="1"/><text transform="translate(0 10)" fill="#555" font-size="12" font-family="Helvetica" letter-spacing="0em"><tspan x="0" y="0">Primary Distribution Channel</tspan></text><text transform="translate(0 28)" fill="#1c1c1c" font-size="14" font-family="Helvetica" letter-spacing="0em"><tspan x="0" y="0">Mail</tspan></text><g transform="translate(328 24)"><path d="M0,4.5,4.5,0,9,4.5" transform="translate(9 4.5) rotate(180)" fill="none" stroke="#4a4a4a" stroke-linecap="round" stroke-linejoin="round" stroke-width="2"/></g></g><g transform="translate(-4625 -244)"><g transform="translate(4342 497)"><g transform="translate(556 221)"><g fill="none" stroke="#555" stroke-miterlimit="10" stroke-width="2"><rect width="16" height="16" rx="2" stroke="none"/><rect x="1" y="1" width="14" height="14" rx="1" fill="none"/></g></g><text transform="translate(580 233)" fill="#1c1c1c" font-size="12" font-family="Helvetica"><tspan x="0" y="0">Use CIF Address</tspan></text></g></g><g transform="translate(275 522)"><rect width="350" height="36" transform="translate(0 6)" fill="#fff"/><line x2="350" transform="translate(0 41.5)" fill="none" stroke="#979797" stroke-width="1"/><text transform="translate(0 10)" fill="#555" font-size="12" font-family="Helvetica" letter-spacing="0em"><tspan x="0" y="0">Address Line 1</tspan></text><text transform="translate(0 28)" fill="#1c1c1c" font-size="14" font-family="Helvetica" letter-spacing="0em"><tspan x="0" y="0">King Street 350</tspan></text></g><g transform="translate(275 590)"><rect width="350" height="36" transform="translate(0 6)" fill="#fff"/><line x2="350" transform="translate(0 41.5)" fill="none" stroke="#979797" stroke-width="1"/><text transform="translate(0 10)" fill="#555" font-size="12" font-family="Helvetica" letter-spacing="0em"><tspan x="0" y="0">City</tspan></text><text transform="translate(0 28)" fill="#1c1c1c" font-size="14" font-family="Helvetica" letter-spacing="0em"><tspan x="0" y="0">Toronto</tspan></text></g><g transform="translate(647 590)"><rect width="350" height="36" transform="translate(0 6)" fill="#fff"/><line x2="350" transform="translate(0 41.5)" fill="none" stroke="#979797" stroke-width="1"/><text transform="translate(0 10)" fill="#555" font-size="12" font-family="Helvetica" letter-spacing="0em"><tspan x="0" y="0">Country</tspan></text><text transform="translate(0 28)" fill="#1c1c1c" font-size="14" font-family="Helvetica" letter-spacing="0em"><tspan x="0" y="0">Canada</tspan></text><g transform="translate(328 24.75)"><path d="M0,4.5,4.5,0,9,4.5" transform="translate(9 4.5) rotate(180)" fill="none" stroke="#4a4a4a" stroke-linecap="round" stroke-linejoin="round" stroke-width="2"/></g></g><g transform="translate(647 658)"><rect width="350" height="36" transform="translate(0 6)" fill="#fff"/><line x2="350" transform="translate(0 41.5)" fill="none" stroke="#979797" stroke-width="1"/><text transform="translate(0 10)" fill="#555" font-size="12" font-family="Helvetica" letter-spacing="0em"><tspan x="0" y="0">Postal Code</tspan></text><text transform="translate(0 28)" fill="#1c1c1c" font-size="14" font-family="Helvetica" letter-spacing="0em"><tspan x="0" y="0">M5V 3X5</tspan></text></g><g transform="translate(275 658)"><rect width="350" height="36" transform="translate(0 6)" fill="#fff"/><line x2="350" transform="translate(0 41.5)" fill="none" stroke="#979797" stroke-width="1"/><text transform="translate(0 10)" fill="#555" font-size="12" font-family="Helvetica" letter-spacing="0em"><tspan x="0" y="0">Province</tspan></text><text transform="translate(0 28)" fill="#1c1c1c" font-size="14" font-family="Helvetica" letter-spacing="0em"><tspan x="0" y="0">Ontario</tspan></text><g transform="translate(328 24)"><path d="M0,4.5,4.5,0,9,4.5" transform="translate(9 4.5) rotate(180)" fill="none" stroke="#4a4a4a" stroke-linecap="round" stroke-linejoin="round" stroke-width="2"/></g></g><g transform="translate(647 522)"><rect width="350" height="36" transform="translate(0 6)" fill="#fff"/><line x2="350" transform="translate(0 41.5)" fill="none" stroke="#979797" stroke-width="1"/><text transform="translate(0 10)" fill="#555" font-size="12" font-family="Helvetica" letter-spacing="0em"><tspan x="0" y="0">Address Line 2</tspan></text><text transform="translate(0 28)" fill="#1c1c1c" font-size="14" font-family="Helvetica" letter-spacing="0em"><tspan x="0" y="0" xml:space="preserve">Floor 2nd, P.O Box  #1247, Metro Hall</tspan></text></g></g></g></g><g transform="translate(0 1178)" clip-path="url(#d)"><g transform="translate(92 279)"><rect width="1280" height="871" fill="#fff" stroke="#b3b3b3" stroke-miterlimit="10" stroke-width="1"/><g transform="translate(238 104)"><g fill="#fff"><path d="M 803.5 135.5 L 0.5 135.5 L 0.5 0.5 L 803.5 0.5 L 803.5 135.5 Z" stroke="none"/><path d="M 1 1 L 1 135 L 803 135 L 803 1 L 1 1 M 0 0 L 804 0 L 804 136 L 0 136 L 0 0 Z" stroke="none" fill="#979797"/></g><g transform="translate(24.477 16)"><text transform="translate(-0.477 13)" fill="#1c1c1c" font-size="14" font-family="Helvetica" letter-spacing="0em"><tspan x="0" y="0">Tax Exempt Status</tspan></text></g><path d="M0,0H804" transform="translate(0 48)" fill="none" stroke="#979797" stroke-width="1"/><g transform="translate(-516 -123)"><g transform="translate(556 221)"><g fill="none" stroke="#555" stroke-miterlimit="10" stroke-width="2"><rect width="16" height="16" rx="2" stroke="none"/><rect x="1" y="1" width="14" height="14" rx="1" fill="none"/></g></g><text transform="translate(580 233)" fill="#1c1c1c" font-size="12" font-family="Helvetica"><tspan x="0" y="0">&lt; Org Unit &gt; is tax exempt.</tspan></text><g transform="translate(556 221)"><rect width="16" height="16" rx="2" fill="#008a00"/><g transform="translate(2 3)"><rect width="12" height="8" fill="none"/><path d="M0,3.441,3.731,6.881,10.325,0" transform="translate(1 1)" fill="none" stroke="#fff" stroke-miterlimit="10" stroke-width="2"/></g></g></g><g transform="translate(414 74)"><rect width="350" height="36" transform="translate(0 6)" fill="#fff"/><line x2="350" transform="translate(0 41.5)" fill="none" stroke="#979797" stroke-width="1"/><text transform="translate(0 10)" fill="#555" font-size="12" font-family="Helvetica" letter-spacing="0em"><tspan x="0" y="0">Reason code</tspan></text><text transform="translate(0 28)" fill="#1c1c1c" font-size="14" font-family="Helvetica" letter-spacing="0em"><tspan x="0" y="0">Other</tspan></text><g transform="translate(332 23)"><path d="M0,4.5,4.5,0,9,4.5" transform="translate(9 4.5) rotate(180)" fill="none" stroke="#4a4a4a" stroke-linecap="round" stroke-linejoin="round" stroke-width="2"/></g></g></g><g transform="translate(505 39)"><text transform="translate(135 21)" fill="#1c1c1c" font-size="26" font-family="Helvetica-Light, Helvetica" font-weight="300"><tspan x="-132.912" y="0">Setup Company Billing</tspan></text></g><g transform="translate(240 33)"><rect width="40" height="40" fill="none"/><g fill="#fff" stroke="#f0f4fb" stroke-miterlimit="10" stroke-width="1"><circle cx="20" cy="20" r="20" stroke="none"/><circle cx="20" cy="20" r="19.5" fill="none"/></g><g transform="translate(12 12)"><path d="M7.371,15.74.26,8.629a.889.889,0,0,1-.153-.2h0L.1,8.407.1,8.4.09,8.389.085,8.379l0-.007L.074,8.355h0a.892.892,0,0,1,0-.708v0l.007-.016,0-.007,0-.01L.1,7.6l0-.006.009-.017h0a.888.888,0,0,1,.153-.2L7.371.26A.889.889,0,0,1,8.629,1.517L3.035,7.111H15.111a.889.889,0,0,1,0,1.778H3.035l5.594,5.594A.889.889,0,0,1,7.371,15.74Z" transform="translate(0 0)" fill="#1c1c1c"/></g></g><g transform="translate(-78 -215)"><text transform="translate(315 756)" fill="#797979" font-size="14" font-family="Helvetica" letter-spacing="0em"><tspan x="0" y="0">+ Add Secondary Statement Preferences</tspan></text></g><g transform="translate(14448.5 17050)"><g transform="translate(-14211.5 -16339)"><g transform="translate(0 16)"><g transform="translate(636)"><g fill="#444" stroke="#707070" stroke-width="1"><rect width="168" height="44" rx="22" stroke="none"/><rect x="0.5" y="0.5" width="167" height="43" rx="21.5" fill="none"/></g><text transform="translate(86 26)" fill="#fafafa" font-size="14" font-family="Helvetica"><tspan x="-14.393" y="0">Next</tspan></text></g><g fill="#fff" stroke="#707070" stroke-width="1"><rect width="168" height="44" rx="22" stroke="none"/><rect x="0.5" y="0.5" width="167" height="43" rx="21.5" fill="none"/></g><text transform="translate(86 26)" font-size="14" font-family="Helvetica"><tspan x="-21.79" y="0">Cancel</tspan></text></g></g><g transform="translate(-14212.5 -16491)"><g transform="translate(1)" fill="#fff"><path d="M 803 135.5 L 0.5 135.5 L 0.5 0.5 L 803 0.5 L 803 135.5 Z" stroke="none"/><path d="M 1 1 L 1 135 L 802.5 135 L 802.5 1 L 1 1 M 0 0 L 803.5 0 L 803.5 136 L 0 136 L 0 0 Z" stroke="none" fill="#979797"/></g><g transform="translate(24 16)"><text transform="translate(0 13)" fill="#1c1c1c" font-size="14" font-family="Helvetica" letter-spacing="0em"><tspan x="0" y="0">Billing Preferences</tspan></text></g><path d="M0,0H802" transform="translate(1.5 48)" fill="none" stroke="#979797" stroke-width="1"/><g transform="translate(41 77)"><rect width="349.5" height="36" fill="#fff"/><line x2="349.5" transform="translate(0 35.5)" fill="none" stroke="#979797" stroke-width="1"/><text transform="translate(0 22)" fill="#797979" font-size="14" font-family="Helvetica" letter-spacing="0em"><tspan x="0" y="0">Billing Preference Type</tspan></text><g transform="translate(327.5 19)"><path d="M0,4.5,4.5,0,9,4.5" transform="translate(9 4.5) rotate(180)" fill="none" stroke="#4a4a4a" stroke-linecap="round" stroke-linejoin="round" stroke-width="2"/></g></g></g></g><g transform="translate(2)"><g transform="translate(235 258)" fill="#fff"><path d="M 803.5 254.5 L 0.5 254.5 L 0.5 0.5 L 803.5 0.5 L 803.5 254.5 Z" stroke="none"/><path d="M 1 1 L 1 254 L 803 254 L 803 1 L 1 1 M 0 0 L 804 0 L 804 255 L 0 255 L 0 0 Z" stroke="none" fill="#979797"/></g><g transform="translate(259 274)"><text transform="translate(0 12)" fill="#1c1c1c" font-size="16" font-family="Helvetica" letter-spacing="0em"><tspan x="0" y="0">Primary Statement Preferences</tspan></text></g><path d="M0,0H804" transform="translate(235 306.355)" fill="none" stroke="#979797" stroke-width="1"/><g transform="translate(275 338)"><rect width="350" height="35.956" fill="#fff"/><line x2="350" transform="translate(0 35.456)" fill="none" stroke="#979797" stroke-width="1"/><text transform="translate(0 21.98)" fill="#797979" font-size="14" font-family="Helvetica" letter-spacing="0em"><tspan x="0" y="0">Language Preference</tspan></text><g transform="translate(328 18.973)"><path d="M0,4.5,4.5,0,9,4.5" transform="translate(9 4.5) rotate(180)" fill="none" stroke="#4a4a4a" stroke-linecap="round" stroke-linejoin="round" stroke-width="2"/></g></g><g transform="translate(649 406)"><rect width="350" height="36" fill="#fff"/><line x2="350" transform="translate(0 35.5)" fill="none" stroke="#979797" stroke-width="1"/><text transform="translate(0 22)" fill="#797979" font-size="14" font-family="Helvetica" letter-spacing="0em"><tspan x="0" y="0">Primary Statement Display Method</tspan></text><g transform="translate(328 19)"><path d="M0,4.5,4.5,0,9,4.5" transform="translate(9 4.5) rotate(180)" fill="none" stroke="#4a4a4a" stroke-linecap="round" stroke-linejoin="round" stroke-width="2"/></g></g><g transform="translate(649 332)" opacity="0.5"><rect width="350" height="36" transform="translate(0 6)" fill="#fff"/><line x2="350" transform="translate(0 41.5)" fill="none" stroke="#979797" stroke-width="1"/><text transform="translate(0 10)" fill="#555" font-size="12" font-family="Helvetica" letter-spacing="0em"><tspan x="0" y="0">Statement Type</tspan></text><text transform="translate(0 28)" fill="#1c1c1c" font-size="14" font-family="Helvetica" letter-spacing="0em"><tspan x="0" y="0">PDF</tspan></text><g transform="translate(332 23)"><path d="M0,4.5,4.5,0,9,4.5" transform="translate(9 4.5) rotate(180)" fill="none" stroke="#4a4a4a" stroke-linecap="round" stroke-linejoin="round" stroke-width="2"/></g></g><g transform="translate(275 400)"><rect width="350" height="36" transform="translate(0 6)" fill="#fff"/><line x2="350" transform="translate(0 41.5)" fill="none" stroke="#979797" stroke-width="1"/><text transform="translate(0 10)" fill="#555" font-size="12" font-family="Helvetica" letter-spacing="0em"><tspan x="0" y="0">Primary Distribution Channel</tspan></text><text transform="translate(0 28)" fill="#1c1c1c" font-size="14" font-family="Helvetica" letter-spacing="0em"><tspan x="0" y="0">Mail</tspan></text><g transform="translate(332 23)"><path d="M0,4.5,4.5,0,9,4.5" transform="translate(9 4.5) rotate(180)" fill="none" stroke="#4a4a4a" stroke-linecap="round" stroke-linejoin="round" stroke-width="2"/></g></g><g transform="translate(-4625 -244)"><g transform="translate(4342 497)"><g transform="translate(556 221)"><g fill="none" stroke="#555" stroke-miterlimit="10" stroke-width="2"><rect width="16" height="16" rx="2" stroke="none"/><rect x="1" y="1" width="14" height="14" rx="1" fill="none"/></g></g><text transform="translate(580 233)" fill="#1c1c1c" font-size="12" font-family="Helvetica"><tspan x="0" y="0">Use CIF Address</tspan></text><g transform="translate(556 221)"><rect width="16" height="16" rx="2" fill="#2634c6"/><g transform="translate(2 3)"><rect width="12" height="8" fill="none"/><path d="M0,3.441,3.731,6.881,10.325,0" transform="translate(1 1)" fill="none" stroke="#fff" stroke-miterlimit="10" stroke-width="2"/></g></g></g></g></g></g></g><text transform="translate(92 1047)" fill="#707070" font-size="16" font-family="HelveticaNeue, Helvetica Neue"><tspan x="0" y="15">Primary Distribution Channel: Mail</tspan></text><text transform="translate(92 1656)" fill="#707070" font-size="16" font-family="HelveticaNeue, Helvetica Neue"><tspan x="0" y="15">Primary Distribution Channel: Mail: Use CIF Address selected</tspan></text><path d="M0,0H1110V2784H0Z" transform="translate(1569.001)" fill="#f3f3f3"/><g transform="translate(1637 400)"><circle cx="15" cy="15" r="15" fill="#ff6127"/><text transform="translate(11 21)" fill="#fff" font-size="18" font-family="Helvetica"><tspan x="0" y="0">1</tspan></text></g><g transform="translate(1637 619)"><circle cx="15" cy="15" r="15" fill="#ff6127"/><text transform="translate(11 21)" fill="#fff" font-size="18" font-family="Helvetica"><tspan x="0" y="0">2</tspan></text></g><g transform="translate(1637 693)"><circle cx="15" cy="15" r="15" fill="#ff6127"/><text transform="translate(11 21)" fill="#fff" font-size="18" font-family="Helvetica"><tspan x="0" y="0">3</tspan></text></g><g transform="translate(1637 1131)"><circle cx="15" cy="15" r="15" fill="#ff6127"/><text transform="translate(11 21)" fill="#fff" font-size="18" font-family="Helvetica"><tspan x="0" y="0">5</tspan></text></g><g transform="translate(1637 1517)"><circle cx="15" cy="15" r="15" fill="#ff6127"/><text transform="translate(11 21)" fill="#fff" font-size="18" font-family="Helvetica"><tspan x="0" y="0">6</tspan></text></g><g transform="translate(1637 914)"><circle cx="15" cy="15" r="15" fill="#ff6127"/><text transform="translate(11 21)" fill="#fff" font-size="18" font-family="Helvetica"><tspan x="0" y="0">4</tspan></text></g><g transform="translate(1637 2653)"><circle cx="15" cy="15" r="15" fill="#ff6127"/><text transform="translate(11 21)" fill="#fff" font-size="18" font-family="Helvetica"><tspan x="0" y="0">7</tspan></text></g><text transform="translate(1682.685 619)" font-size="16" font-family="Helvetica"><tspan x="0" y="12" xml:space="preserve">The Statement Type dropdown selection field cannot be changed by the user and is set to PDF by default.  For this reason, the drop </tspan><tspan x="0" y="38">down field is is disabled. This is the format of the statement.</tspan></text><text transform="translate(1682.685 693)" font-size="16" font-family="Helvetica"><tspan x="0" y="12">The Primary Distribution Channel dropdown selection field allows the user to receive a primary billing statement via preferred </tspan><tspan x="0" y="38">delivery method. The value can only be Mail or WBB. Depending on the selection, the card will be dynamically changed to match the </tspan><tspan x="0" y="64">fields shown.</tspan></text><text transform="translate(1682.685 914)" font-size="16" font-family="Helvetica"><tspan x="0" y="12">The Primary Statement Display Method dropdown selection field specifies how the statement is displayed. This can only be Billing </tspan><tspan x="0" y="38">Account or Operating Account, where the statement is formatted to reflect charges for each service account, or to be formatted to </tspan><tspan x="0" y="64">show all activity that happens under an operating account.</tspan></text><text transform="translate(1682.685 1517)" font-size="16" font-family="Helvetica"><tspan x="0" y="12">Selection of Primary Distribution Channel: Mail will disclose the following fields:</tspan><tspan text-decoration="underline"><tspan x="0" y="38"></tspan><tspan x="0" y="64">Use CIF address</tspan></tspan><tspan x="0" y="90">This is a checkbox that when selected will hide the 6 address related fields (Address Line 1, Address Line 2, City, Province, Postal </tspan><tspan x="0" y="116">Code, Country).</tspan><tspan x="0" y="142"></tspan><tspan x="0" y="168" text-decoration="underline">Address line 1</tspan><tspan y="168"></tspan><tspan x="0" y="194">Editable text field. Minimum 3, maximum 255 alphanumeric character limit. Special characters are allowed.</tspan><tspan x="0" y="220"></tspan><tspan x="0" y="246" text-decoration="underline">Address line 2</tspan><tspan y="246"></tspan><tspan x="0" y="272">Editable text field. Minimum 3, maximum 255 alphanumeric character limit. Special characters are allowed.</tspan><tspan text-decoration="underline"><tspan x="0" y="298"></tspan></tspan><tspan x="0" y="324" text-decoration="underline">City</tspan><tspan y="324"></tspan><tspan x="0" y="350">Editable text field. Minimum 3, maximum 50 alphanumeric character limit. Special characters are allowed.</tspan><tspan y="350" text-decoration="underline"></tspan><tspan text-decoration="underline"><tspan x="0" y="376"></tspan></tspan><tspan x="0" y="402" text-decoration="underline">Country</tspan><tspan y="402"></tspan><tspan x="0" y="428">Searchable dropdown field. Canada and United States of America are the only options. After a selection is made, the Province/State </tspan><tspan x="0" y="454">and Postal/Zip Code fields are disclosed.</tspan><tspan text-decoration="underline"><tspan x="0" y="480"></tspan><tspan x="0" y="506">Province</tspan></tspan><tspan x="0" y="532">Searchable dropdown field of Canadian provinces and territories, disclosed if Canada is selected. Listed in alphabetical order. </tspan><tspan x="0" y="558"></tspan><tspan text-decoration="underline"><tspan x="0" y="584">State</tspan></tspan><tspan x="0" y="610">Searchable dropdown field of US states, disclosed if United States of America is selected. Listed in alphabetical order. </tspan><tspan text-decoration="underline"><tspan x="0" y="636"></tspan><tspan x="0" y="662">Postal code</tspan></tspan><tspan x="0" y="688">Editable text field, disclosed if Canada is selected. 7 alphanumeric character limit. Special characters are allowed. The formatting </tspan><tspan x="0" y="714">must be: [A-Za-z]\d[A-Za-z][ -]?\d[A-Za-z].</tspan><tspan text-decoration="underline"><tspan x="0" y="740"></tspan><tspan x="0" y="766">ZipCode</tspan></tspan><tspan x="0" y="792">Editable text field, disclosed if United States of America is selected. 5 or 9 numeric character limit. The formatting must be DDDDD or </tspan><tspan x="0" y="818">DDDDD-DDDD.</tspan></text><text transform="translate(1682.685 2653)" font-size="16" font-family="Helvetica"><tspan x="0" y="12">Selecting the “Use CIF Address” checkbox hides the Address related fields that appear when Mail is selected. This sets the with the </tspan><tspan x="0" y="38">CIF Address. </tspan></text><text transform="translate(1682.685 1131)" font-size="16" font-family="Helvetica"><tspan x="0" y="12">Selecting Primary Distribution Channel: WBB will disclose the following fields:</tspan><tspan text-decoration="underline"><tspan x="0" y="38"></tspan><tspan x="0" y="64">WBB ID Type</tspan></tspan><tspan x="0" y="90">A dropdown selection field with two options: Default and Alternate. </tspan><tspan x="0" y="116">If Default is selected for WBB ID Type, the WBB ID field will be pre-filled by the system and disabled to prevent user edits.</tspan><tspan x="0" y="142">If Alternate is selected for WBB ID Type, the WBB ID field will be editable.</tspan><tspan x="0" y="168"></tspan><tspan x="0" y="194"></tspan><tspan x="0" y="220"></tspan><tspan x="0" y="246"></tspan><tspan x="0" y="272"></tspan><tspan text-decoration="underline"><tspan x="0" y="298">WBB ID</tspan></tspan><tspan x="0" y="324">Editable text field. WBB ID is always a five-character numeric field (no alpha, no special characters). Depending on the WBB ID Type </tspan><tspan x="0" y="350">field selection, this may be disabled, and the values may be pre-filled (as described in WBB ID Type above).</tspan></text><text transform="translate(1637 299)" font-size="16" font-family="Helvetica"><tspan x="0" y="12">The Primary Statement Preferences card has two main variations based on the selection of the Primary Distribution </tspan><tspan x="0" y="38">Channel. The fields that are disclosed based on a field selection are indicated in the wire frames on the left of this page in </tspan><tspan x="0" y="64">green dotted lines.</tspan></text><text transform="translate(1682.685 407)" font-size="16" font-family="Helvetica"><tspan x="0" y="12">The Language Preference dropdown selection field has two options, French or English. This specifies what language the bill </tspan><tspan x="0" y="38">should be in.</tspan></text><g transform="translate(45.685 15)"><g transform="translate(1730 450)"><rect width="350" height="36" transform="translate(0 5)" fill="#fff"/><line x2="350" transform="translate(0 40.5)" fill="none" stroke="#979797" stroke-width="1"/><text transform="translate(0 9)" fill="#555" font-size="12" font-family="Helvetica" letter-spacing="0em"><tspan x="0" y="0">Language Preference</tspan></text><text transform="translate(0 27)" fill="#1c1c1c" font-size="14" font-family="Helvetica" letter-spacing="0em"><tspan x="0" y="0">English</tspan></text><g transform="translate(332 22)"><path d="M0,4.5,4.5,0,9,4.5" transform="translate(9 4.5) rotate(180)" fill="none" stroke="#4a4a4a" stroke-linecap="round" stroke-linejoin="round" stroke-width="2"/></g></g><g transform="translate(1362 -234)"><g transform="translate(368 725)"><g transform="matrix(1, 0, 0, 1, -1775.68, -506)" filter="url(#e)"><rect width="350" height="64" transform="translate(1775.68 506)" fill="#fff"/></g><rect width="350" height="32" transform="translate(0 32)" fill="#f4f7fc"/><text transform="translate(15 20)" fill="#1c1c1c" font-size="12" font-family="Helvetica"><tspan x="0" y="0">French</tspan><tspan x="0" y="32">English</tspan></text></g><g transform="translate(692 697)"><rect width="24" height="24" fill="#ff8686" opacity="0.301"/></g><g transform="translate(659 767)"><path d="M4.124,0c0,.246,0,.492-.007.738v.1l-.1,0C3.777.853,3.538.856,3.3.858c-.013,2.5-.006,5-.007,7.5v.108h-.1c-.2,0-.4,0-.606.01l-.11,0V8.362c0-.244,0-.488,0-.731C1.647,7.624.823,7.619,0,7.634c0,.844,0,1.689,0,2.533.238,0,.48.016.721,0l.132-.01-.02.135a5.086,5.086,0,0,0-.011.735c.228.012.457.015.687.015h.1l.008.1c.038.522.019,1.046.028,1.571.236.01.474.014.712.016h.1v.106c0,.524,0,1.047.011,1.571.239,0,.479.016.72,0l.122-.007-.009.124c-.04.524-.005,1.051-.009,1.576q.349.007.7.009h.1v.108c.01.809.005,1.618.016,2.427,1.355.02,2.711.022,4.066.02,1.388,0,2.775.01,4.163-.025-.022-.807.048-1.613.016-2.419l0-.116.112,0c.233.007.466,0,.7-.005.009-.8.01-1.606.011-2.408v-.1l.1-.01a6.742,6.742,0,0,1,.715-.023c.006-.9-.01-1.8.016-2.7v-.005c-.029-1.079-.008-2.16-.021-3.24-.235,0-.47,0-.7,0h-.1l0-.1c0-.238-.008-.478,0-.717-.241-.007-.481,0-.72-.014l-.092-.005-.007-.1c-.017-.248-.009-.5-.012-.749-.511,0-1.022,0-1.532-.005h-.1V5.821c0-.238-.007-.476,0-.715-.784-.043-1.571-.015-2.355-.025h-.1l0-.1c-.011-.245-.015-.49-.015-.738-.51,0-1.02,0-1.53-.01l-.1,0v-.1c-.01-1.088,0-2.176-.008-3.264l-.408,0H5.76V.747A6.989,6.989,0,0,0,5.742,0C5.2,0,4.663,0,4.124,0" fill="#fff"/><g transform="translate(3.889)"><path d="M0,0H1.47V.754H0Z" transform="translate(0.042 0.008)" fill="none"/><g clip-path="url(#g)"><path d="M.006,0C.487,0,.969,0,1.45,0a6.725,6.725,0,0,1,.017.749c-.489,0-.978,0-1.467,0C0,.5,0,.251.006,0" transform="translate(0.042 0.008)" fill="#1c1c1c"/></g></g><path d="M.783.013c.256,0,.513,0,.77-.013q0,4.664,0,9.328-.388.01-.775,0c0-.278,0-.557,0-.836C.521,8.482.264,8.484.007,8.485,0,8.2,0,7.916.007,7.631c.256-.01.513-.007.77-.011C.778,5.084.77,2.549.783.013" transform="translate(2.333 0.778)" fill="#1c1c1c"/><g transform="translate(5.444 0.778)"><path d="M0,0H8.5V15.459H0Z" transform="translate(0.053 0.049)" fill="none"/><g clip-path="url(#h)"><path d="M.007,0C.287,0,.568,0,.848,0c0,1.139,0,2.278.008,3.416.561.015,1.123.007,1.684.009,0,.284,0,.568.016.852.845.014,1.691-.02,2.535.025q0,.416,0,.832c.562.01,1.125,0,1.688.006,0,.285-.014.572.016.856.28.025.56.01.84.018,0,.278,0,.556,0,.834.277,0,.554.007.832,0,.013,1.095-.008,2.19.022,3.284-.027.911-.011,1.823-.017,2.734a6.293,6.293,0,0,0-.835.031c0,.847,0,1.694-.011,2.541-.278.009-.556.018-.834,0-.032-.862-.017-1.724-.009-2.587q.419,0,.84,0,0-3,0-6.007c-.28,0-.559,0-.839,0-.016-.279,0-.559-.02-.837A4.46,4.46,0,0,0,5.938,6c-.006.859.01,1.718-.007,2.577H5.1c-.019-1.146,0-2.291-.007-3.437-.567,0-1.135,0-1.7,0,0,.858.009,1.717,0,2.574q-.422.009-.842,0c-.006-1.145-.007-2.29.007-3.434-.568,0-1.135,0-1.7,0-.006,1.143,0,2.287,0,3.43q-.426.012-.852,0Q0,3.86.007,0" transform="translate(0.053 0.049)" fill="#1c1c1c"/></g></g><path d="M0,.009C.776,0,1.552,0,2.327.006c.005.257.01.513,0,.769C1.815.787,1.3.778.787.782.768,1.294.814,1.806.78,2.317a5.819,5.819,0,0,1-.779,0C0,1.551,0,.78,0,.009" transform="translate(0 7.778)" fill="#1c1c1c"/><path d="M.034.025A4.148,4.148,0,0,1,.783.008c.005.258.006.516,0,.774.257,0,.514,0,.772,0,.006.514,0,1.027,0,1.541q.381,0,.763,0c0,.515.033,1.034-.019,1.547a7.03,7.03,0,0,1-.752,0c-.008-.509-.007-1.018-.011-1.528-.254,0-.509-.006-.763-.016C.77,1.827.795,1.319.749.813.5.814.256.81.011.8A3.347,3.347,0,0,1,.034.025" transform="translate(0.778 10.111)" fill="#1c1c1c"/><path d="M.03.011C.305-.008.583,0,.859,0c.008.512,0,1.025,0,1.537.281,0,.563,0,.845.008.005.512,0,1.025,0,1.538q3.371.007,6.743,0c.009-.513,0-1.026,0-1.539.288,0,.575-.007.863.008.046.769-.037,1.538-.013,2.308-1.425.031-2.851.02-4.276.022-1.392,0-2.784,0-4.176-.018C.843,3.1.849,2.331.837,1.563c-.275,0-.549,0-.824-.009A14.9,14.9,0,0,1,.03.011" transform="translate(3.111 14.778)" fill="#1c1c1c"/></g><path d="M0,0H350V2H0Z" transform="translate(368 723.543)" fill="#2634c6"/></g></g><g transform="translate(45.685 -69)"><g transform="translate(1730 850)"><rect width="350" height="35.956" fill="#fff"/><line x2="350" transform="translate(0 35.456)" fill="none" stroke="#979797" stroke-width="1"/><text transform="translate(0 21.98)" fill="#797979" font-size="14" font-family="Helvetica" letter-spacing="0em"><tspan x="0" y="0">Primary Distribution Channel</tspan></text><g transform="translate(328 18.973)"><path d="M0,4.5,4.5,0,9,4.5" transform="translate(9 4.5) rotate(180)" fill="none" stroke="#4a4a4a" stroke-linecap="round" stroke-linejoin="round" stroke-width="2"/></g></g><g transform="translate(1362 162)"><g transform="translate(368 725)"><g transform="matrix(1, 0, 0, 1, -1775.68, -818)" filter="url(#i)"><rect width="350" height="64" transform="translate(1775.68 818)" fill="#fff"/></g><rect width="350" height="32" fill="#f4f7fc"/><text transform="translate(15 20)" fill="#1c1c1c" font-size="12" font-family="Helvetica"><tspan x="0" y="0">Mail</tspan><tspan x="0" y="32">WBB</tspan></text></g><g transform="translate(689 697)"><rect width="24" height="24" fill="#ff8686" opacity="0.301"/></g><g transform="translate(659 745)"><path d="M4.124,0c0,.246,0,.492-.007.738v.1l-.1,0C3.777.853,3.538.856,3.3.858c-.013,2.5-.006,5-.007,7.5v.108h-.1c-.2,0-.4,0-.606.01l-.11,0V8.362c0-.244,0-.488,0-.731C1.647,7.624.823,7.619,0,7.634c0,.844,0,1.689,0,2.533.238,0,.48.016.721,0l.132-.01-.02.135a5.086,5.086,0,0,0-.011.735c.228.012.457.015.687.015h.1l.008.1c.038.522.019,1.046.028,1.571.236.01.474.014.712.016h.1v.106c0,.524,0,1.047.011,1.571.239,0,.479.016.72,0l.122-.007-.009.124c-.04.524-.005,1.051-.009,1.576q.349.007.7.009h.1v.108c.01.809.005,1.618.016,2.427,1.355.02,2.711.022,4.066.02,1.388,0,2.775.01,4.163-.025-.022-.807.048-1.613.016-2.419l0-.116.112,0c.233.007.466,0,.7-.005.009-.8.01-1.606.011-2.408v-.1l.1-.01a6.742,6.742,0,0,1,.715-.023c.006-.9-.01-1.8.016-2.7v-.005c-.029-1.079-.008-2.16-.021-3.24-.235,0-.47,0-.7,0h-.1l0-.1c0-.238-.008-.478,0-.717-.241-.007-.481,0-.72-.014l-.092-.005-.007-.1c-.017-.248-.009-.5-.012-.749-.511,0-1.022,0-1.532-.005h-.1V5.821c0-.238-.007-.476,0-.715-.784-.043-1.571-.015-2.355-.025h-.1l0-.1c-.011-.245-.015-.49-.015-.738-.51,0-1.02,0-1.53-.01l-.1,0v-.1c-.01-1.088,0-2.176-.008-3.264l-.408,0H5.76V.747A6.989,6.989,0,0,0,5.742,0C5.2,0,4.663,0,4.124,0" fill="#fff"/><g transform="translate(3.889)"><path d="M0,0H1.47V.754H0Z" transform="translate(0.042 0.008)" fill="none"/><g clip-path="url(#g)"><path d="M.006,0C.487,0,.969,0,1.45,0a6.725,6.725,0,0,1,.017.749c-.489,0-.978,0-1.467,0C0,.5,0,.251.006,0" transform="translate(0.042 0.008)" fill="#1c1c1c"/></g></g><path d="M.783.013c.256,0,.513,0,.77-.013q0,4.664,0,9.328-.388.01-.775,0c0-.278,0-.557,0-.836C.521,8.482.264,8.484.007,8.485,0,8.2,0,7.916.007,7.631c.256-.01.513-.007.77-.011C.778,5.084.77,2.549.783.013" transform="translate(2.333 0.778)" fill="#1c1c1c"/><g transform="translate(5.444 0.778)"><path d="M0,0H8.5V15.459H0Z" transform="translate(0.053 0.049)" fill="none"/><g clip-path="url(#h)"><path d="M.007,0C.287,0,.568,0,.848,0c0,1.139,0,2.278.008,3.416.561.015,1.123.007,1.684.009,0,.284,0,.568.016.852.845.014,1.691-.02,2.535.025q0,.416,0,.832c.562.01,1.125,0,1.688.006,0,.285-.014.572.016.856.28.025.56.01.84.018,0,.278,0,.556,0,.834.277,0,.554.007.832,0,.013,1.095-.008,2.19.022,3.284-.027.911-.011,1.823-.017,2.734a6.293,6.293,0,0,0-.835.031c0,.847,0,1.694-.011,2.541-.278.009-.556.018-.834,0-.032-.862-.017-1.724-.009-2.587q.419,0,.84,0,0-3,0-6.007c-.28,0-.559,0-.839,0-.016-.279,0-.559-.02-.837A4.46,4.46,0,0,0,5.938,6c-.006.859.01,1.718-.007,2.577H5.1c-.019-1.146,0-2.291-.007-3.437-.567,0-1.135,0-1.7,0,0,.858.009,1.717,0,2.574q-.422.009-.842,0c-.006-1.145-.007-2.29.007-3.434-.568,0-1.135,0-1.7,0-.006,1.143,0,2.287,0,3.43q-.426.012-.852,0Q0,3.86.007,0" transform="translate(0.053 0.049)" fill="#1c1c1c"/></g></g><path d="M0,.009C.776,0,1.552,0,2.327.006c.005.257.01.513,0,.769C1.815.787,1.3.778.787.782.768,1.294.814,1.806.78,2.317a5.819,5.819,0,0,1-.779,0C0,1.551,0,.78,0,.009" transform="translate(0 7.778)" fill="#1c1c1c"/><path d="M.034.025A4.148,4.148,0,0,1,.783.008c.005.258.006.516,0,.774.257,0,.514,0,.772,0,.006.514,0,1.027,0,1.541q.381,0,.763,0c0,.515.033,1.034-.019,1.547a7.03,7.03,0,0,1-.752,0c-.008-.509-.007-1.018-.011-1.528-.254,0-.509-.006-.763-.016C.77,1.827.795,1.319.749.813.5.814.256.81.011.8A3.347,3.347,0,0,1,.034.025" transform="translate(0.778 10.111)" fill="#1c1c1c"/><path d="M.03.011C.305-.008.583,0,.859,0c.008.512,0,1.025,0,1.537.281,0,.563,0,.845.008.005.512,0,1.025,0,1.538q3.371.007,6.743,0c.009-.513,0-1.026,0-1.539.288,0,.575-.007.863.008.046.769-.037,1.538-.013,2.308-1.425.031-2.851.02-4.276.022-1.392,0-2.784,0-4.176-.018C.843,3.1.849,2.331.837,1.563c-.275,0-.549,0-.824-.009A14.9,14.9,0,0,1,.03.011" transform="translate(3.111 14.778)" fill="#1c1c1c"/></g><path d="M0,0H350V2H0Z" transform="translate(368 723.543)" fill="#2634c6"/></g></g><g transform="translate(45.685 148)"><g transform="translate(1730 850)"><rect width="350" height="35.956" fill="#fff"/><line x2="350" transform="translate(0 35.456)" fill="none" stroke="#979797" stroke-width="1"/><text transform="translate(0 21.98)" fill="#797979" font-size="14" font-family="Helvetica" letter-spacing="0em"><tspan x="0" y="0">Primary Statement Display Method</tspan></text><g transform="translate(328 18.973)"><path d="M0,4.5,4.5,0,9,4.5" transform="translate(9 4.5) rotate(180)" fill="none" stroke="#4a4a4a" stroke-linecap="round" stroke-linejoin="round" stroke-width="2"/></g></g><g transform="translate(1362 162)"><g transform="translate(368 725)"><g transform="matrix(1, 0, 0, 1, -1775.68, -1035)" filter="url(#m)"><rect width="350" height="64" transform="translate(1775.68 1035)" fill="#fff"/></g><rect width="350" height="32" fill="#f4f7fc"/><text transform="translate(15 20)" fill="#1c1c1c" font-size="12" font-family="Helvetica"><tspan x="0" y="0">Billing Account</tspan><tspan x="0" y="32">Operating Account</tspan></text></g><g transform="translate(689 697)"><rect width="24" height="24" fill="#ff8686" opacity="0.301"/></g><g transform="translate(659 745)"><path d="M4.124,0c0,.246,0,.492-.007.738v.1l-.1,0C3.777.853,3.538.856,3.3.858c-.013,2.5-.006,5-.007,7.5v.108h-.1c-.2,0-.4,0-.606.01l-.11,0V8.362c0-.244,0-.488,0-.731C1.647,7.624.823,7.619,0,7.634c0,.844,0,1.689,0,2.533.238,0,.48.016.721,0l.132-.01-.02.135a5.086,5.086,0,0,0-.011.735c.228.012.457.015.687.015h.1l.008.1c.038.522.019,1.046.028,1.571.236.01.474.014.712.016h.1v.106c0,.524,0,1.047.011,1.571.239,0,.479.016.72,0l.122-.007-.009.124c-.04.524-.005,1.051-.009,1.576q.349.007.7.009h.1v.108c.01.809.005,1.618.016,2.427,1.355.02,2.711.022,4.066.02,1.388,0,2.775.01,4.163-.025-.022-.807.048-1.613.016-2.419l0-.116.112,0c.233.007.466,0,.7-.005.009-.8.01-1.606.011-2.408v-.1l.1-.01a6.742,6.742,0,0,1,.715-.023c.006-.9-.01-1.8.016-2.7v-.005c-.029-1.079-.008-2.16-.021-3.24-.235,0-.47,0-.7,0h-.1l0-.1c0-.238-.008-.478,0-.717-.241-.007-.481,0-.72-.014l-.092-.005-.007-.1c-.017-.248-.009-.5-.012-.749-.511,0-1.022,0-1.532-.005h-.1V5.821c0-.238-.007-.476,0-.715-.784-.043-1.571-.015-2.355-.025h-.1l0-.1c-.011-.245-.015-.49-.015-.738-.51,0-1.02,0-1.53-.01l-.1,0v-.1c-.01-1.088,0-2.176-.008-3.264l-.408,0H5.76V.747A6.989,6.989,0,0,0,5.742,0C5.2,0,4.663,0,4.124,0" fill="#fff"/><g transform="translate(3.889)"><path d="M0,0H1.47V.754H0Z" transform="translate(0.042 0.008)" fill="none"/><g clip-path="url(#g)"><path d="M.006,0C.487,0,.969,0,1.45,0a6.725,6.725,0,0,1,.017.749c-.489,0-.978,0-1.467,0C0,.5,0,.251.006,0" transform="translate(0.042 0.008)" fill="#1c1c1c"/></g></g><path d="M.783.013c.256,0,.513,0,.77-.013q0,4.664,0,9.328-.388.01-.775,0c0-.278,0-.557,0-.836C.521,8.482.264,8.484.007,8.485,0,8.2,0,7.916.007,7.631c.256-.01.513-.007.77-.011C.778,5.084.77,2.549.783.013" transform="translate(2.333 0.778)" fill="#1c1c1c"/><g transform="translate(5.444 0.778)"><path d="M0,0H8.5V15.459H0Z" transform="translate(0.053 0.049)" fill="none"/><g clip-path="url(#h)"><path d="M.007,0C.287,0,.568,0,.848,0c0,1.139,0,2.278.008,3.416.561.015,1.123.007,1.684.009,0,.284,0,.568.016.852.845.014,1.691-.02,2.535.025q0,.416,0,.832c.562.01,1.125,0,1.688.006,0,.285-.014.572.016.856.28.025.56.01.84.018,0,.278,0,.556,0,.834.277,0,.554.007.832,0,.013,1.095-.008,2.19.022,3.284-.027.911-.011,1.823-.017,2.734a6.293,6.293,0,0,0-.835.031c0,.847,0,1.694-.011,2.541-.278.009-.556.018-.834,0-.032-.862-.017-1.724-.009-2.587q.419,0,.84,0,0-3,0-6.007c-.28,0-.559,0-.839,0-.016-.279,0-.559-.02-.837A4.46,4.46,0,0,0,5.938,6c-.006.859.01,1.718-.007,2.577H5.1c-.019-1.146,0-2.291-.007-3.437-.567,0-1.135,0-1.7,0,0,.858.009,1.717,0,2.574q-.422.009-.842,0c-.006-1.145-.007-2.29.007-3.434-.568,0-1.135,0-1.7,0-.006,1.143,0,2.287,0,3.43q-.426.012-.852,0Q0,3.86.007,0" transform="translate(0.053 0.049)" fill="#1c1c1c"/></g></g><path d="M0,.009C.776,0,1.552,0,2.327.006c.005.257.01.513,0,.769C1.815.787,1.3.778.787.782.768,1.294.814,1.806.78,2.317a5.819,5.819,0,0,1-.779,0C0,1.551,0,.78,0,.009" transform="translate(0 7.778)" fill="#1c1c1c"/><path d="M.034.025A4.148,4.148,0,0,1,.783.008c.005.258.006.516,0,.774.257,0,.514,0,.772,0,.006.514,0,1.027,0,1.541q.381,0,.763,0c0,.515.033,1.034-.019,1.547a7.03,7.03,0,0,1-.752,0c-.008-.509-.007-1.018-.011-1.528-.254,0-.509-.006-.763-.016C.77,1.827.795,1.319.749.813.5.814.256.81.011.8A3.347,3.347,0,0,1,.034.025" transform="translate(0.778 10.111)" fill="#1c1c1c"/><path d="M.03.011C.305-.008.583,0,.859,0c.008.512,0,1.025,0,1.537.281,0,.563,0,.845.008.005.512,0,1.025,0,1.538q3.371.007,6.743,0c.009-.513,0-1.026,0-1.539.288,0,.575-.007.863.008.046.769-.037,1.538-.013,2.308-1.425.031-2.851.02-4.276.022-1.392,0-2.784,0-4.176-.018C.843,3.1.849,2.331.837,1.563c-.275,0-.549,0-.824-.009A14.9,14.9,0,0,1,.03.011" transform="translate(3.111 14.778)" fill="#1c1c1c"/></g><path d="M0,0H350V2H0Z" transform="translate(368 723.543)" fill="#2634c6"/></g></g><g transform="translate(45.684 435)"><g transform="translate(1730 850)"><rect width="350" height="35.956" fill="#fff"/><line x2="350" transform="translate(0 35.456)" fill="none" stroke="#979797" stroke-width="1"/><text transform="translate(0 21.98)" fill="#797979" font-size="14" font-family="Helvetica" letter-spacing="0em"><tspan x="0" y="0">WBB ID Type</tspan></text><g transform="translate(328 18.973)"><path d="M0,4.5,4.5,0,9,4.5" transform="translate(9 4.5) rotate(180)" fill="none" stroke="#4a4a4a" stroke-linecap="round" stroke-linejoin="round" stroke-width="2"/></g></g><g transform="translate(1362 162)"><g transform="translate(368 725)"><g transform="matrix(1, 0, 0, 1, -1775.68, -1322)" filter="url(#q)"><rect width="350" height="64" transform="translate(1775.68 1322)" fill="#fff"/></g><rect width="350" height="32" fill="#f4f7fc"/><text transform="translate(15 20)" fill="#1c1c1c" font-size="12" font-family="Helvetica"><tspan x="0" y="0">Default</tspan><tspan x="0" y="32">Alternate</tspan></text></g><g transform="translate(689 697)"><rect width="24" height="24" fill="#ff8686" opacity="0.301"/></g><g transform="translate(659 745)"><path d="M4.124,0c0,.246,0,.492-.007.738v.1l-.1,0C3.777.853,3.538.856,3.3.858c-.013,2.5-.006,5-.007,7.5v.108h-.1c-.2,0-.4,0-.606.01l-.11,0V8.362c0-.244,0-.488,0-.731C1.647,7.624.823,7.619,0,7.634c0,.844,0,1.689,0,2.533.238,0,.48.016.721,0l.132-.01-.02.135a5.086,5.086,0,0,0-.011.735c.228.012.457.015.687.015h.1l.008.1c.038.522.019,1.046.028,1.571.236.01.474.014.712.016h.1v.106c0,.524,0,1.047.011,1.571.239,0,.479.016.72,0l.122-.007-.009.124c-.04.524-.005,1.051-.009,1.576q.349.007.7.009h.1v.108c.01.809.005,1.618.016,2.427,1.355.02,2.711.022,4.066.02,1.388,0,2.775.01,4.163-.025-.022-.807.048-1.613.016-2.419l0-.116.112,0c.233.007.466,0,.7-.005.009-.8.01-1.606.011-2.408v-.1l.1-.01a6.742,6.742,0,0,1,.715-.023c.006-.9-.01-1.8.016-2.7v-.005c-.029-1.079-.008-2.16-.021-3.24-.235,0-.47,0-.7,0h-.1l0-.1c0-.238-.008-.478,0-.717-.241-.007-.481,0-.72-.014l-.092-.005-.007-.1c-.017-.248-.009-.5-.012-.749-.511,0-1.022,0-1.532-.005h-.1V5.821c0-.238-.007-.476,0-.715-.784-.043-1.571-.015-2.355-.025h-.1l0-.1c-.011-.245-.015-.49-.015-.738-.51,0-1.02,0-1.53-.01l-.1,0v-.1c-.01-1.088,0-2.176-.008-3.264l-.408,0H5.76V.747A6.989,6.989,0,0,0,5.742,0C5.2,0,4.663,0,4.124,0" fill="#fff"/><g transform="translate(3.889)"><path d="M0,0H1.47V.754H0Z" transform="translate(0.042 0.008)" fill="none"/><g clip-path="url(#g)"><path d="M.006,0C.487,0,.969,0,1.45,0a6.725,6.725,0,0,1,.017.749c-.489,0-.978,0-1.467,0C0,.5,0,.251.006,0" transform="translate(0.042 0.008)" fill="#1c1c1c"/></g></g><path d="M.783.013c.256,0,.513,0,.77-.013q0,4.664,0,9.328-.388.01-.775,0c0-.278,0-.557,0-.836C.521,8.482.264,8.484.007,8.485,0,8.2,0,7.916.007,7.631c.256-.01.513-.007.77-.011C.778,5.084.77,2.549.783.013" transform="translate(2.333 0.778)" fill="#1c1c1c"/><g transform="translate(5.444 0.778)"><path d="M0,0H8.5V15.459H0Z" transform="translate(0.053 0.049)" fill="none"/><g clip-path="url(#h)"><path d="M.007,0C.287,0,.568,0,.848,0c0,1.139,0,2.278.008,3.416.561.015,1.123.007,1.684.009,0,.284,0,.568.016.852.845.014,1.691-.02,2.535.025q0,.416,0,.832c.562.01,1.125,0,1.688.006,0,.285-.014.572.016.856.28.025.56.01.84.018,0,.278,0,.556,0,.834.277,0,.554.007.832,0,.013,1.095-.008,2.19.022,3.284-.027.911-.011,1.823-.017,2.734a6.293,6.293,0,0,0-.835.031c0,.847,0,1.694-.011,2.541-.278.009-.556.018-.834,0-.032-.862-.017-1.724-.009-2.587q.419,0,.84,0,0-3,0-6.007c-.28,0-.559,0-.839,0-.016-.279,0-.559-.02-.837A4.46,4.46,0,0,0,5.938,6c-.006.859.01,1.718-.007,2.577H5.1c-.019-1.146,0-2.291-.007-3.437-.567,0-1.135,0-1.7,0,0,.858.009,1.717,0,2.574q-.422.009-.842,0c-.006-1.145-.007-2.29.007-3.434-.568,0-1.135,0-1.7,0-.006,1.143,0,2.287,0,3.43q-.426.012-.852,0Q0,3.86.007,0" transform="translate(0.053 0.049)" fill="#1c1c1c"/></g></g><path d="M0,.009C.776,0,1.552,0,2.327.006c.005.257.01.513,0,.769C1.815.787,1.3.778.787.782.768,1.294.814,1.806.78,2.317a5.819,5.819,0,0,1-.779,0C0,1.551,0,.78,0,.009" transform="translate(0 7.778)" fill="#1c1c1c"/><path d="M.034.025A4.148,4.148,0,0,1,.783.008c.005.258.006.516,0,.774.257,0,.514,0,.772,0,.006.514,0,1.027,0,1.541q.381,0,.763,0c0,.515.033,1.034-.019,1.547a7.03,7.03,0,0,1-.752,0c-.008-.509-.007-1.018-.011-1.528-.254,0-.509-.006-.763-.016C.77,1.827.795,1.319.749.813.5.814.256.81.011.8A3.347,3.347,0,0,1,.034.025" transform="translate(0.778 10.111)" fill="#1c1c1c"/><path d="M.03.011C.305-.008.583,0,.859,0c.008.512,0,1.025,0,1.537.281,0,.563,0,.845.008.005.512,0,1.025,0,1.538q3.371.007,6.743,0c.009-.513,0-1.026,0-1.539.288,0,.575-.007.863.008.046.769-.037,1.538-.013,2.308-1.425.031-2.851.02-4.276.022-1.392,0-2.784,0-4.176-.018C.843,3.1.849,2.331.837,1.563c-.275,0-.549,0-.824-.009A14.9,14.9,0,0,1,.03.011" transform="translate(3.111 14.778)" fill="#1c1c1c"/></g><path d="M0,0H350V2H0Z" transform="translate(368 723.543)" fill="#2634c6"/></g></g><g transform="translate(0 274)"><g transform="translate(-7482 1639.096)"><g transform="translate(1316 -1728.096)"><g transform="translate(8310 2237.096)"><rect width="350" height="48" fill="#fff"/><text transform="translate(0 36)" fill="#555" font-size="14" font-family="Helvetica"><tspan x="0" y="0">Select Account</tspan></text><rect width="350" height="1" transform="translate(0 47)" fill="#dadada"/><g transform="translate(326 20)"><rect width="24" height="24" fill="#ff8686" opacity="0.301"/><g transform="translate(6 8.3)"><path d="M7.014,12.769,1.024,6.79,2.292,5.52l4.721,4.713L11.754,5.49l1.269,1.269Z" transform="translate(-1.024 -5.49)" fill="#1c1c1c"/></g></g></g><g transform="translate(8310 2234)"><g transform="matrix(1, 0, 0, 1, -2144, -2419)" filter="url(#u)"><path d="M0-40H350V162.09H0Z" transform="translate(2144 2459)" fill="#fff"/></g><rect width="350" height="32" transform="translate(0 40.096)" fill="#d7dde4"/><rect width="350" height="32" transform="translate(0 135.096)" fill="#f4f7fc"/><text transform="translate(15 61.068)" fill="#1c1c1c" font-size="12" font-family="Helvetica"><tspan x="0" y="0">Alberta</tspan><tspan x="0" y="32">British Columbia</tspan><tspan x="0" y="64">Ontario</tspan><tspan x="0" y="96">Manitoba</tspan><tspan x="0" y="128">New Brunswick</tspan></text></g></g><g transform="translate(9453 369)"><g transform="translate(180 139)"><g fill="#fff"><path d="M 321 31.5 L 16 31.5 C 11.85979175567627 31.5 7.967416763305664 29.88770866394043 5.039833545684814 26.96016693115234 C 2.112291574478149 24.03258323669434 0.5 20.14020919799805 0.5 16 C 0.5 11.85979175567627 2.112291574478149 7.967416763305664 5.039833545684814 5.039833545684814 C 7.967416763305664 2.112291574478149 11.85979175567627 0.5 16 0.5 L 321 0.5 C 325.1401977539062 0.5 329.0325927734375 2.112291574478149 331.9601745605469 5.039833545684814 C 334.8876953125 7.967416763305664 336.5 11.85979175567627 336.5 16 C 336.5 20.14020919799805 334.8876953125 24.03258323669434 331.9601745605469 26.96016693115234 C 329.0325927734375 29.88770866394043 325.1401977539062 31.5 321 31.5 Z" stroke="none"/><path d="M 16 1 C 11.99337768554688 1 8.226531982421875 2.560291290283203 5.393402099609375 5.393417358398438 C 2.560302734375 8.226541519165039 1 11.99337577819824 1 16 C 1 20.00662612915039 2.560302734375 23.77345848083496 5.393402099609375 26.60658264160156 C 8.226531982421875 29.4397087097168 11.99337768554688 31 16 31 L 321 31 C 325.0066223144531 31 328.7734680175781 29.4397087097168 331.6065979003906 26.60658264160156 C 334.439697265625 23.77345848083496 336 20.00662612915039 336 16 C 336 11.99337577819824 334.439697265625 8.226541519165039 331.6065979003906 5.393417358398438 C 328.7734680175781 2.560291290283203 325.0066223144531 1 321 1 L 16 1 M 16 0 L 321 0 C 329.8365478515625 0 337 7.163457870483398 337 16 C 337 24.8365421295166 329.8365478515625 32 321 32 L 16 32 C 7.1634521484375 32 0 24.8365421295166 0 16 C 0 7.163457870483398 7.1634521484375 0 16 0 Z" stroke="none" fill="#dadada"/></g></g><text transform="translate(192 159)" fill="#1c1c1c" font-size="12" font-family="Helvetica"><tspan x="0" y="0">|</tspan></text><g transform="translate(491 147)"><circle cx="8" cy="8" r="8" fill="#555"/><path d="M11.584,5.606,9.105,8.085,6.626,5.606,5.605,6.627,8.084,9.105,5.605,11.584,6.626,12.6l2.479-2.479L11.584,12.6l1.021-1.021L10.127,9.105l2.479-2.478Z" transform="translate(-1.105 -1.106)" fill="#fff"/></g></g><g transform="translate(9817.5 654.904)"><path d="M4.124,0c0,.246,0,.492-.007.738v.1l-.1,0C3.777.853,3.538.856,3.3.858c-.013,2.5-.006,5-.007,7.5v.108h-.1c-.2,0-.4,0-.606.01l-.11,0V8.362c0-.244,0-.488,0-.731C1.647,7.624.823,7.619,0,7.634c0,.844,0,1.689,0,2.533.238,0,.48.016.721,0l.132-.01-.02.135a5.086,5.086,0,0,0-.011.735c.228.012.457.015.687.015h.1l.008.1c.038.522.019,1.046.028,1.571.236.01.474.014.712.016h.1v.106c0,.524,0,1.047.011,1.571.239,0,.479.016.72,0l.122-.007-.009.124c-.04.524-.005,1.051-.009,1.576q.349.007.7.009h.1v.108c.01.809.005,1.618.016,2.427,1.355.02,2.711.022,4.066.02,1.388,0,2.775.01,4.163-.025-.022-.807.048-1.613.016-2.419l0-.116.112,0c.233.007.466,0,.7-.005.009-.8.01-1.606.011-2.408v-.1l.1-.01a6.742,6.742,0,0,1,.715-.023c.006-.9-.01-1.8.016-2.7v-.005c-.029-1.079-.008-2.16-.021-3.24-.235,0-.47,0-.7,0h-.1l0-.1c0-.238-.008-.478,0-.717-.241-.007-.481,0-.72-.014l-.092-.005-.007-.1c-.017-.248-.009-.5-.012-.749-.511,0-1.022,0-1.532-.005h-.1V5.821c0-.238-.007-.476,0-.715-.784-.043-1.571-.015-2.355-.025h-.1l0-.1c-.011-.245-.015-.49-.015-.738-.51,0-1.02,0-1.53-.01l-.1,0v-.1c-.01-1.088,0-2.176-.008-3.264l-.408,0H5.76V.747A6.989,6.989,0,0,0,5.742,0C5.2,0,4.663,0,4.124,0" fill="#fff"/><g transform="translate(3.889)"><path d="M0,0H1.47V.754H0Z" transform="translate(0.042 0.008)" fill="none"/><g clip-path="url(#g)"><path d="M.006,0C.487,0,.969,0,1.45,0a6.725,6.725,0,0,1,.017.749c-.489,0-.978,0-1.467,0C0,.5,0,.251.006,0" transform="translate(0.042 0.008)" fill="#1c1c1c"/></g></g><path d="M.783.013c.256,0,.513,0,.77-.013q0,4.664,0,9.328-.388.01-.775,0c0-.278,0-.557,0-.836C.521,8.482.264,8.484.007,8.485,0,8.2,0,7.916.007,7.631c.256-.01.513-.007.77-.011C.778,5.084.77,2.549.783.013" transform="translate(2.333 0.778)" fill="#1c1c1c"/><g transform="translate(5.444 0.778)"><path d="M0,0H8.5V15.459H0Z" transform="translate(0.053 0.049)" fill="none"/><g clip-path="url(#h)"><path d="M.007,0C.287,0,.568,0,.848,0c0,1.139,0,2.278.008,3.416.561.015,1.123.007,1.684.009,0,.284,0,.568.016.852.845.014,1.691-.02,2.535.025q0,.416,0,.832c.562.01,1.125,0,1.688.006,0,.285-.014.572.016.856.28.025.56.01.84.018,0,.278,0,.556,0,.834.277,0,.554.007.832,0,.013,1.095-.008,2.19.022,3.284-.027.911-.011,1.823-.017,2.734a6.293,6.293,0,0,0-.835.031c0,.847,0,1.694-.011,2.541-.278.009-.556.018-.834,0-.032-.862-.017-1.724-.009-2.587q.419,0,.84,0,0-3,0-6.007c-.28,0-.559,0-.839,0-.016-.279,0-.559-.02-.837A4.46,4.46,0,0,0,5.938,6c-.006.859.01,1.718-.007,2.577H5.1c-.019-1.146,0-2.291-.007-3.437-.567,0-1.135,0-1.7,0,0,.858.009,1.717,0,2.574q-.422.009-.842,0c-.006-1.145-.007-2.29.007-3.434-.568,0-1.135,0-1.7,0-.006,1.143,0,2.287,0,3.43q-.426.012-.852,0Q0,3.86.007,0" transform="translate(0.053 0.049)" fill="#1c1c1c"/></g></g><path d="M0,.009C.776,0,1.552,0,2.327.006c.005.257.01.513,0,.769C1.815.787,1.3.778.787.782.768,1.294.814,1.806.78,2.317a5.819,5.819,0,0,1-.779,0C0,1.551,0,.78,0,.009" transform="translate(0 7.778)" fill="#1c1c1c"/><path d="M.034.025A4.148,4.148,0,0,1,.783.008c.005.258.006.516,0,.774.257,0,.514,0,.772,0,.006.514,0,1.027,0,1.541q.381,0,.763,0c0,.515.033,1.034-.019,1.547a7.03,7.03,0,0,1-.752,0c-.008-.509-.007-1.018-.011-1.528-.254,0-.509-.006-.763-.016C.77,1.827.795,1.319.749.813.5.814.256.81.011.8A3.347,3.347,0,0,1,.034.025" transform="translate(0.778 10.111)" fill="#1c1c1c"/><path d="M.03.011C.305-.008.583,0,.859,0c.008.512,0,1.025,0,1.537.281,0,.563,0,.845.008.005.512,0,1.025,0,1.538q3.371.007,6.743,0c.009-.513,0-1.026,0-1.539.288,0,.575-.007.863.008.046.769-.037,1.538-.013,2.308-1.425.031-2.851.02-4.276.022-1.392,0-2.784,0-4.176-.018C.843,3.1.849,2.331.837,1.563c-.275,0-.549,0-.824-.009A14.9,14.9,0,0,1,.03.011" transform="translate(3.111 14.778)" fill="#1c1c1c"/></g></g><g transform="translate(2144 2097)"><rect width="350" height="48" fill="#fff"/><text transform="translate(10 36)" fill="#555" font-size="14" font-family="Helvetica"><tspan x="0" y="0">Province</tspan></text><path d="M0,0H350V2H0Z" transform="translate(0 47)" fill="#2634c6"/><g transform="translate(326 20)"><g transform="translate(6 8.3)"><path d="M7.014,12.769,1.024,6.79,2.292,5.52l4.721,4.713L11.754,5.49l1.269,1.269Z" transform="translate(-1.024 -5.49)" fill="#1c1c1c"/></g></g></g><g transform="translate(-7880 1639.096)"><g transform="translate(1316 -1728.096)"><g transform="translate(8310 2237.096)"><rect width="350" height="48" fill="#fff"/><text transform="translate(0 36)" fill="#555" font-size="14" font-family="Helvetica"><tspan x="0" y="0">Select Account</tspan></text><rect width="350" height="1" transform="translate(0 47)" fill="#dadada"/><g transform="translate(326 20)"><rect width="24" height="24" fill="#ff8686" opacity="0.301"/><g transform="translate(6 8.3)"><path d="M7.014,12.769,1.024,6.79,2.292,5.52l4.721,4.713L11.754,5.49l1.269,1.269Z" transform="translate(-1.024 -5.49)" fill="#1c1c1c"/></g></g></g><g transform="translate(8310 2234)"><g transform="matrix(1, 0, 0, 1, -1746, -2419)" filter="url(#y)"><path d="M0-40H350V64.1H0Z" transform="translate(1746 2459)" fill="#fff"/></g><rect width="350" height="32" transform="translate(0 40.096)" fill="#d7dde4"/><rect width="350" height="32" transform="translate(0 72.096)" fill="#f4f7fc"/><text transform="translate(15 61.068)" fill="#1c1c1c" font-size="12" font-family="Helvetica"><tspan x="0" y="0">Canada</tspan><tspan x="0" y="32">United States of America</tspan></text></g></g><g transform="translate(9453 369)"><g transform="translate(180 139)"><g fill="#fff"><path d="M 321 31.5 L 16 31.5 C 11.85979175567627 31.5 7.967416763305664 29.88770866394043 5.039833545684814 26.96016693115234 C 2.112291574478149 24.03258323669434 0.5 20.14020919799805 0.5 16 C 0.5 11.85979175567627 2.112291574478149 7.967416763305664 5.039833545684814 5.039833545684814 C 7.967416763305664 2.112291574478149 11.85979175567627 0.5 16 0.5 L 321 0.5 C 325.1401977539062 0.5 329.0325927734375 2.112291574478149 331.9601745605469 5.039833545684814 C 334.8876953125 7.967416763305664 336.5 11.85979175567627 336.5 16 C 336.5 20.14020919799805 334.8876953125 24.03258323669434 331.9601745605469 26.96016693115234 C 329.0325927734375 29.88770866394043 325.1401977539062 31.5 321 31.5 Z" stroke="none"/><path d="M 16 1 C 11.99337768554688 1 8.226531982421875 2.560291290283203 5.393402099609375 5.393417358398438 C 2.560302734375 8.226541519165039 1 11.99337577819824 1 16 C 1 20.00662612915039 2.560302734375 23.77345848083496 5.393402099609375 26.60658264160156 C 8.226531982421875 29.4397087097168 11.99337768554688 31 16 31 L 321 31 C 325.0066223144531 31 328.7734680175781 29.4397087097168 331.6065979003906 26.60658264160156 C 334.439697265625 23.77345848083496 336 20.00662612915039 336 16 C 336 11.99337577819824 334.439697265625 8.226541519165039 331.6065979003906 5.393417358398438 C 328.7734680175781 2.560291290283203 325.0066223144531 1 321 1 L 16 1 M 16 0 L 321 0 C 329.8365478515625 0 337 7.163457870483398 337 16 C 337 24.8365421295166 329.8365478515625 32 321 32 L 16 32 C 7.1634521484375 32 0 24.8365421295166 0 16 C 0 7.163457870483398 7.1634521484375 0 16 0 Z" stroke="none" fill="#dadada"/></g></g><text transform="translate(192 159)" fill="#1c1c1c" font-size="12" font-family="Helvetica"><tspan x="0" y="0">|</tspan></text><g transform="translate(491 147)"><circle cx="8" cy="8" r="8" fill="#555"/><path d="M11.584,5.606,9.105,8.085,6.626,5.606,5.605,6.627,8.084,9.105,5.605,11.584,6.626,12.6l2.479-2.479L11.584,12.6l1.021-1.021L10.127,9.105l2.479-2.478Z" transform="translate(-1.105 -1.106)" fill="#fff"/></g></g><g transform="translate(9817.5 591.904)"><path d="M4.124,0c0,.246,0,.492-.007.738v.1l-.1,0C3.777.853,3.538.856,3.3.858c-.013,2.5-.006,5-.007,7.5v.108h-.1c-.2,0-.4,0-.606.01l-.11,0V8.362c0-.244,0-.488,0-.731C1.647,7.624.823,7.619,0,7.634c0,.844,0,1.689,0,2.533.238,0,.48.016.721,0l.132-.01-.02.135a5.086,5.086,0,0,0-.011.735c.228.012.457.015.687.015h.1l.008.1c.038.522.019,1.046.028,1.571.236.01.474.014.712.016h.1v.106c0,.524,0,1.047.011,1.571.239,0,.479.016.72,0l.122-.007-.009.124c-.04.524-.005,1.051-.009,1.576q.349.007.7.009h.1v.108c.01.809.005,1.618.016,2.427,1.355.02,2.711.022,4.066.02,1.388,0,2.775.01,4.163-.025-.022-.807.048-1.613.016-2.419l0-.116.112,0c.233.007.466,0,.7-.005.009-.8.01-1.606.011-2.408v-.1l.1-.01a6.742,6.742,0,0,1,.715-.023c.006-.9-.01-1.8.016-2.7v-.005c-.029-1.079-.008-2.16-.021-3.24-.235,0-.47,0-.7,0h-.1l0-.1c0-.238-.008-.478,0-.717-.241-.007-.481,0-.72-.014l-.092-.005-.007-.1c-.017-.248-.009-.5-.012-.749-.511,0-1.022,0-1.532-.005h-.1V5.821c0-.238-.007-.476,0-.715-.784-.043-1.571-.015-2.355-.025h-.1l0-.1c-.011-.245-.015-.49-.015-.738-.51,0-1.02,0-1.53-.01l-.1,0v-.1c-.01-1.088,0-2.176-.008-3.264l-.408,0H5.76V.747A6.989,6.989,0,0,0,5.742,0C5.2,0,4.663,0,4.124,0" fill="#fff"/><g transform="translate(3.889)"><path d="M0,0H1.47V.754H0Z" transform="translate(0.042 0.008)" fill="none"/><g clip-path="url(#g)"><path d="M.006,0C.487,0,.969,0,1.45,0a6.725,6.725,0,0,1,.017.749c-.489,0-.978,0-1.467,0C0,.5,0,.251.006,0" transform="translate(0.042 0.008)" fill="#1c1c1c"/></g></g><path d="M.783.013c.256,0,.513,0,.77-.013q0,4.664,0,9.328-.388.01-.775,0c0-.278,0-.557,0-.836C.521,8.482.264,8.484.007,8.485,0,8.2,0,7.916.007,7.631c.256-.01.513-.007.77-.011C.778,5.084.77,2.549.783.013" transform="translate(2.333 0.778)" fill="#1c1c1c"/><g transform="translate(5.444 0.778)"><path d="M0,0H8.5V15.459H0Z" transform="translate(0.053 0.049)" fill="none"/><g clip-path="url(#h)"><path d="M.007,0C.287,0,.568,0,.848,0c0,1.139,0,2.278.008,3.416.561.015,1.123.007,1.684.009,0,.284,0,.568.016.852.845.014,1.691-.02,2.535.025q0,.416,0,.832c.562.01,1.125,0,1.688.006,0,.285-.014.572.016.856.28.025.56.01.84.018,0,.278,0,.556,0,.834.277,0,.554.007.832,0,.013,1.095-.008,2.19.022,3.284-.027.911-.011,1.823-.017,2.734a6.293,6.293,0,0,0-.835.031c0,.847,0,1.694-.011,2.541-.278.009-.556.018-.834,0-.032-.862-.017-1.724-.009-2.587q.419,0,.84,0,0-3,0-6.007c-.28,0-.559,0-.839,0-.016-.279,0-.559-.02-.837A4.46,4.46,0,0,0,5.938,6c-.006.859.01,1.718-.007,2.577H5.1c-.019-1.146,0-2.291-.007-3.437-.567,0-1.135,0-1.7,0,0,.858.009,1.717,0,2.574q-.422.009-.842,0c-.006-1.145-.007-2.29.007-3.434-.568,0-1.135,0-1.7,0-.006,1.143,0,2.287,0,3.43q-.426.012-.852,0Q0,3.86.007,0" transform="translate(0.053 0.049)" fill="#1c1c1c"/></g></g><path d="M0,.009C.776,0,1.552,0,2.327.006c.005.257.01.513,0,.769C1.815.787,1.3.778.787.782.768,1.294.814,1.806.78,2.317a5.819,5.819,0,0,1-.779,0C0,1.551,0,.78,0,.009" transform="translate(0 7.778)" fill="#1c1c1c"/><path d="M.034.025A4.148,4.148,0,0,1,.783.008c.005.258.006.516,0,.774.257,0,.514,0,.772,0,.006.514,0,1.027,0,1.541q.381,0,.763,0c0,.515.033,1.034-.019,1.547a7.03,7.03,0,0,1-.752,0c-.008-.509-.007-1.018-.011-1.528-.254,0-.509-.006-.763-.016C.77,1.827.795,1.319.749.813.5.814.256.81.011.8A3.347,3.347,0,0,1,.034.025" transform="translate(0.778 10.111)" fill="#1c1c1c"/><path d="M.03.011C.305-.008.583,0,.859,0c.008.512,0,1.025,0,1.537.281,0,.563,0,.845.008.005.512,0,1.025,0,1.538q3.371.007,6.743,0c.009-.513,0-1.026,0-1.539.288,0,.575-.007.863.008.046.769-.037,1.538-.013,2.308-1.425.031-2.851.02-4.276.022-1.392,0-2.784,0-4.176-.018C.843,3.1.849,2.331.837,1.563c-.275,0-.549,0-.824-.009A14.9,14.9,0,0,1,.03.011" transform="translate(3.111 14.778)" fill="#1c1c1c"/></g></g><g transform="translate(1746 2097)"><rect width="350" height="48" fill="#fff"/><text transform="translate(10 36)" fill="#1c1c1c" font-size="14" font-family="Helvetica"><tspan x="0" y="0">Canada</tspan></text><path d="M0,0H350V2H0Z" transform="translate(0 47)" fill="#2634c6"/><g transform="translate(326 20)"><g transform="translate(6 8.3)"><path d="M7.014,12.769,1.024,6.79,2.292,5.52l4.721,4.713L11.754,5.49l1.269,1.269Z" transform="translate(-1.024 -5.49)" fill="#1c1c1c"/></g></g></g></g><g transform="translate(333 400)"><circle cx="15" cy="15" r="15" fill="#ff6127"/><text transform="translate(11 21)" fill="#fff" font-size="18" font-family="Helvetica"><tspan x="0" y="0">1</tspan></text></g><g transform="translate(1096 400)"><circle cx="15" cy="15" r="15" fill="#ff6127"/><text transform="translate(11 21)" fill="#fff" font-size="18" font-family="Helvetica"><tspan x="0" y="0">2</tspan></text></g><g transform="translate(330 472)"><circle cx="15" cy="15" r="15" fill="#ff6127"/><text transform="translate(11 21)" fill="#fff" font-size="18" font-family="Helvetica"><tspan x="0" y="0">3</tspan></text></g><g transform="translate(1096 472)"><circle cx="15" cy="15" r="15" fill="#ff6127"/><text transform="translate(11 21)" fill="#fff" font-size="18" font-family="Helvetica"><tspan x="0" y="0">4</tspan></text></g><g transform="translate(47 590)"><circle cx="15" cy="15" r="15" fill="#ff6127"/><text transform="translate(11 21)" fill="#fff" font-size="18" font-family="Helvetica"><tspan x="0" y="0">5</tspan></text></g><g transform="translate(47 1041)"><circle cx="15" cy="15" r="15" fill="#ff6127"/><text transform="translate(11 21)" fill="#fff" font-size="18" font-family="Helvetica"><tspan x="0" y="0">6</tspan></text></g><g transform="translate(47 1650)"><circle cx="15" cy="15" r="15" fill="#ff6127"/><text transform="translate(11 21)" fill="#fff" font-size="18" font-family="Helvetica"><tspan x="0" y="0">7</tspan></text></g><path d="M-14750.264-16540.443v236.477h773.82v-236.477Z" transform="translate(15093 17855)" fill="none" stroke="#008a00" stroke-width="2" stroke-dasharray="5 10"/><path d="M-14750.264-16540.443v37.295h773.82v-37.295Z" transform="translate(15093 18461.947)" fill="none" stroke="#2634c6" stroke-width="2" stroke-dasharray="5 10"/><path d="M-14750.264-16540.443v58.186h380.557v-58.186Z" transform="translate(15482.264 17332.943)" fill="none" stroke="#008a00" stroke-width="2" stroke-dasharray="5 10"/><path d="M-14750.264-16540.443v58.186h380.557v-58.186Z" transform="translate(15095.354 17400.943)" fill="none" stroke="#008a00" stroke-width="2" stroke-dasharray="5 10"/><g transform="translate(0 30)"><path d="M0,0H12457V59H0Z" transform="translate(0 71)" fill="#171e52"/><text transform="translate(92 107)" fill="#fff" font-size="21" font-family="LaoMN, Lao MN"><tspan x="0" y="0">Front-End Employee UI - Setup Company Billing: Statement Preferences</tspan></text><text transform="translate(77 18)" font-size="20" font-family="LaoMN, Lao MN"><tspan x="0" y="0">Web Business Banking Modernization - DBank Employee UI</tspan><tspan font-size="16"><tspan x="0" y="22">Detailed Design</tspan></tspan></text><g transform="translate(12 2)"><path d="M0,43H49V0H0Z" fill="#34b234"/><g fill="#171e52" stroke="#707070" stroke-width="1"><rect width="49" height="43" stroke="none"/><rect x="0.5" y="0.5" width="48" height="42" fill="none"/></g><text transform="translate(24 26)" fill="#fff" font-size="10" font-family="LaoMN, Lao MN"><tspan x="-17.458" y="0">DBANK</tspan></text></g></g></g></svg>