<svg xmlns="http://www.w3.org/2000/svg" xmlns:xlink="http://www.w3.org/1999/xlink" width="2776" height="1849" viewBox="0 0 2776 1849"><defs><style>.a,.x{fill:#d8d8d8;}.ac,.ae,.ai,.aj,.am,.b,.j,.l,.r,.u{fill:none;}.c{clip-path:url(#c);}.d,.k{fill:#fafafa;}.ak,.e,.g{font-size:12px;}.ab,.ad,.af,.ag,.ah,.ak,.ao,.aq,.ar,.e,.g,.i,.m,.n,.o,.s,.t,.w{font-family:Helvetica;}.f{fill:#e6e6e6;}.ad,.af,.ag,.g,.i,.m,.o,.w{fill:#1c1c1c;}.h{fill:#ebebeb;stroke:#ccc;}.ac,.ai,.h,.j,.k,.l,.x{stroke-miterlimit:10;}.i{font-size:11px;}.j{stroke:#b3b3b3;}.ac,.ae,.k,.l,.r{stroke:#979797;}.ai,.l{stroke-linecap:square;}.ao,.ar,.aw,.m{font-size:16px;}.af,.ag,.m{letter-spacing:0em;}.ak,.n,.t{fill:#444;}.ab,.ad,.af,.ag,.n,.o,.t{font-size:14px;}.af,.n{text-decoration:underline;}.o{letter-spacing:0em;}.p{fill:#8b8b8b;}.aq,.au,.az,.q,.z{fill:#fff;}.aj,.ay,.q{stroke:#707070;}.r{stroke-width:0.5px;}.ah,.au,.s{font-size:21px;}.u{stroke:red;stroke-dasharray:10 10;}.v{clip-path:url(#a);}.w{font-size:24px;}.x{stroke:#797979;}.aa,.y{fill:#787878;}.aa{stroke:#787878;fill-rule:evenodd;}.ah{letter-spacing:-0.027em;}.ai{stroke:#dadada;}.al{fill:#cecece;}.am{stroke:#ff2727;stroke-dasharray:10;}.an{fill:#f3f3f3;}.ap,.ar{fill:#ff6127;}.aq{font-size:18px;}.as{fill:#000;}.at,.ay{fill:#171e52;}.au,.av,.az{font-family:LaoMN, Lao MN;}.av{font-size:20px;}.ax{fill:#34b234;}.az{font-size:10px;}.ba{stroke:none;}</style><clipPath id="a"><rect class="a" width="318" height="250" transform="translate(1 44)"/></clipPath><clipPath id="c"><rect width="2776" height="1849"/></clipPath></defs><g id="b" class="c"><rect class="z" width="2776" height="1849"/><g transform="translate(0 20)"><rect class="d" width="320" height="1566" transform="translate(1401 239)"/><g transform="translate(1401 487)"><rect class="d" width="160" height="30" transform="translate(160)"/><text class="e" transform="translate(240.5 18)"><tspan x="-21.683" y="0">Manage</tspan></text><rect class="f" width="160" height="30"/><text class="g" transform="translate(80.5 18)"><tspan x="-19.002" y="0">Activity</tspan></text></g><g transform="translate(1401 196)"><g class="h"><rect class="ba" width="320" height="44"/><rect class="b" x="0.5" y="0.5" width="319" height="43"/></g><text class="i" transform="translate(161 25.5)"><tspan x="-37.305" y="0">[top navigation]</tspan></text><g class="j"><rect class="ba" width="320" height="1609"/><rect class="b" x="0.5" y="0.5" width="319" height="1608"/></g></g><g transform="translate(0 614)"><g class="k" transform="translate(1410 518)"><rect class="ba" width="300" height="327"/><rect class="b" x="0.5" y="0.5" width="299" height="326"/></g><path class="l" d="M0,.5H297.828" transform="translate(1411 560.5)"/><text class="m" transform="translate(1423 546)"><tspan x="0" y="0">My Recipients</tspan></text><text class="n" transform="translate(1698.001 545)"><tspan x="-97.275" y="0">Manage all (24)</tspan></text><text class="o" transform="translate(1474 575)"><tspan x="0" y="11">AT&amp;T</tspan><tspan class="p"><tspan x="0" y="29">Last payment Sept 22, 2020</tspan></tspan></text><text class="o" transform="translate(1474 631)"><tspan x="0" y="11">Coca Cola</tspan><tspan class="p"><tspan x="0" y="29">Last payment Jul 3, 2020</tspan></tspan></text><text class="o" transform="translate(1474 687)"><tspan x="0" y="11">Dairy Queen</tspan><tspan class="p"><tspan x="0" y="29">Last payment Nov 11, 2020</tspan></tspan></text><text class="o" transform="translate(1474 743)"><tspan x="0" y="11">Kilpsch</tspan><tspan class="p"><tspan x="0" y="29">-</tspan></tspan></text><text class="o" transform="translate(1474 799)"><tspan x="0" y="11">Yammer</tspan><tspan class="p"><tspan x="0" y="29">Last payment Sept 22, 2020</tspan></tspan></text><g transform="translate(1426 575)"><g class="q"><circle class="ba" cx="16" cy="16" r="16"/><circle class="b" cx="16" cy="16" r="15.5"/></g></g><g transform="translate(1426 631)"><g class="q"><circle class="ba" cx="16" cy="16" r="16"/><circle class="b" cx="16" cy="16" r="15.5"/></g></g><g transform="translate(1426 687)"><g class="q"><circle class="ba" cx="16" cy="16" r="16"/><circle class="b" cx="16" cy="16" r="15.5"/></g></g><g transform="translate(1426 743)"><g class="q"><circle class="ba" cx="16" cy="16" r="16"/><circle class="b" cx="16" cy="16" r="15.5"/></g></g><g transform="translate(1426 799)"><g class="q"><circle class="ba" cx="16" cy="16" r="16"/><circle class="b" cx="16" cy="16" r="15.5"/></g></g><line class="r" x2="272" transform="translate(1426 619)"/><line class="r" x2="272" transform="translate(1426 675)"/><line class="r" x2="272" transform="translate(1426 731)"/><line class="r" x2="272" transform="translate(1426 787)"/></g><g transform="translate(0 64)"><g class="k" transform="translate(1410 518)"><rect class="ba" width="300" height="510"/><rect class="b" x="0.5" y="0.5" width="299" height="509"/></g><path class="l" d="M0,.5H297.828" transform="translate(1411 560.5)"/><path class="l" d="M0,.5H297.828" transform="translate(1411 881.5)"/><text class="m" transform="translate(1423 546)"><tspan x="0" y="0">Interac e-Transfer</tspan></text><g transform="translate(0 9)"><text class="m" transform="translate(1423 598)"><tspan x="0" y="0">Maximum Daily Limit:</tspan></text><text class="m" transform="translate(1423 638)"><tspan x="0" y="0">Remaining</tspan></text><text class="m" transform="translate(1423 726)"><tspan x="0" y="0">Utilized</tspan></text><text class="m" transform="translate(1423 814)"><tspan x="0" y="0">Company Limit</tspan></text><text class="s" transform="translate(1423 669)"><tspan x="0" y="0">$200,000.00 CAD</tspan></text><text class="s" transform="translate(1423 757)"><tspan x="0" y="0">$50,000.00 CAD</tspan></text><text class="s" transform="translate(1423 845)"><tspan x="0" y="0">$25,000.00 CAD</tspan></text></g><g transform="translate(0 321)"><text class="m" transform="translate(1423 598)"><tspan x="0" y="0">Maximum Limit Per Transaction:</tspan></text><text class="m" transform="translate(1423 638)"><tspan x="0" y="0">Total</tspan></text><text class="s" transform="translate(1423 669)"><tspan x="0" y="0">$25,000.00 CAD</tspan></text></g></g><g transform="translate(0 502)"><g class="k" transform="translate(1410 1003)"><rect class="ba" width="300" height="286"/><rect class="b" x="0.5" y="0.5" width="299" height="285"/></g><path class="l" d="M0,.5H297.828" transform="translate(1411 1066.5)"/><text class="m" transform="translate(1423 1031)"><tspan x="0" y="0">Manage Notifications </tspan><tspan x="0" y="19">and Alerts</tspan></text><text class="n" transform="translate(1685.423 1030)"><tspan x="-12.062" y="0">Edit</tspan></text><text class="o" transform="translate(1423 1087)"><tspan x="0" y="11">Notify me when a </tspan><tspan x="0" y="29">payment is authorized</tspan></text><text class="o" transform="translate(1423 1143)"><tspan x="0" y="11">Notify me when a payment </tspan><tspan x="0" y="29">is declined</tspan></text><text class="o" transform="translate(1423 1199)"><tspan x="0" y="11">Notify me when a limit is </tspan><tspan x="0" y="29">reached</tspan></text><text class="o" transform="translate(1423 1267)"><tspan x="0" y="0">Send me alerts via</tspan></text><text class="t" transform="translate(1685.423 1101)"><tspan x="-11.419" y="0">Yes</tspan></text><text class="t" transform="translate(1685.423 1157)"><tspan x="-11.419" y="0">Yes</tspan></text><text class="t" transform="translate(1685.423 1213)"><tspan x="-11.419" y="0">Yes</tspan></text><text class="t" transform="translate(1697.423 1269)"><tspan x="-91.574" y="0">Email and Text</tspan></text></g><g class="u" transform="translate(1405 1499)"><rect class="ba" width="311" height="298"/><rect class="b" x="0.5" y="0.5" width="310" height="297"/></g><g class="v" transform="translate(1401 195)"><g transform="translate(0 44)"><rect class="a" width="320" height="249"/><text class="e" transform="translate(65 75)"><tspan x="0" y="9">Send a Payment to</tspan></text><g transform="translate(6 47)"><text class="e" transform="translate(47 152)"><tspan x="-14.892" y="0">AT&amp;T</tspan></text><circle class="d" cx="30" cy="30" r="30" transform="translate(17 74)"/></g><g transform="translate(-2 47)"><text class="e" transform="translate(147 152)"><tspan x="-28.014" y="0">Coca Cola</tspan></text><circle class="d" cx="30" cy="30" r="30" transform="translate(117 74)"/></g><g transform="translate(-10 47)"><text class="e" transform="translate(217 142)"><tspan x="15.999" y="9">Dairy </tspan><tspan x="11.985" y="25">Queen</tspan></text><circle class="d" cx="30" cy="30" r="30" transform="translate(217 74)"/></g><g transform="translate(82 47)"><text class="e" transform="translate(247 152)"><tspan x="-19.342" y="0">Klipsch</tspan></text><circle class="d" cx="30" cy="30" r="30" transform="translate(217 74)"/></g><text class="w" transform="translate(23 46)"><tspan x="0" y="0">Payments</tspan></text><g transform="translate(280 15)"><g class="x"><circle class="ba" cx="12" cy="12" r="12"/><circle class="b" cx="12" cy="12" r="11.5"/></g><path class="y" d="M3.5-4.3H5.72v-.64C5.8-6.06,6.78-6.88,7.7-7.78A4.476,4.476,0,0,0,9.46-11c0-1.96-1.34-3.48-4.2-3.48A4.312,4.312,0,0,0,.6-10.24H2.9A2.238,2.238,0,0,1,5.14-12.5a1.558,1.558,0,0,1,1.78,1.68c0,.86-.66,1.52-1.4,2.26-.96.94-2.02,1.92-2.02,3.5ZM3.24,0H5.96V-2.66H3.24Z" transform="translate(7 19)"/></g><rect class="z" width="32" height="32" transform="translate(23 65)"/></g></g><g transform="translate(1423 543)"><g transform="translate(238)"><g class="x"><circle class="ba" cx="12" cy="12" r="12"/><circle class="b" cx="12" cy="12" r="11.5"/></g><path class="aa" d="M7.792,4.125H11V.917h-.458V3.3a5.5,5.5,0,1,0,.44,2.658h-.46A5.04,5.04,0,1,1,10.2,3.667H7.792Z" transform="translate(6.5 7)"/></g><text class="ab" transform="translate(230 17)"><tspan x="-111.289" y="0">at 10:42 AM EST*</tspan></text><text class="ab" transform="translate(114 17)"><tspan x="-109.484" y="0">As of Thu, Jan 30</tspan></text></g></g><g transform="translate(-1328 -68)"><rect class="d" width="1280" height="1337" transform="translate(1415 369)"/><g transform="translate(1415 284)"><rect class="h" width="128" height="1422"/><text class="i" transform="translate(64 715)"><tspan x="-21.092" y="0">[taskbar]</tspan></text><g transform="translate(0 1322)"><rect class="h" width="1280" height="100"/><text class="i" transform="translate(640.5 59)"><tspan x="-17.12" y="0">[footer]</tspan></text></g><rect class="h" width="1280" height="72"/><text class="i" transform="translate(640.5 40)"><tspan x="-37.305" y="0">[top navigation]</tspan></text><rect class="j" width="1280" height="1422"/></g><g transform="translate(1414 798)"><g class="ac" transform="translate(160 205)"><rect class="ba" width="537" height="376"/><rect class="b" x="0.5" y="0.5" width="536" height="375"/></g><g transform="translate(-134.5 303.5)"><text class="ad" transform="translate(807.5 -9.5)"><tspan x="-175.123" y="0">Last payment Sept 22, 2020</tspan></text><text class="m" transform="translate(366.5 -9.5)"><tspan x="0" y="0">AT&amp;T</tspan></text><g class="q" transform="translate(318.5 -34.5)"><circle class="ba" cx="20" cy="20" r="20"/><circle class="b" cx="20" cy="20" r="19.5"/></g></g><text class="m" transform="translate(184 234)"><tspan x="0" y="0">My Recipients</tspan></text><line class="ae" x2="537" transform="translate(160 253)"/><text class="af" transform="translate(673 234)"><tspan x="-97.283" y="0">Manage all (24)</tspan></text><g transform="translate(-134.5 367.5)"><text class="ad" transform="translate(807.5 -9.5)"><tspan x="-156.434" y="0">Last payment Jul 3, 2020</tspan></text><text class="m" transform="translate(366.5 -9.5)"><tspan x="0" y="0">Coca Cola</tspan></text><g class="q" transform="translate(318.5 -34.5)"><circle class="ba" cx="20" cy="20" r="20"/><circle class="b" cx="20" cy="20" r="19.5"/></g></g><g transform="translate(-134.5 431.5)"><text class="ad" transform="translate(807.5 -9.5)"><tspan x="-170.188" y="0">Last payment Nov 11, 2020</tspan></text><text class="m" transform="translate(366.5 -9.5)"><tspan x="0" y="0">Dairy Queen</tspan></text><g class="q" transform="translate(318.5 -34.5)"><circle class="ba" cx="20" cy="20" r="20"/><circle class="b" cx="20" cy="20" r="19.5"/></g></g><g transform="translate(-134.5 495.5)"><text class="ad" transform="translate(807.5 -9.5)"><tspan x="-118.282" y="0">No recent payment</tspan></text><text class="m" transform="translate(366.5 -9.5)"><tspan x="0" y="0">Klipsch</tspan></text><g class="q" transform="translate(318.5 -34.5)"><circle class="ba" cx="20" cy="20" r="20"/><circle class="b" cx="20" cy="20" r="19.5"/></g></g><g transform="translate(-134.5 559.5)"><text class="ad" transform="translate(807.5 -9.5)"><tspan x="-175.123" y="0">Last payment Sept 22, 2020</tspan></text><text class="m" transform="translate(366.5 -9.5)"><tspan x="0" y="0">Yammer</tspan></text><g class="q" transform="translate(318.5 -34.5)"><circle class="ba" cx="20" cy="20" r="20"/><circle class="b" cx="20" cy="20" r="19.5"/></g></g><line class="r" x2="489" transform="translate(184 321)"/><line class="r" x2="489" transform="translate(184 385)"/><line class="r" x2="489" transform="translate(184 449)"/><line class="r" x2="489" transform="translate(184 513)"/></g><g transform="translate(1968 798)"><g class="ac" transform="translate(160 205)"><rect class="ba" width="537" height="224"/><rect class="b" x="0.5" y="0.5" width="536" height="223"/></g><g transform="translate(-134.5 298.5)"><text class="ad" transform="translate(807.5 -9.5)"><tspan x="-22.839" y="0">Yes</tspan></text><text class="ag" transform="translate(318.5 -9.5)"><tspan x="0" y="0">Notify me when a payment is authorized</tspan></text></g><text class="m" transform="translate(184 234)"><tspan x="0" y="0">Manage Notifications and Alerts</tspan></text><line class="ae" x2="537" transform="translate(160 253)"/><text class="af" transform="translate(673 234)"><tspan x="-24.126" y="0">Edit</tspan></text><g transform="translate(-134.5 374.5)"><text class="ad" transform="translate(807.5 -9.5)"><tspan x="-22.839" y="0">Yes</tspan></text><text class="ag" transform="translate(318.5 -9.5)"><tspan x="0" y="0">Notify me when a limit is reached</tspan></text></g><g transform="translate(-134.5 412.5)"><text class="ad" transform="translate(807.5 -9.5)"><tspan x="-91.574" y="0">Email and Text</tspan></text><text class="ag" transform="translate(318.5 -9.5)"><tspan x="0" y="0">Send me alerts via</tspan></text></g><g transform="translate(-134.5 336.5)"><text class="ad" transform="translate(807.5 -9.5)"><tspan x="-22.839" y="0">Yes</tspan></text><text class="ag" transform="translate(318.5 -9.5)"><tspan x="0" y="0">Notify me when a payment is declined</tspan></text></g></g><g transform="translate(1323 111)"><g class="ac" transform="translate(252 658)"><rect class="ba" width="1090" height="217"/><rect class="b" x="0.5" y="0.5" width="1089" height="216"/></g><text class="m" transform="translate(276 687)"><tspan x="0" y="0">Interac e-Transfer</tspan></text><line class="ae" x2="1090" transform="translate(252 706)"/><g transform="translate(385 204.804)"><text class="ah" transform="translate(692 622)"><tspan x="0" y="0">$25,000.00 CAD</tspan></text><text class="ab" transform="translate(692 556)"><tspan x="0" y="0">Maximum Limit Per Transaction:</tspan></text><text class="ab" transform="translate(692 595)"><tspan x="0" y="0">Total</tspan></text></g><g transform="translate(276 752)"><text class="ah" transform="translate(496 74.804)"><tspan x="0" y="0">$250,000.00 CAD</tspan></text><text class="ab" transform="translate(0 8.804)"><tspan x="0" y="0">Maximum Daily Limit:</tspan></text><text class="ab" transform="translate(496 47.804)"><tspan x="0" y="0">Company Limit</tspan></text><text class="ah" transform="translate(255 74.804)"><tspan x="0" y="0">$50,000.00 CAD</tspan></text><text class="ah" transform="translate(0 74.804)"><tspan x="0" y="0">$200,000.00 CAD</tspan></text><text class="ab" transform="translate(255 47.804)"><tspan x="0" y="0">Utilized</tspan></text><text class="ab" transform="translate(0 47.804)"><tspan x="0" y="0">Remaining</tspan></text></g><path class="ai" d="M0,0H114.131" transform="translate(1015.313 734.804) rotate(90)"/></g><g transform="translate(1411 284)"><rect class="a" width="1153" height="350" transform="translate(131 71)"/><text class="w" transform="translate(166 134)"><tspan x="0" y="0">Payments</tspan></text><g transform="translate(1212 88)"><g class="aj"><circle class="ba" cx="7" cy="7" r="7"/><circle class="b" cx="7" cy="7" r="6.5"/></g><text class="ak" transform="translate(7 11)"><tspan x="-3.337" y="0">?</tspan></text></g><text class="ak" transform="translate(1230 99)"><tspan x="0" y="0">Help</tspan></text><g transform="translate(166 170)"><rect class="al" width="1093" height="158"/><g transform="translate(-53.25 -180.5)"><text class="m" transform="translate(177.5 292)"><tspan x="-27.58" y="0">Send a </tspan><tspan x="-39.581" y="19">payment to</tspan></text><rect class="z" width="60" height="60" transform="translate(147 205)"/></g><g transform="translate(-137.25 -182.5)"><circle class="d" cx="30" cy="30" r="30" transform="translate(438 207)"/><text class="ag" transform="translate(428 279)"><tspan x="22.626" y="11">AT&amp;T</tspan></text></g><g transform="translate(-135.25 -182.5)"><circle class="d" cx="30" cy="30" r="30" transform="translate(556 207)"/><text class="ag" transform="translate(546 279)"><tspan x="7.315" y="11">Coca Cola</tspan></text></g><g transform="translate(-145.25 -182.5)"><circle class="d" cx="30" cy="30" r="30" transform="translate(676 207)"/><text class="ag" transform="translate(706 291)"><tspan x="-18.281" y="0">Dairy </tspan><tspan x="-21.018" y="19">Queen</tspan></text></g><g transform="translate(-35.25 -182.5)"><circle class="d" cx="30" cy="30" r="30" transform="translate(676 207)"/><text class="ag" transform="translate(666 279)"><tspan x="17.433" y="11">Klipsch</tspan></text></g><g transform="translate(84.75 -182.5)"><circle class="d" cx="30" cy="30" r="30" transform="translate(676 207)"/><text class="ag" transform="translate(666 279)"><tspan x="14.067" y="11">Yammer</tspan></text></g><g transform="translate(69.75 -182.5)"><circle class="d" cx="30" cy="30" r="30" transform="translate(811 207)"/><text class="ag" transform="translate(801 279)"><tspan x="1.606" y="11">View all (24)</tspan></text></g><g transform="translate(-605.25 -182.5)"><circle class="d" cx="30" cy="30" r="30" transform="translate(1604 207)"/><text class="ag" transform="translate(1594 279)"><tspan x="25.996" y="11">New</tspan><tspan x="10.815" y="30">Recipient</tspan></text></g><g class="am" transform="translate(272 16)"><rect class="ba" width="579" height="127"/><rect class="b" x="0.5" y="0.5" width="578" height="126"/></g></g></g><g transform="translate(1576.5 658)"><path class="d" d="M0,0H248V48H0Z" transform="translate(248)"/><text class="ab" transform="translate(372 29)"><tspan x="-25.296" y="0">Manage</tspan></text><path class="f" d="M0,0H248V48H0Z"/><text class="ad" transform="translate(124 29)"><tspan x="-22.169" y="0">Activity</tspan></text></g><g class="u" transform="translate(2119 994)"><rect class="ba" width="554" height="241"/><rect class="b" x="0.5" y="0.5" width="553" height="240"/></g><g transform="translate(1592 734)"><g transform="translate(232)"><g class="x"><circle class="ba" cx="9" cy="9" r="9"/><circle class="b" cx="9" cy="9" r="8.5"/></g><path class="aa" d="M6.375,3.375H9V.75H8.625V2.7a4.5,4.5,0,1,0,.36,2.175H8.608A4.124,4.124,0,1,1,8.343,3H6.375Z" transform="translate(4.5 4.5)"/></g><text class="e" transform="translate(224 14)"><tspan x="-233.924" y="0">Current: As of Thu, Jan 30 at 10:42 AM EST</tspan></text></g></g><g transform="translate(70)"><rect class="an" width="1024" height="1849" transform="translate(1682)"/><text class="ao" transform="translate(1750 213)"><tspan x="0" y="12">When a user clicks on the manage tab from the Payments Landing page they are presented with a read-only information </tspan><tspan x="0" y="38">regarding their limits, a list of the first 5 active recipients on their recipient list by alphabetical order, and options to manage </tspan><tspan x="0" y="64">their notifications and alerts. </tspan></text><g transform="translate(0 181)"><g transform="translate(723 -70)"><circle class="ap" cx="15" cy="15" r="15" transform="translate(1027 363)"/><text class="aq" transform="translate(1038 384)"><tspan x="0" y="0">2</tspan></text></g><text class="ao" transform="translate(1804 293)"><tspan x="0" y="12">The first card of the manage tab users can see read-only information regarding their maximum daily limit and </tspan><tspan x="0" y="38">maximum limit per transaction. The company limit is set by the DBank employee and can only be managed on EBC </tspan><tspan x="0" y="64">on this release. The user is also able to monitor their daily limit used and daily limit remaining on this card to ensure </tspan><tspan x="0" y="90">they do not exceed their OU limit.</tspan><tspan x="0" y="116"></tspan><tspan x="0" y="142">The information populated on this table is adjusted in real time as users send payments each day.</tspan></text></g><g transform="translate(0 -24)"><g transform="translate(723 1)"><circle class="ap" cx="15" cy="15" r="15" transform="translate(1027 363)"/><text class="aq" transform="translate(1038 384)"><tspan x="0" y="0">1</tspan></text></g><text class="ao" transform="translate(1804 364)"><tspan x="0" y="12">The user is able to reload the most current information by clicking on the reload icon next to the date/time stamp at </tspan><tspan x="0" y="38">the top of the page. This will be a global reload that affects the limits card and a the recipient card (and the last </tspan><tspan x="0" y="64">payments made to the recipients shown here). As the cards reload the date and time will also be updated to the time </tspan><tspan x="0" y="90">the reload CTA was clicked.</tspan></text></g><g transform="translate(0 110)"><g transform="translate(723 189)"><circle class="ap" cx="15" cy="15" r="15" transform="translate(1027 363)"/><text class="aq" transform="translate(1037 384)"><tspan x="0" y="0">3</tspan></text></g><text class="ao" transform="translate(1804 552)"><tspan x="0" y="12">From here a user can view first 5 active recipients (ordered alphabetical) and the date of the last payment made to </tspan><tspan x="0" y="38">the recipient. A user can click on each recipient line item to access their Recipient Details page. From there they are </tspan><tspan x="0" y="64">able to edit, delete, suspend, make a payment, and view all recipient information (see file </tspan><tspan x="0" y="90">DBank_RecipientManagement_DD for more details).</tspan><tspan x="0" y="116"></tspan><tspan x="0" y="142">Users are also able to click the ‘Manage all&apos; CTA in the card header to access the Recipient List overlay. From there </tspan><tspan x="0" y="168">a user is able to view all of their recipients (see file DBank_RecipientManagement_DD for more details).</tspan></text></g><g transform="translate(0 110)"><g transform="translate(723 394)"><circle class="ap" cx="15" cy="15" r="15" transform="translate(1027 363)"/><text class="aq" transform="translate(1037 384)"><tspan x="0" y="0">4</tspan></text></g><text class="ar" transform="translate(1804 757)"><tspan class="as" x="0" y="12">From the &apos;Manage Notifications and Alerts&apos; card users are able to quickly view their current notification settings. </tspan><tspan class="as" x="0" y="38">Users can easily edit their current notification settings using the &apos;Edit’ text link in the header row of the card. </tspan><tspan class="ap" y="38">This </tspan><tspan class="ap" x="0" y="64">card is descoped for this release.</tspan></text></g></g><g transform="translate(0 58)"><g transform="translate(-802 581)"><circle class="ap" cx="15" cy="15" r="15" transform="translate(1027 363)"/><text class="aq" transform="translate(1037 384)"><tspan x="0" y="0">3</tspan></text></g><g transform="translate(-822 237)"><circle class="ap" cx="15" cy="15" r="15" transform="translate(1027 363)"/><text class="aq" transform="translate(1038 384)"><tspan x="0" y="0">1</tspan></text></g><g transform="translate(-802 289)"><circle class="ap" cx="15" cy="15" r="15" transform="translate(1027 363)"/><text class="aq" transform="translate(1038 384)"><tspan x="0" y="0">2</tspan></text></g><g transform="translate(296 541)"><circle class="ap" cx="15" cy="15" r="15" transform="translate(1027 363)"/><text class="aq" transform="translate(1037 384)"><tspan x="0" y="0">4</tspan></text></g></g><g transform="translate(0 15)"><path class="at" d="M0,0H12457V59H0Z" transform="translate(0 71)"/><text class="au" transform="translate(92 107)"><tspan x="0" y="0">2.0 - Payments Landing Page - Manage Tab</tspan></text><text class="av" transform="translate(77 18)"><tspan x="0" y="0">Web Business Banking Modernization - Employee UI</tspan><tspan class="aw"><tspan x="0" y="22">Detailed Wireframe</tspan></tspan></text><g transform="translate(12 2)"><path class="ax" d="M0,43H49V0H0Z"/><g class="ay"><rect class="ba" width="49" height="43"/><rect class="b" x="0.5" y="0.5" width="48" height="42"/></g><text class="az" transform="translate(24 26)"><tspan x="-17.458" y="0">DBANK</tspan></text></g></g></g></svg>