<svg xmlns="http://www.w3.org/2000/svg" xmlns:xlink="http://www.w3.org/1999/xlink" width="2647" height="2008" viewBox="0 0 2647 2008"><defs><style>.a,.ac,.aq,.aw,.h,.n,.p,.x{fill:none;}.b{clip-path:url(#p);}.ai,.al,.am,.ax,.bb,.bd,.bi,.c,.e,.k,.q,.u{fill:#fff;}.aj,.an,.ap,.d,.f,.l,.v{fill:#1c1c1c;}.bd,.d{font-size:21px;}.ao,.ap,.au,.av,.az,.bb,.d,.f,.l,.q,.r,.s,.v{font-family:Helvetica;}.bh,.e{stroke:#707070;}.f,.q,.r,.s,.v{font-size:14px;}.f{letter-spacing:0em;}.av,.g{fill:#8b8b8b;}.ax,.h,.j{stroke:#ccc;}.al,.h,.k,.n,.p,.u{stroke-miterlimit:10;}.i{fill:#dadada;}.j{fill:#a9a9a9;}.k,.n{stroke:#979797;}.an,.az,.bf,.l{font-size:16px;}.l{letter-spacing:0em;}.m{clip-path:url(#c);}.o{fill:#6b6a6b;}.p{stroke:#dfdfe0;stroke-linecap:round;stroke-linejoin:round;stroke-width:1.778px;}.s,.t{text-decoration:underline;}.u{stroke:#dadada;}.w{fill:#555;}.x{opacity:0.8;}.y{isolation:isolate;}.z{fill:#797979;}.aa{fill:#fff8d7;}.ab{fill:#ff8686;opacity:0.301;}.ac{opacity:0.15;}.ad{fill:#767676;}.ae{clip-path:url(#f);}.af{clip-path:url(#g);}.ag{clip-path:url(#h);}.ah,.ao,.at{fill:#1b1b1b;}.aj{font-size:26px;}.aj,.an{font-family:Helvetica-Light, Helvetica;font-weight:300;}.ak,.ar{fill:#444;}.al,.am{stroke:#626262;}.ao,.ap,.at{font-size:12px;}.ar{font-size:15px;font-family:HelveticaNeue, Helvetica Neue;}.as{clip-path:url(#n);}.at{font-family:Helvetica-Bold, Helvetica;font-weight:700;}.au,.av{font-weight:400;}.aw{stroke:#e0e0e5;}.ay{fill:#f3f3f3;}.ba{fill:#ff6127;}.bb{font-size:18px;}.bc,.bh{fill:#171e52;}.bd,.be,.bi{font-family:LaoMN, Lao MN;}.be{font-size:20px;}.bg{fill:#34b234;}.bi{font-size:10px;}.bj,.bk,.bl{stroke:none;}.bk{fill:#707070;}.bl{fill:#979797;}.bm{filter:url(#i);}.bn{filter:url(#d);}.bo{filter:url(#a);}</style><filter id="a" x="1267" y="212" width="332" height="1724" filterUnits="userSpaceOnUse"><feOffset dy="2" input="SourceAlpha"/><feGaussianBlur stdDeviation="2" result="b"/><feFlood flood-color="#e1e1f6" flood-opacity="0.569"/><feComposite operator="in" in2="b"/><feComposite in="SourceGraphic"/></filter><clipPath id="c"><rect class="a" width="272.531" height="354"/></clipPath><filter id="d" x="1267" y="212" width="332" height="1724" filterUnits="userSpaceOnUse"><feOffset dy="2" input="SourceAlpha"/><feGaussianBlur stdDeviation="2" result="e"/><feFlood flood-color="#e1e1f6" flood-opacity="0.569"/><feComposite operator="in" in2="e"/><feComposite in="SourceGraphic"/></filter><clipPath id="f"><path class="a" d="M6.778-6.333l4.159,4.159a.786.786,0,0,1,0,1.111.786.786,0,0,1-1.111,0L5.667-5.222,1.508-1.063a.786.786,0,0,1-1.111,0,.786.786,0,0,1,0-1.111L4.555-6.333.4-10.492A.786.786,0,0,1,.4-11.6a.786.786,0,0,1,1.111,0L5.667-7.445,9.825-11.6a.786.786,0,0,1,1.111,0,.786.786,0,0,1,0,1.111Z" transform="translate(-0.167 11.833)"/></clipPath><clipPath id="g"><rect class="a" width="20.743" height="20.743"/></clipPath><clipPath id="h"><path class="a" d="M0-.686H11.314V-12H0Z" transform="translate(0 12)"/></clipPath><filter id="i" x="830" y="379" width="350" height="772" filterUnits="userSpaceOnUse"><feOffset dy="2" input="SourceAlpha"/><feGaussianBlur stdDeviation="2" result="j"/><feFlood flood-color="#e1e1f6" flood-opacity="0.569"/><feComposite operator="in" in2="j"/><feComposite in="SourceGraphic"/></filter><clipPath id="n"><rect class="a" width="571.5" height="342"/></clipPath><clipPath id="p"><rect width="2647" height="2008"/></clipPath></defs><g id="o" class="b"><rect class="c" width="2647" height="2008"/><g transform="translate(1273 216)"><g class="bo" transform="matrix(1, 0, 0, 1, -1273, -216)"><rect class="c" width="320" height="1712" transform="translate(1273 216)"/></g><text class="d" transform="translate(160.5 106)"><tspan x="-75.874" y="0">Select Recipient</tspan></text><g transform="translate(-1 148)"><g transform="translate(1 227)"><rect class="c" width="320" height="74"/><g transform="translate(48 12)"><g class="e"><circle class="bj" cx="16" cy="16" r="16"/><circle class="a" cx="16" cy="16" r="15.5"/></g></g><text class="f" transform="translate(96 12)"><tspan x="0" y="11">CADI Fitness</tspan><tspan class="g"><tspan x="0" y="29">Last Payment: $4,500.00 on Oct </tspan><tspan x="0" y="47">31, 20</tspan></tspan></text><g transform="translate(16 20)"><g class="h"><rect class="bj" width="16" height="16" rx="1"/><rect class="a" x="0.5" y="0.5" width="15" height="15" rx="0.5"/></g></g><rect class="i" width="320" height="1" transform="translate(0 73)"/><rect class="i" width="320" height="1"/></g><g transform="translate(1 301)"><rect class="c" width="320" height="74"/><g transform="translate(48 12)"><g class="e"><circle class="bj" cx="16" cy="16" r="16"/><circle class="a" cx="16" cy="16" r="15.5"/></g></g><text class="f" transform="translate(96 12)"><tspan x="0" y="11">Cadi Instrumental</tspan><tspan class="g"><tspan x="0" y="29">Last Payment: $4,500.00 on Sep </tspan><tspan x="0" y="47">23, 20</tspan></tspan></text><g transform="translate(16 20)"><g class="h"><rect class="bj" width="16" height="16" rx="1"/><rect class="a" x="0.5" y="0.5" width="15" height="15" rx="0.5"/></g></g><rect class="i" width="320" height="1" transform="translate(0 73)"/></g><g transform="translate(1 375)"><rect class="c" width="320" height="74"/><g transform="translate(48 12)"><g class="e"><circle class="bj" cx="16" cy="16" r="16"/><circle class="a" cx="16" cy="16" r="15.5"/></g></g><text class="f" transform="translate(96 12)"><tspan x="0" y="11">Cadillac</tspan><tspan class="g"><tspan x="0" y="29">Last Payment: $4,500.00 on Jun </tspan><tspan x="0" y="47">4, 20</tspan></tspan></text><g transform="translate(16 20)"><g class="h"><rect class="bj" width="16" height="16" rx="1"/><rect class="a" x="0.5" y="0.5" width="15" height="15" rx="0.5"/></g></g><rect class="i" width="320" height="1" transform="translate(0 73)"/></g><g transform="translate(1 449)"><rect class="c" width="320" height="74"/><g transform="translate(48 12)"><g class="e"><circle class="bj" cx="16" cy="16" r="16"/><circle class="a" cx="16" cy="16" r="15.5"/></g></g><text class="f" transform="translate(96 12)"><tspan x="0" y="11">Buick</tspan><tspan class="g"><tspan x="0" y="29">Last Payment: $4,500.00 on May </tspan><tspan x="0" y="47">30, 20</tspan></tspan></text><g transform="translate(16 20)"><g class="h"><rect class="bj" width="16" height="16" rx="1"/><rect class="a" x="0.5" y="0.5" width="15" height="15" rx="0.5"/></g></g><rect class="i" width="320" height="1" transform="translate(0 73)"/></g><g transform="translate(1 523)"><rect class="c" width="320" height="74"/><g transform="translate(48 21)"><g class="e"><circle class="bj" cx="16" cy="16" r="16"/><circle class="a" cx="16" cy="16" r="15.5"/></g></g><text class="f" transform="translate(96 33)"><tspan x="0" y="0">This is a company</tspan><tspan class="g"><tspan x="0" y="18">No recent payment</tspan></tspan></text><g transform="translate(16 29)"><g class="h"><rect class="bj" width="16" height="16" rx="1"/><rect class="a" x="0.5" y="0.5" width="15" height="15" rx="0.5"/></g></g><rect class="i" width="320" height="1" transform="translate(0 73)"/></g><g class="j" transform="translate(17 247)"><rect class="bj" width="16" height="16"/><rect class="a" x="0.5" y="0.5" width="15" height="15"/></g><g class="j" transform="translate(17 395)"><rect class="bj" width="16" height="16"/><rect class="a" x="0.5" y="0.5" width="15" height="15"/></g></g><g transform="translate(0 52)"><g class="k" transform="translate(11 733)"><rect class="bj" width="300" height="591"/><rect class="a" x="0.5" y="0.5" width="299" height="590"/></g><text class="l" transform="translate(25 762)"><tspan x="0" y="0">Selected Recipient</tspan></text><g transform="translate(25 781)"><g class="e"><circle class="bj" cx="16" cy="16" r="16"/><circle class="a" cx="16" cy="16" r="15.5"/></g></g><text class="f" transform="translate(73 801)"><tspan x="0" y="0">Coca TOR</tspan></text><path d="M6,19a2.006,2.006,0,0,0,2,2h8a2.006,2.006,0,0,0,2-2V7H6ZM19,4H15.5l-1-1h-5l-1,1H5V6H19Z" transform="translate(278.531 787)"/><g transform="translate(25 838)"><g class="e"><circle class="bj" cx="16" cy="16" r="16"/><circle class="a" cx="16" cy="16" r="15.5"/></g></g><text class="f" transform="translate(73 858)"><tspan x="0" y="0">Cadillac</tspan></text><path d="M6,19a2.006,2.006,0,0,0,2,2h8a2.006,2.006,0,0,0,2-2V7H6ZM19,4H15.5l-1-1h-5l-1,1H5V6H19Z" transform="translate(278.531 844)"/><g transform="translate(25 894)"><g class="e"><circle class="bj" cx="16" cy="16" r="16"/><circle class="a" cx="16" cy="16" r="15.5"/></g></g><text class="f" transform="translate(73 914)"><tspan x="0" y="0">Cheverolet</tspan></text><path d="M6,19a2.006,2.006,0,0,0,2,2h8a2.006,2.006,0,0,0,2-2V7H6ZM19,4H15.5l-1-1h-5l-1,1H5V6H19Z" transform="translate(278.531 900)"/><g class="m" transform="translate(25 950)"><g transform="translate(-25 -950)"><g transform="translate(25 950)"><g class="e"><circle class="bj" cx="16" cy="16" r="16"/><circle class="a" cx="16" cy="16" r="15.5"/></g></g><text class="f" transform="translate(73 970)"><tspan x="0" y="0">CADI Fitness</tspan></text><path d="M6,19a2.006,2.006,0,0,0,2,2h8a2.006,2.006,0,0,0,2-2V7H6ZM19,4H15.5l-1-1h-5l-1,1H5V6H19Z" transform="translate(278.531 956)"/></g><g transform="translate(-25 -898)"><g transform="translate(25 950)"><g class="e"><circle class="bj" cx="16" cy="16" r="16"/><circle class="a" cx="16" cy="16" r="15.5"/></g></g><text class="f" transform="translate(73 970)"><tspan x="0" y="0">Nike SEA</tspan></text><path d="M6,19a2.006,2.006,0,0,0,2,2h8a2.006,2.006,0,0,0,2-2V7H6ZM19,4H15.5l-1-1h-5l-1,1H5V6H19Z" transform="translate(278.531 956)"/></g><g transform="translate(-25 -846)"><g transform="translate(25 950)"><g class="e"><circle class="bj" cx="16" cy="16" r="16"/><circle class="a" cx="16" cy="16" r="15.5"/></g></g><text class="f" transform="translate(73 970)"><tspan x="0" y="0">General Motos</tspan></text><path d="M6,19a2.006,2.006,0,0,0,2,2h8a2.006,2.006,0,0,0,2-2V7H6ZM19,4H15.5l-1-1h-5l-1,1H5V6H19Z" transform="translate(278.531 956)"/></g><g transform="translate(-25 -794)"><g transform="translate(25 950)"><g class="e"><circle class="bj" cx="16" cy="16" r="16"/><circle class="a" cx="16" cy="16" r="15.5"/></g></g><text class="f" transform="translate(73 970)"><tspan x="0" y="0">XMY Digital</tspan></text><path d="M6,19a2.006,2.006,0,0,0,2,2h8a2.006,2.006,0,0,0,2-2V7H6ZM19,4H15.5l-1-1h-5l-1,1H5V6H19Z" transform="translate(278.531 956)"/></g><g transform="translate(-25 -742)"><g transform="translate(25 950)"><g class="e"><circle class="bj" cx="16" cy="16" r="16"/><circle class="a" cx="16" cy="16" r="15.5"/></g></g><text class="f" transform="translate(73 970)"><tspan x="0" y="0">Clean Computers</tspan></text><path d="M6,19a2.006,2.006,0,0,0,2,2h8a2.006,2.006,0,0,0,2-2V7H6ZM19,4H15.5l-1-1h-5l-1,1H5V6H19Z" transform="translate(278.531 956)"/></g><g transform="translate(-25 -690)"><g transform="translate(25 950)"><g class="e"><circle class="bj" cx="16" cy="16" r="16"/><circle class="a" cx="16" cy="16" r="15.5"/></g></g><text class="f" transform="translate(73 970)"><tspan x="0" y="0">Minute Refurbishing</tspan></text><path d="M6,19a2.006,2.006,0,0,0,2,2h8a2.006,2.006,0,0,0,2-2V7H6ZM19,4H15.5l-1-1h-5l-1,1H5V6H19Z" transform="translate(278.531 956)"/></g><g transform="translate(-25 -638)"><g transform="translate(25 950)"><g class="e"><circle class="bj" cx="16" cy="16" r="16"/><circle class="a" cx="16" cy="16" r="15.5"/></g></g><text class="f" transform="translate(73 970)"><tspan x="0" y="0">Coco Tea</tspan></text><path d="M6,19a2.006,2.006,0,0,0,2,2h8a2.006,2.006,0,0,0,2-2V7H6ZM19,4H15.5l-1-1h-5l-1,1H5V6H19Z" transform="translate(278.531 956)"/></g></g></g><g class="bn" transform="matrix(1, 0, 0, 1, -1273, -216)"><g class="n" transform="translate(1273 216)"><rect class="bj" width="320" height="1712"/><rect class="a" x="0.5" y="0.5" width="319" height="1711"/></g></g><g transform="translate(-3034 -199)"><circle class="o" cx="9" cy="9" r="9" transform="translate(3320 433)"/><path class="p" d="M3,3,0,6,3,3,0,0,3,3,6,0,3,3,6,6Z" transform="translate(3325.951 438.938)"/></g><g transform="translate(-1273 211)"><rect width="207" height="43" rx="21.5" transform="translate(1330 1205)"/><text class="q" transform="translate(1433 1230)"><tspan x="-14.393" y="0">Next</tspan></text><g transform="translate(1273.402 -835)"><g class="e" transform="translate(56.598 2099)"><rect class="bj" width="207" height="43" rx="21.5"/><rect class="a" x="0.5" y="0.5" width="206" height="42" rx="21"/></g><text class="r" transform="translate(160.597 2124)"><tspan x="-59.92" y="0">One Time Payment</tspan></text></g><g transform="translate(1271.121 -790)"><text class="s" transform="translate(162.879 2124)"><tspan x="-21.79" y="0">Cancel</tspan></text></g></g><text class="r" transform="translate(10 298)"><tspan x="0" y="0">5 results found for Cadi</tspan></text><text class="r" transform="translate(10 310)"><tspan x="0" y="11">Don’t see the recipient you want?</tspan><tspan class="t" x="0" y="31" xml:space="preserve">Add a New Recipient </tspan></text><g transform="translate(10 214)"><g class="u"><rect class="bj" width="300" height="40" rx="20"/><rect class="a" x="0.5" y="0.5" width="299" height="39" rx="19.5"/></g><text class="v" transform="translate(12 25)"><tspan x="0" y="0">Cadi</tspan></text><g transform="translate(272 12)"><path class="w" d="M16.9,15.908l-4.036-4.049a6.608,6.608,0,1,0-.989.991L15.9,16.9ZM7.729,12.92a5.193,5.193,0,1,1,5.194-5.192A5.2,5.2,0,0,1,7.729,12.92Z" transform="translate(-1.136 -1.134)"/><rect class="x" width="16" height="16"/></g><rect class="i" width="1" height="40" transform="translate(259)"/><g class="y" transform="translate(231 12)"><path class="z" d="M8,16a8,8,0,1,1,8-8A8.009,8.009,0,0,1,8,16ZM7.958,9.2h0L10,11.24a.889.889,0,0,0,1.257-1.257L9.214,7.945l2.038-2.038A.889.889,0,1,0,10,4.649L7.958,6.687,5.919,4.649A.889.889,0,0,0,4.662,5.907L6.7,7.945,4.662,9.983A.889.889,0,0,0,5.919,11.24L7.957,9.2Z"/></g></g></g><g transform="translate(1273 350)"><rect class="aa" width="320" height="66"/><rect class="ab" width="24" height="24" transform="translate(16 21)"/><text class="v" transform="translate(56 38)"><tspan x="0" y="0">Only 10 Recipients may be selected. </tspan></text><g transform="translate(16 21)"><rect class="ac" width="24" height="24"/><g transform="translate(1 1)"><circle class="ad" cx="10" cy="10" r="10" transform="translate(1 1)"/><g transform="translate(-0.997 -2.095)"><rect class="c" width="2.002" height="1.911" transform="translate(11.049 15.479)"/><path class="c" d="M11.3,14.491h1.521l.286-6.4H11Z"/></g></g></g><g transform="translate(299 6)"><g class="ae"><g class="y" transform="translate(-4.871 -4.871)"><g class="af"><g class="ag" transform="translate(4.714 4.714)"><path class="ah" d="M-4.833-16.833H15.6V3.6H-4.833Z" transform="translate(0.276 12.276)"/></g></g></g></g></g></g><g transform="translate(-1241 -1655)"><g class="ai" transform="translate(1331 1871)"><path class="bj" d="M 1152.5 1055.84912109375 L 0.5 1055.84912109375 L 0.5 0.4999891221523285 L 1152.5 0.4999891221523285 L 1152.5 1055.84912109375 Z"/><path class="bk" d="M 1 1 L 1 1055.34912109375 L 1152 1055.34912109375 L 1152 1 L 1 1 M 0 0 L 1153 0 L 1153 1056.34912109375 L 0 1056.34912109375 L 0 0 Z"/></g><text class="aj" transform="translate(1906 1939)"><tspan x="-94.653" y="0">Select Recipient</tspan></text><g transform="translate(958 1452)"><g transform="translate(1391 1390)"><rect class="ak" width="149" height="46" rx="23" transform="translate(-87)"/><text class="q" transform="translate(-12.5 26)"><tspan x="-14.393" y="0">Next</tspan></text></g><g transform="translate(545 1390)"><g class="al" transform="translate(-97)"><rect class="bj" width="149" height="46" rx="23"/><rect class="a" x="0.5" y="0.5" width="148" height="45" rx="22.5"/></g><text class="r" transform="translate(-22.5 26)"><tspan x="-21.79" y="0">Cancel</tspan></text></g><g transform="translate(1093.502 1390)"><rect class="am" width="194" height="46" rx="23" transform="translate(0.498)"/><text class="r" transform="translate(97.249 26)"><tspan x="-59.92" y="0">One Time Payment</tspan></text></g></g><g transform="translate(-1424 1648)"><g class="bm" transform="matrix(1, 0, 0, 1, 2665, 7)"><g class="k" transform="translate(836 383)"><rect class="bj" width="338" height="760"/><rect class="a" x="0.5" y="0.5" width="337" height="759"/></g></g><text class="an" transform="translate(3529 439)"><tspan x="0" y="0">Selected Recipient</tspan></text><g transform="translate(1424 -1644)"><g transform="translate(5176 3876)"><g class="e" transform="translate(-3076 -1741)"><circle class="bj" cx="18" cy="18" r="18"/><circle class="a" cx="18" cy="18" r="17.5"/></g><text class="ao" transform="translate(-3024 -1720)"><tspan x="0" y="0">Coca TOR </tspan></text></g><g transform="translate(5176 3942)"><g class="e" transform="translate(-3076 -1741)"><circle class="bj" cx="18" cy="18" r="18"/><circle class="a" cx="18" cy="18" r="17.5"/></g><text class="ao" transform="translate(-3024 -1720)"><tspan x="0" y="0">Cadillac</tspan></text></g><g transform="translate(5176 4008)"><g class="e" transform="translate(-3076 -1741)"><circle class="bj" cx="18" cy="18" r="18"/><circle class="a" cx="18" cy="18" r="17.5"/></g><text class="ao" transform="translate(-3024 -1720)"><tspan x="0" y="0">Cheverolet</tspan></text></g><g transform="translate(5176 4074)"><g class="e" transform="translate(-3076 -1741)"><circle class="bj" cx="18" cy="18" r="18"/><circle class="a" cx="18" cy="18" r="17.5"/></g><text class="ao" transform="translate(-3024 -1720)"><tspan x="0" y="0">CADI Fitness</tspan></text></g><g transform="translate(5176 4140)"><g class="e" transform="translate(-3076 -1741)"><circle class="bj" cx="18" cy="18" r="18"/><circle class="a" cx="18" cy="18" r="17.5"/></g><text class="ao" transform="translate(-3024 -1720)"><tspan x="0" y="0">Nike SEA</tspan></text></g><g transform="translate(5176 4206)"><g class="e" transform="translate(-3076 -1741)"><circle class="bj" cx="18" cy="18" r="18"/><circle class="a" cx="18" cy="18" r="17.5"/></g><text class="ao" transform="translate(-3024 -1720)"><tspan x="0" y="0">General Motors</tspan></text></g><g transform="translate(5176 4272)"><g class="e" transform="translate(-3076 -1741)"><circle class="bj" cx="18" cy="18" r="18"/><circle class="a" cx="18" cy="18" r="17.5"/></g><text class="ao" transform="translate(-3024 -1720)"><tspan x="0" y="0">XMY Digital</tspan></text></g><g transform="translate(5176 4338)"><g class="e" transform="translate(-3076 -1741)"><circle class="bj" cx="18" cy="18" r="18"/><circle class="a" cx="18" cy="18" r="17.5"/></g><text class="ao" transform="translate(-3024 -1720)"><tspan x="0" y="0">Clean Computers</tspan></text></g><g transform="translate(5176 4404)"><g class="e" transform="translate(-3076 -1741)"><circle class="bj" cx="18" cy="18" r="18"/><circle class="a" cx="18" cy="18" r="17.5"/></g><text class="ao" transform="translate(-3024 -1720)"><tspan x="0" y="0">Minute Refurbishing</tspan></text></g><g transform="translate(5176 4470)"><g class="e" transform="translate(-3076 -1741)"><circle class="bj" cx="18" cy="18" r="18"/><circle class="a" cx="18" cy="18" r="17.5"/></g><text class="ao" transform="translate(-3024 -1720)"><tspan x="0" y="0">Coco Tea</tspan></text></g><path d="M6,19a2.006,2.006,0,0,0,2,2h8a2.006,2.006,0,0,0,2-2V7H6ZM19,4H15.5l-1-1h-5l-1,1H5V6H19Z" transform="translate(2372.531 2207)"/><path d="M6,19a2.006,2.006,0,0,0,2,2h8a2.006,2.006,0,0,0,2-2V7H6ZM19,4H15.5l-1-1h-5l-1,1H5V6H19Z" transform="translate(2372.531 2273)"/><path d="M6,19a2.006,2.006,0,0,0,2,2h8a2.006,2.006,0,0,0,2-2V7H6ZM19,4H15.5l-1-1h-5l-1,1H5V6H19Z" transform="translate(2372.531 2339)"/><path d="M6,19a2.006,2.006,0,0,0,2,2h8a2.006,2.006,0,0,0,2-2V7H6ZM19,4H15.5l-1-1h-5l-1,1H5V6H19Z" transform="translate(2372.531 2405)"/><path d="M6,19a2.006,2.006,0,0,0,2,2h8a2.006,2.006,0,0,0,2-2V7H6ZM19,4H15.5l-1-1h-5l-1,1H5V6H19Z" transform="translate(2372.531 2471)"/><path d="M6,19a2.006,2.006,0,0,0,2,2h8a2.006,2.006,0,0,0,2-2V7H6ZM19,4H15.5l-1-1h-5l-1,1H5V6H19Z" transform="translate(2372.531 2537)"/><path d="M6,19a2.006,2.006,0,0,0,2,2h8a2.006,2.006,0,0,0,2-2V7H6ZM19,4H15.5l-1-1h-5l-1,1H5V6H19Z" transform="translate(2372.531 2603)"/><path d="M6,19a2.006,2.006,0,0,0,2,2h8a2.006,2.006,0,0,0,2-2V7H6ZM19,4H15.5l-1-1h-5l-1,1H5V6H19Z" transform="translate(2372.531 2669)"/><path d="M6,19a2.006,2.006,0,0,0,2,2h8a2.006,2.006,0,0,0,2-2V7H6ZM19,4H15.5l-1-1h-5l-1,1H5V6H19Z" transform="translate(2372.531 2735)"/><path d="M6,19a2.006,2.006,0,0,0,2,2h8a2.006,2.006,0,0,0,2-2V7H6ZM19,4H15.5l-1-1h-5l-1,1H5V6H19Z" transform="translate(2372.531 2141)"/></g></g><g transform="translate(333 1737)"><rect class="aa" width="1009" height="56" transform="translate(1073 231)"/><rect class="ab" width="24" height="24" transform="translate(1097 247)"/><text class="ap" transform="translate(1145 264)"><tspan x="0" y="0">Only 10 recipients may be selected.</tspan></text><g transform="translate(1097 247)"><rect class="ac" width="24" height="24"/><g transform="translate(2 2)"><circle class="ad" cx="10" cy="10" r="10"/><g transform="translate(9 5)"><rect class="c" width="2.002" height="1.911" transform="translate(0.052 7.385)"/><path class="c" d="M11.3,14.491h1.521l.286-6.4H11Z" transform="translate(-10.997 -8.095)"/></g></g></g><g transform="translate(2059 243)"><g class="ae"><g class="y" transform="translate(-4.871 -4.871)"><g class="af"><g class="ag" transform="translate(4.714 4.714)"><path class="ah" d="M-4.833-16.833H15.6V3.6H-4.833Z" transform="translate(0.276 12.276)"/></g></g></g></g></g></g><g transform="translate(1331 1708)"><g class="aq" transform="translate(75 330.863)"><path class="bj" d="M0,0H648V528.844H0Z"/><path class="bl" d="M 1 1 L 1 527.843505859375 L 647 527.843505859375 L 647 1 L 1 1 M 0 0 L 648 0 L 648 528.843505859375 L 0 528.843505859375 L 0 0 Z"/></g><text class="ar" transform="translate(105 468)"><tspan x="0" y="14">Don’t see the recipient you want? </tspan><tspan class="t" y="14">Add a New Recipient</tspan></text><g class="as" transform="translate(105 502)"><g transform="translate(-295 -460)"><g class="e" transform="translate(326 549)"><circle class="bj" cx="18" cy="18" r="18"/><circle class="a" cx="18" cy="18" r="17.5"/></g><g class="e" transform="translate(326 478)"><circle class="bj" cx="18" cy="18" r="18"/><circle class="a" cx="18" cy="18" r="17.5"/></g><g class="e" transform="translate(326 610)"><circle class="bj" cx="18" cy="18" r="18"/><circle class="a" cx="18" cy="18" r="17.5"/></g><text class="at" transform="translate(378 492)"><tspan x="0" y="0">CADI </tspan><tspan class="au" y="0">Fitness</tspan><tspan class="av"><tspan x="0" y="16">Last Payment: $4,500.00 on Oct 31, 20</tspan></tspan></text><text class="at" transform="translate(378 564)"><tspan x="0" y="0">Cadi</tspan><tspan class="au" y="0" xml:space="preserve"> Instrumental</tspan><tspan class="av"><tspan x="0" y="16">Last Payment: $4,500.00 on Sep 23, 20</tspan></tspan></text><line class="aw" x2="571" transform="translate(295.5 460.5)"/><path class="aw" d="M0,0H571" transform="translate(295.5 530.5)"/><line class="aw" x2="571" transform="translate(295.5 601.5)"/><line class="aw" x2="571" transform="translate(295.5 659.5)"/><g class="ax" transform="translate(295 489)"><rect class="bj" width="15" height="15"/><rect class="a" x="0.5" y="0.5" width="14" height="14"/></g><g class="ax" transform="translate(295 560)"><rect class="bj" width="15" height="15"/><rect class="a" x="0.5" y="0.5" width="14" height="14"/></g><g class="j" transform="translate(295 621)"><rect class="bj" width="15" height="15"/><rect class="a" x="0.5" y="0.5" width="14" height="14"/></g><path class="aw" d="M0,0H571" transform="translate(295.5 805.5)"/><text class="at" transform="translate(378 628)"><tspan x="0" y="0">Cadi</tspan><tspan class="au" y="0">llac</tspan><tspan y="0"></tspan><tspan class="av"><tspan x="0" y="16">Last Payment: $4,500.00 on Jun 4, 20</tspan></tspan></text></g><g transform="translate(-295 -260)"><g class="e" transform="translate(326 549)"><circle class="bj" cx="18" cy="18" r="18"/><circle class="a" cx="18" cy="18" r="17.5"/></g><g class="e" transform="translate(326 478)"><circle class="bj" cx="18" cy="18" r="18"/><circle class="a" cx="18" cy="18" r="17.5"/></g><g class="e" transform="translate(326 610)"><circle class="bj" cx="18" cy="18" r="18"/><circle class="a" cx="18" cy="18" r="17.5"/></g><text class="ao" transform="translate(378 492)"><tspan x="0" y="0">Buick</tspan><tspan class="g"><tspan x="0" y="16">Last Payment: $4,500.00 on May 30, 20</tspan></tspan></text><text class="ao" transform="translate(378 564)"><tspan x="0" y="0">This is a company</tspan><tspan class="g"><tspan x="0" y="16">No recent payment</tspan></tspan></text><line class="aw" x2="571" transform="translate(295.5 460.5)"/><path class="aw" d="M0,0H571" transform="translate(295.5 530.5)"/><line class="aw" x2="571" transform="translate(295.5 601.5)"/><line class="aw" x2="571" transform="translate(295.5 659.5)"/><g class="ax" transform="translate(295 489)"><rect class="bj" width="15" height="15"/><rect class="a" x="0.5" y="0.5" width="14" height="14"/></g><g class="ax" transform="translate(295 560)"><rect class="bj" width="15" height="15"/><rect class="a" x="0.5" y="0.5" width="14" height="14"/></g><g class="j" transform="translate(295 621)"><rect class="bj" width="15" height="15"/><rect class="a" x="0.5" y="0.5" width="14" height="14"/></g><path class="aw" d="M0,0H571" transform="translate(295.5 805.5)"/><text class="at" transform="translate(378 628)"><tspan x="0" y="0">Cadi</tspan><tspan class="au" y="0" xml:space="preserve"> Instrumental</tspan><tspan class="au"><tspan x="0" y="16">Last Payment: $4,500.00 on 05/12/19</tspan></tspan></text></g></g><text class="l" transform="translate(107 455)"><tspan x="0" y="0">5 results found for Cadi</tspan></text><g class="j" transform="translate(105 531)"><rect class="bj" width="15" height="15"/><rect class="a" x="0.5" y="0.5" width="14" height="14"/></g><g transform="translate(106.692 370)"><g class="u" transform="translate(0.309)"><rect class="bj" width="288" height="40" rx="20"/><rect class="a" x="0.5" y="0.5" width="287" height="39" rx="19.5"/></g><text class="ap" transform="translate(12.309 24)"><tspan x="0" y="0">Cadi</tspan></text><g transform="translate(256.309 12)"><path class="w" d="M16.9,15.908l-4.036-4.049a6.608,6.608,0,1,0-.989.991L15.9,16.9ZM7.729,12.92a5.193,5.193,0,1,1,5.194-5.192A5.2,5.2,0,0,1,7.729,12.92Z" transform="translate(-1.136 -1.134)"/><rect class="x" width="16" height="16"/></g><rect class="i" width="1" height="40" transform="translate(239.308)"/><g class="y" transform="translate(207.308 12)"><path class="z" d="M8,16a8,8,0,1,1,8-8A8.009,8.009,0,0,1,8,16ZM7.958,9.2h0L10,11.24a.889.889,0,0,0,1.257-1.257L9.214,7.945l2.038-2.038A.889.889,0,1,0,10,4.649L7.958,6.687,5.919,4.649A.889.889,0,0,0,4.662,5.907L6.7,7.945,4.662,9.983A.889.889,0,0,0,5.919,11.24L7.957,9.2Z"/></g></g></g></g><g transform="translate(63)"><rect class="ay" width="1024" height="2008" transform="translate(1560)"/><text class="az" transform="translate(1682 213)"><tspan x="0" y="12">All the selected recipients will be bucketed in the card on the right side of the page. In this case, ten recipients have </tspan><tspan x="0" y="38">been selected, which is the maximum amount of recipients possible to be selected. </tspan><tspan x="0" y="64"></tspan><tspan x="0" y="90">If the user attempts to add another recipient (as to exceed the maximum 10 recipient limit), the recipient will not be </tspan><tspan x="0" y="116">selected and an alert banner will appear. The alert banner will inform the user that only up to 10 recipients may be </tspan><tspan x="0" y="142">selected.</tspan></text><g transform="translate(601 -150)"><circle class="ba" cx="15" cy="15" r="15" transform="translate(1027 363)"/><text class="bb" transform="translate(1037 384)"><tspan x="0" y="0">1</tspan></text></g><g transform="translate(601 -74)"><circle class="ba" cx="15" cy="15" r="15" transform="translate(1027 363)"/><text class="bb" transform="translate(1037 384)"><tspan x="0" y="0">2</tspan></text></g></g><g transform="translate(-205 125)"><circle class="ba" cx="15" cy="15" r="15" transform="translate(1027 363)"/><text class="bb" transform="translate(1037 384)"><tspan x="0" y="0">1</tspan></text></g><g transform="translate(-878 -37)"><circle class="ba" cx="15" cy="15" r="15" transform="translate(1027 363)"/><text class="bb" transform="translate(1037 384)"><tspan x="0" y="0">2</tspan></text></g><g transform="translate(0 15)"><path class="bc" d="M0,0H12457V59H0Z" transform="translate(0 71)"/><text class="bd" transform="translate(92 107)"><tspan x="0" y="0">4.1.2.1 - Payment Creation flow - Select Recipient - Search Results - Multiple Recipients Selected - Maximum Limit Reached</tspan></text><text class="be" transform="translate(77 18)"><tspan x="0" y="0">Web Business Banking Modernization - Employee UI</tspan><tspan class="bf"><tspan x="0" y="22">Detailed Wireframe</tspan></tspan></text><g transform="translate(12 2)"><path class="bg" d="M0,43H49V0H0Z"/><g class="bh"><rect class="bj" width="49" height="43"/><rect class="a" x="0.5" y="0.5" width="48" height="42"/></g><text class="bi" transform="translate(24 26)"><tspan x="-17.458" y="0">DBANK</tspan></text></g></g></g></svg>