<svg xmlns="http://www.w3.org/2000/svg" xmlns:xlink="http://www.w3.org/1999/xlink" width="2655" height="1547" viewBox="0 0 2655 1547"><defs><style>.a{clip-path:url(#f);}.ab,.ai,.al,.ao,.at,.b,.f,.j,.y{fill:#fff;}.c,.d,.m{fill:#444;}.as,.d,.f,.q{stroke:#707070;}.e{fill:#fafafa;}.ae,.ag,.al,.am,.e,.g,.k,.s{font-size:14px;}.ad,.ae,.ag,.al,.am,.e,.g,.h,.k,.m,.r,.s,.t,.w,.y,.z{font-family:Helvetica;}.ag,.aj,.h,.s,.u,.z{fill:#1c1c1c;}.ad,.aq,.h,.w{font-size:16px;}.h,.s{letter-spacing:0em;}.ac,.ah,.ak,.i,.l,.q{fill:none;}.ab,.ac,.ak,.i{stroke:#979797;}.ad,.ae,.af,.k{fill:#797979;}.ad,.k,.m,.r{letter-spacing:0em;}.l{stroke:#4a4a4a;stroke-linecap:round;stroke-linejoin:round;stroke-width:2px;}.m,.r{font-size:12px;}.n,.o{fill:#555;}.n{opacity:0.15;}.p{fill:#fff8d7;}.aa,.am,.s,.t{text-decoration:underline;}.aa,.t{fill:#707070;}.aa,.ap,.t{font-size:20px;}.u{font-size:26px;font-family:Helvetica-Light, Helvetica;font-weight:300;}.v{fill:#f3f3f3;}.x{fill:#ff6127;}.y{font-size:18px;}.ao,.z{font-size:21px;}.aa{font-family:HelveticaNeue, Helvetica Neue;}.ab,.ac,.ai,.ak{stroke-miterlimit:10;}.ac{stroke-linecap:square;}.ai{stroke:#f0f4fb;}.an,.as{fill:#171e52;}.ao,.ap,.at{font-family:LaoMN, Lao MN;}.ar{fill:#34b234;}.at{font-size:10px;}.au,.av,.aw{stroke:none;}.av{fill:#707070;}.aw{fill:#979797;}.ax{filter:url(#c);}.ay{filter:url(#a);}</style><filter id="a" x="1274" y="212" width="332" height="1187" filterUnits="userSpaceOnUse"><feOffset dy="2" input="SourceAlpha"/><feGaussianBlur stdDeviation="2" result="b"/><feFlood flood-color="#e1e1f6" flood-opacity="0.569"/><feComposite operator="in" in2="b"/><feComposite in="SourceGraphic"/></filter><filter id="c" x="1274" y="213" width="332" height="1186" filterUnits="userSpaceOnUse"><feOffset dy="2" input="SourceAlpha"/><feGaussianBlur stdDeviation="2" result="d"/><feFlood flood-color="#e1e1f6" flood-opacity="0.569"/><feComposite operator="in" in2="d"/><feComposite in="SourceGraphic"/></filter><clipPath id="f"><rect width="2655" height="1547"/></clipPath></defs><g id="e" class="a"><rect class="j" width="2655" height="1547"/><g transform="translate(9 -11)"><g transform="translate(-2560 -64)"><g class="b" transform="translate(2648 291)"><path class="au" d="M 1152.5 1155.685668945312 L 0.5 1155.685668945312 L 0.5 0.5000591278076172 L 1152.5 0.5000591278076172 L 1152.5 1155.685668945312 Z"/><path class="av" d="M 1 0.9998779296875 L 1 1155.185546875 L 1152 1155.185546875 L 1152 0.9998779296875 L 1 0.9998779296875 M 0 -0.0001220703125 L 1153 -0.0001220703125 L 1153 1156.185546875 L 0 1156.185546875 L 0 -0.0001220703125 Z"/></g><path class="c" d="M8.293,17.708l-8-8a1,1,0,0,1-.172-.23h0l-.01-.019,0-.006L.1,9.438.1,9.426l0-.008L.083,9.4v0a1,1,0,0,1,0-.8v0l.008-.018,0-.008L.1,8.562l.007-.014,0-.006.01-.019h0a1,1,0,0,1,.172-.23l8-8A1,1,0,1,1,9.707,1.707L3.414,8H17a1,1,0,0,1,0,2H3.414l6.294,6.293a1,1,0,0,1-1.415,1.415Z" transform="translate(2836 343)"/></g><g transform="translate(0 14)"><g transform="translate(930 959)"><g class="d"><rect class="au" width="150" height="44" rx="22"/><rect class="ah" x="0.5" y="0.5" width="149" height="43" rx="21.5"/></g><text class="e" transform="translate(76.743 26)"><tspan x="-22.952" y="0">Review</tspan></text></g><g transform="translate(276 959)"><g class="f"><rect class="au" width="150" height="44" rx="22"/><rect class="ah" x="0.5" y="0.5" width="149" height="43" rx="21.5"/></g><text class="g" transform="translate(76.71 26)"><tspan x="-21.79" y="0">Cancel</tspan></text></g><g transform="translate(764 959)"><g class="f"><rect class="au" width="150" height="44" rx="22"/><rect class="ah" x="0.5" y="0.5" width="149" height="43" rx="21.5"/></g><text class="g" transform="translate(76.71 26)"><tspan x="-15.955" y="0">Save</tspan></text></g></g><g transform="translate(117 214)"><g class="b" transform="translate(160 198)"><path class="au" d="M 803.5 498.2578125 L 584.533203125 498.2578125 L 0.5 498.2578125 L 0.5 0.5000062584877014 L 803.5 0.5000062584877014 L 803.5 498.2578125 Z"/><path class="aw" d="M 1 1 L 1 497.7578125 L 803 497.7578125 L 803 1 L 1 1 M 0 0 L 804 0 L 804 498.7578125 L 0 498.7578125 L 0 0 Z"/></g><text class="h" transform="translate(184 227)"><tspan x="0" y="0">Payment 1</tspan></text><line class="i" x2="804" transform="translate(160 246)"/><g transform="translate(387 419)"><rect class="j" width="350" height="36"/><line class="i" x2="350" transform="translate(0 35.5)"/><text class="k" transform="translate(0 22)"><tspan x="0" y="0">Recipient Account</tspan></text><g transform="translate(328 17)"><path class="l" d="M0,4.5,4.5,0,9,4.5" transform="translate(9 4.5) rotate(180)"/></g></g><g transform="translate(387 487)"><rect class="j" width="350" height="60"/><line class="i" x2="350" transform="translate(0 35.5)"/><text class="k" transform="translate(0 10)"><tspan x="0" y="11">Comment (Optional)</tspan></text><text class="m" transform="translate(350 51)"><tspan x="-30.031" y="0">0/120</tspan></text></g><g transform="translate(0 -24)"><path class="i" d="M0,0H804" transform="translate(160 586)"/><text class="h" transform="translate(184 616)"><tspan x="0" y="0">Additional Information (Optional)</tspan></text><g transform="translate(455 603)"><circle class="n" cx="8" cy="8" r="8"/><rect class="o" width="2" height="2" transform="translate(7 3)"/><rect class="o" width="2" height="7" transform="translate(7 5.996)"/></g><g transform="translate(-251 -108)"><rect class="p" width="755" height="56" transform="translate(435 743)"/><g transform="translate(459 749)"><g transform="translate(0 9)"><g class="f"><rect class="au" width="27" height="28"/><rect class="ah" x="0.5" y="0.5" width="26" height="27"/></g><line class="q" y1="26" x2="25" transform="translate(1 1)"/><line class="q" x2="25" y2="26" transform="translate(1 1)"/></g><text class="r" transform="translate(50 16)"><tspan x="0" y="9">Please note: Additional charges may apply in the future when adding additional information.</tspan></text></g></g><text class="s" transform="translate(939 617)"><tspan x="-24.911" y="0">Add</tspan></text></g><g transform="translate(387 283)"><rect class="j" width="350" height="36"/><path class="i" d="M1.413,0H349.5" transform="translate(0.5 35.5)"/><text class="k" transform="translate(0 22)"><tspan x="0" y="0">Amount</tspan></text></g><g transform="translate(387 351)"><rect class="j" width="350" height="36"/><line class="i" x2="350" transform="translate(0 35.5)"/><text class="k" transform="translate(0 22)"><tspan x="0" y="0">Paid From</tspan></text><g transform="translate(328 19)"><path class="l" d="M0,4.5,4.5,0,9,4.5" transform="translate(9 4.5) rotate(180)"/></g></g><text class="k" transform="translate(184 725)"><tspan x="0" y="0">+ Add Another Payment</tspan></text></g><text class="t" transform="translate(528 317)"><tspan x="-35.571" y="15">Cadillac</tspan></text><text class="u" transform="translate(679 296)"><tspan x="-84.526" y="0">Enter Payment</tspan></text></g><g transform="translate(70)"><rect class="v" width="1024" height="1547" transform="translate(1561)"/><text class="w" transform="translate(1628 213)"><tspan x="0" y="12">Following the selection of a single existing recipient from the Select Recipient page, the user is able to input details for the </tspan><tspan x="0" y="38">requested payment. The Basic and Account Information about the recipient is auto-populated and not editable.</tspan></text><g transform="translate(0 101)"><text class="w" transform="translate(1682 493)"><tspan x="0" y="12">Clicking on the ‘Add’ text link here, the user is able to add additional information. This will take the user to the first </tspan><tspan x="0" y="38">page of the Remittance Information flow for the user to manually enter the additional information (see </tspan><tspan x="0" y="64">DBank_RemittanceInformation_DD file for more details). Adding additional information is completely optional. </tspan><tspan x="0" y="90"></tspan><tspan x="0" y="116">In this case no additional information is add, so no documents are listed in this section.</tspan></text><g transform="translate(601 130)"><circle class="x" cx="15" cy="15" r="15" transform="translate(1027 363)"/><text class="y" transform="translate(1038 384)"><tspan x="0" y="0">4</tspan></text></g></g><g transform="translate(0 101)"><text class="w" transform="translate(1682 651)"><tspan x="0" y="12">The alert banner here reminds users that adding additional information is not a required step when making a </tspan><tspan x="0" y="38">payment. If they choose to add additional information about this payment, additional charges will apply.</tspan></text><g transform="translate(601 288)"><circle class="x" cx="15" cy="15" r="15" transform="translate(1027 363)"/><text class="y" transform="translate(1038 384)"><tspan x="0" y="0">5</tspan></text></g></g><g transform="translate(0 101)"><g transform="translate(601 529)"><circle class="x" cx="15" cy="15" r="15" transform="translate(1027 381)"/><text class="y" transform="translate(1038 402)"><tspan x="0" y="0">8</tspan></text></g><text class="w" transform="translate(1682 910)"><tspan x="0" y="12">The ‘Save’ CTA saves a draft of the payment allowing the user to complete this flow at another time. Draft payments </tspan><tspan x="0" y="38">can be found and accessed on the Payments Landing page under ‘Draft Payments’ section.</tspan></text></g><g transform="translate(601 -47)"><circle class="x" cx="15" cy="15" r="15" transform="translate(1027 363)"/><text class="y" transform="translate(1038 384)"><tspan x="0" y="0">1</tspan></text></g><text class="w" transform="translate(1682 316)"><tspan x="0" y="12">The user is able to click on the recipient name text link here to view read only recipient details. This will open as </tspan><tspan x="0" y="38">another level overlay, with clicking on the X icon to close the read only recipient details overlay as the only action </tspan><tspan x="0" y="64">available to the user.</tspan></text><g transform="translate(601 53)"><circle class="x" cx="15" cy="15" r="15" transform="translate(1027 363)"/><text class="y" transform="translate(1038 384)"><tspan x="0" y="0">2</tspan></text></g><text class="w" transform="translate(1682 416)"><tspan x="0" y="12">The user must complete all the required fields here before moving on to the next step of reviewing their payment. </tspan><tspan x="0" y="38">The optional fields are marked accordingly. By default, these fields are empty on this page.</tspan></text><g transform="translate(0 77)"><g transform="translate(601 53)"><circle class="x" cx="15" cy="15" r="15" transform="translate(1027 363)"/><text class="y" transform="translate(1038 384)"><tspan x="0" y="0">3</tspan></text></g><text class="w" transform="translate(1682 416)"><tspan x="0" y="12">The comment text field has a maximum character count of 120 to ensure the Activity Log comment field remains </tspan><tspan x="0" y="38">succinct. The character counter here is dynamic to the text entered in this field: formatted as: character used / </tspan><tspan x="0" y="64">character limit)</tspan></text></g><g transform="translate(0 101)"><g transform="translate(601 708)"><circle class="x" cx="15" cy="15" r="15" transform="translate(1027 381)"/><text class="y" transform="translate(1032 403)"><tspan x="0" y="0">10</tspan></text></g><text class="w" transform="translate(1682 1089)"><tspan x="0" y="12">Clicking on the back icon will take the user back to the previous step in the flow, which in this case is Select </tspan><tspan x="0" y="38">Recipient page.</tspan></text></g><g transform="translate(0 101)"><g transform="translate(601 628)"><circle class="x" cx="15" cy="15" r="15" transform="translate(1027 363)"/><text class="y" transform="translate(1038 384)"><tspan x="0" y="0">9</tspan></text></g><text class="w" transform="translate(1682 991)"><tspan x="0" y="12">Clicking ‘Cancel’ CTA will prompt a cancel dialog confirming the user’s action to cancel this flow, effectively </tspan><tspan x="0" y="38">discarding any unsaved information. Once confirmed, the user is brought back to the Payments Landing page or </tspan><tspan x="0" y="64">Recipient Details page where they started with no changes made. </tspan></text></g><g transform="translate(0 101)"><text class="w" transform="translate(1682 829)"><tspan x="0" y="12">Clicking on the ‘Review’ CTA will take user to the next step of the Payment Creation flow to the Review Payment </tspan><tspan x="0" y="38">page. The user must enter all required fields before being able to move to the next step.</tspan></text><g transform="translate(98 279)"><path class="x" d="M15,0A15,15,0,1,1,0,15,15,15,0,0,1,15,0Z" transform="translate(1531 550)"/><text class="y" transform="translate(1542 571)"><tspan x="0" y="0">7</tspan></text></g></g><g transform="translate(0 101)"><text class="w" transform="translate(1682 728)"><tspan x="0" y="12">The ‘ + Add Another Payment’ text link allows multiple payments to be made to the same recipient. Selecting this text </tspan><tspan x="0" y="38">link adds another payment card to this recipient. There is a limit of 10 payments per recipient at one time.</tspan></text><g transform="translate(98 178)"><path class="x" d="M15,0A15,15,0,1,1,0,15,15,15,0,0,1,15,0Z" transform="translate(1531 550)"/><text class="y" transform="translate(1542 571)"><tspan x="0" y="0">6</tspan></text></g></g></g><g transform="translate(0 15)"><g transform="translate(-14 135)"><path class="x" d="M15,0A15,15,0,1,1,0,15,15,15,0,0,1,15,0Z" transform="translate(1092 629)"/><text class="y" transform="translate(1103 650)"><tspan x="0" y="0">4</tspan></text></g><g transform="translate(-822 184)"><path class="x" d="M15,0A15,15,0,1,1,0,15,15,15,0,0,1,15,0Z" transform="translate(1092 629)"/><text class="y" transform="translate(1103 650)"><tspan x="0" y="0">5</tspan></text></g><g transform="translate(-757 527)"><circle class="x" cx="15" cy="15" r="15" transform="translate(1027 363)"/><text class="y" transform="translate(1038 384)"><tspan x="0" y="0">6</tspan></text></g><g transform="translate(-757 599)"><circle class="x" cx="15" cy="15" r="15" transform="translate(1027 355)"/><text class="y" transform="translate(1038 376)"><tspan x="0" y="0">9</tspan></text></g><g transform="translate(-191 114)"><path class="x" d="M15,0A15,15,0,1,1,0,15,15,15,0,0,1,15,0Z" transform="translate(950 840)"/><text class="y" transform="translate(961 861)"><tspan x="0" y="0">8</tspan></text></g><g transform="translate(128 114)"><path class="x" d="M15,0A15,15,0,1,1,0,15,15,15,0,0,1,15,0Z" transform="translate(950 840)"/><text class="y" transform="translate(961 861)"><tspan x="0" y="0">7</tspan></text></g><g transform="translate(-704 -112)"><circle class="x" cx="15" cy="15" r="15" transform="translate(1027 363)"/><text class="y" transform="translate(1032 384)"><tspan x="0" y="0">10</tspan></text></g><g transform="translate(-777 33)"><circle class="x" cx="15" cy="15" r="15" transform="translate(1027 363)"/><text class="y" transform="translate(1038 384)"><tspan x="0" y="0">2</tspan></text></g><g transform="translate(-153 328)"><circle class="x" cx="15" cy="15" r="15" transform="translate(1027 363)"/><text class="y" transform="translate(1038 384)"><tspan x="0" y="0">3</tspan></text></g><g transform="translate(-421 -77)"><circle class="x" cx="15" cy="15" r="15" transform="translate(1027 363)"/><text class="y" transform="translate(1038 384)"><tspan x="0" y="0">1</tspan></text></g></g><g transform="translate(17035 -6314)"><g class="ay" transform="matrix(1, 0, 0, 1, -17035, 6314)"><rect class="j" width="320" height="1175" transform="translate(1280 216)"/></g><text class="z" transform="translate(-15601.5 6630)"><tspan x="-69.45" y="0">Enter Payment</tspan></text><text class="aa" transform="translate(-15595 6669)"><tspan x="-35.92" y="0">Cadillac</tspan></text><g transform="translate(-17136 6294)"><g transform="translate(1391 457)"><g class="ab"><rect class="au" width="300" height="577"/><rect class="ah" x="0.5" y="0.5" width="299" height="576"/></g><path class="ac" d="M0,.5H297.828" transform="translate(1 42.5)"/><text class="h" transform="translate(13 28)"><tspan x="0" y="0">Payment 1</tspan></text><g transform="translate(13 79)"><rect class="j" width="274" height="36"/><line class="i" x2="274" transform="translate(0 35.5)"/><text class="ad" transform="translate(0 22)"><tspan x="0" y="0">Amount</tspan></text></g><g transform="translate(13 151)"><rect class="j" width="274" height="36"/><line class="i" x2="274" transform="translate(0 35.5)"/><text class="ad" transform="translate(0 22)"><tspan x="0" y="0">Paid From</tspan></text><path class="l" d="M0,4.5,4.5,0,9,4.5" transform="translate(263 22.5) rotate(180)"/></g><g transform="translate(13 223)"><rect class="j" width="274" height="36"/><line class="i" x2="274" transform="translate(0 35.5)"/><text class="ad" transform="translate(0 22)"><tspan x="0" y="0">Recipient Account</tspan></text><path class="l" d="M0,4.5,4.5,0,9,4.5" transform="translate(263 22.5) rotate(180)"/></g><g transform="translate(13 295)"><rect class="j" width="274" height="36"/><line class="i" x2="274" transform="translate(0 35.5)"/><text class="ad" transform="translate(0 22)"><tspan x="0" y="0">Comment (optional)</tspan></text><text class="m" transform="translate(274 52)"><tspan x="-30.031" y="0">0/120</tspan></text></g><path class="ac" d="M0,.5H297.828" transform="translate(1 366.5)"/><text class="h" transform="translate(13 395)"><tspan x="0" y="0">Additional Information (Optional)</tspan></text><g transform="translate(0 15)"><text class="ae" transform="translate(16 604.111)"><tspan x="0" y="0">Add Another Payment</tspan></text><g transform="translate(0 594.5)"><g transform="translate(9.95 0) rotate(90)"><path class="af" d="M3.982,4.639,1.154,7.467.446,6.76,3.275,3.932.517,1.174,1.225.467,3.982,3.224,6.739.467l.707.707L4.689,3.931,7.518,6.76l-.707.707Z" transform="translate(4.965 -0.646) rotate(45)"/></g></g></g><g transform="translate(276 382)"><circle class="n" cx="8" cy="8" r="8"/><rect class="o" width="2" height="2" transform="translate(7 3)"/><rect class="o" width="2" height="7" transform="translate(7 5.996)"/></g><g transform="translate(1 410)"><rect class="p" width="298" height="89"/><text class="ag" transform="translate(51 16)"><tspan x="0" y="11">Please note: Additional charges </tspan><tspan x="0" y="28">may apply in the future when </tspan><tspan x="0" y="45">adding additional information.</tspan></text><g transform="translate(12 31)"><g class="f"><rect class="au" width="27" height="28"/><rect class="ah" x="0.5" y="0.5" width="26" height="27"/></g><line class="q" y1="26" x2="25" transform="translate(1 1)"/><line class="q" x2="25" y2="26" transform="translate(1 1)"/></g></g><text class="s" transform="translate(255 551)"><tspan x="0" y="0">Add</tspan></text></g></g><g transform="translate(-15745 6561)"><rect class="ah" width="40" height="40"/><g class="ai"><circle class="au" cx="20" cy="20" r="20"/><circle class="ah" cx="20" cy="20" r="19.5"/></g><g transform="translate(12 12)"><path class="aj" d="M7.371,15.74.26,8.629a.889.889,0,0,1-.153-.2h0L.1,8.407.1,8.4.09,8.389.085,8.379l0-.007L.074,8.355h0a.892.892,0,0,1,0-.708v0l.007-.016,0-.007,0-.01L.1,7.6l0-.006.009-.017h0a.888.888,0,0,1,.153-.2L7.371.26A.889.889,0,0,1,8.629,1.517L3.035,7.111H15.111a.889.889,0,0,1,0,1.778H3.035l5.594,5.594A.889.889,0,0,1,7.371,15.74Z" transform="translate(0 0)"/></g></g><g class="ax" transform="matrix(1, 0, 0, 1, -17035, 6314)"><g class="ak" transform="translate(1280 217)"><rect class="au" width="320" height="1174"/><rect class="ah" x="0.5" y="0.5" width="319" height="1173"/></g></g><g transform="translate(-17136 6293)"><g transform="translate(1381 -921)"><rect width="207" height="43" rx="21.5" transform="translate(57 2040)"/><text class="al" transform="translate(160 2065)"><tspan x="-22.952" y="0">Review</tspan></text></g><g transform="translate(1381 -921)"><g class="f" transform="translate(57 2099)"><rect class="au" width="207" height="43" rx="21.5"/><rect class="ah" x="0.5" y="0.5" width="206" height="42" rx="21"/></g><text class="g" transform="translate(160 2124)"><tspan x="-15.955" y="0">Save</tspan></text></g><g transform="translate(1379.121 -876)"><text class="am" transform="translate(162.879 2124)"><tspan x="-21.79" y="0">Cancel</tspan></text></g></g></g><g transform="translate(0 15)"><path class="an" d="M0,0H12457V59H0Z" transform="translate(0 71)"/><text class="ao" transform="translate(92 107)"><tspan x="0" y="0" xml:space="preserve">5.0 -  Payment Creation flow - Enter Payment - Single Recipient</tspan></text><text class="ap" transform="translate(77 18)"><tspan x="0" y="0">Web Business Banking Modernization - Employee UI</tspan><tspan class="aq"><tspan x="0" y="22">Detailed Wireframe</tspan></tspan></text><g transform="translate(12 2)"><path class="ar" d="M0,43H49V0H0Z"/><g class="as"><rect class="au" width="49" height="43"/><rect class="ah" x="0.5" y="0.5" width="48" height="42"/></g><text class="at" transform="translate(24 26)"><tspan x="-17.458" y="0">DBANK</tspan></text></g></g></g></svg>