<svg xmlns="http://www.w3.org/2000/svg" xmlns:xlink="http://www.w3.org/1999/xlink" width="2774" height="1964" viewBox="0 0 2774 1964"><defs><clipPath id="a"><path d="M20,0A20,20,0,0,0,40-20,20,20,0,0,0,20-40,20,20,0,0,0,0-20,20,20,0,0,0,20,0Z" fill="none"/></clipPath><clipPath id="b"><path d="M0,0H40V-40H0Z" fill="none"/></clipPath><clipPath id="c"><path d="M20,0A20,20,0,0,0,40-20,20,20,0,0,0,20-40,20,20,0,0,0,0-20,20,20,0,0,0,20,0Z" fill="none" clip-rule="evenodd"/></clipPath><clipPath id="e"><path d="M24.537-25.749a.857.857,0,0,1,1.212,0,.857.857,0,0,1,0,1.212h0L21.212-20l4.537,4.537a.857.857,0,0,1,.077,1.124l-.077.088a.857.857,0,0,1-1.212,0h0L20-18.788l-4.537,4.537a.857.857,0,0,1-1.124.077l-.088-.077a.857.857,0,0,1,0-1.212h0L18.788-20l-4.537-4.537a.857.857,0,0,1-.077-1.124l.077-.088a.857.857,0,0,1,1.212,0h0L20-21.212Z" fill="none"/></clipPath><clipPath id="g"><rect width="22" height="22" transform="translate(9 -31)" fill="none"/></clipPath><clipPath id="h"><path d="M13-13H27V-27H13Z" fill="none"/></clipPath><clipPath id="i"><rect width="320" height="1240" transform="translate(1380 195)" fill="#fff" stroke="#707070" stroke-width="1"/></clipPath><filter id="j" x="1395" y="255" width="332" height="1618.972" filterUnits="userSpaceOnUse"><feOffset dy="2" input="SourceAlpha"/><feGaussianBlur stdDeviation="2" result="k"/><feFlood flood-color="#e1e1f6" flood-opacity="0.569"/><feComposite operator="in" in2="k"/><feComposite in="SourceGraphic"/></filter><clipPath id="l"><path d="M8.43,9.4,4.8,5.77,1.171,9.4A.686.686,0,0,1,.2,8.43L3.831,4.8.2,1.171A.686.686,0,0,1,1.171.2L4.8,3.831,8.43.2a.686.686,0,0,1,.969.97L5.77,4.8,9.4,8.43A.685.685,0,1,1,8.43,9.4Z" fill="#1c1c1c"/></clipPath><clipPath id="n"><rect width="2774" height="1964"/></clipPath></defs><g id="m" clip-path="url(#n)"><rect width="2774" height="1964" fill="#fff"/><g transform="translate(91 217)"><rect width="128" height="1334" fill="#ebebeb" stroke="#ccc" stroke-miterlimit="10" stroke-width="1"/><text transform="translate(64 671)" fill="#1c1c1c" font-size="11" font-family="Helvetica"><tspan x="-21.092" y="0">[taskbar]</tspan></text><g transform="translate(0 1234)"><rect width="1280" height="100" fill="#ebebeb" stroke="#ccc" stroke-miterlimit="10" stroke-width="1"/><text transform="translate(640.5 59)" fill="#1c1c1c" font-size="11" font-family="Helvetica"><tspan x="-17.12" y="0">[footer]</tspan></text></g><rect width="1280" height="72" fill="#ebebeb" stroke="#ccc" stroke-miterlimit="10" stroke-width="1"/><text transform="translate(640.5 40)" fill="#1c1c1c" font-size="11" font-family="Helvetica"><tspan x="-37.305" y="0">[top navigation]</tspan></text><rect width="1280" height="1334" fill="none" stroke="#b3b3b3" stroke-miterlimit="10" stroke-width="1"/><text transform="translate(705 178)" fill="#707070" font-size="20" font-family="Helvetica"><tspan x="-24.819" y="0">AT&amp;T</tspan></text><text transform="translate(705 204)" fill="#707070" font-size="16" font-family="Helvetica"><tspan x="-99.91" y="0" xml:space="preserve">Active  |  </tspan><tspan y="0" text-decoration="underline">Suspend Recipient</tspan></text><path d="M0,0H1153V589H0Z" transform="translate(127 72)" fill="none"/><text transform="translate(705 141)" fill="#1c1c1c" font-size="26" font-family="Helvetica-Light, Helvetica" font-weight="300"><tspan x="-98.254" y="0">Recipient Details</tspan></text><g transform="translate(1027 290)"><g fill="#fff" stroke="#979797" stroke-miterlimit="10" stroke-width="1"><rect width="36" height="36" stroke="none"/><rect x="0.5" y="0.5" width="35" height="35" fill="none"/></g><path d="M13.784,16.616H4.216a.835.835,0,0,1-.838-.83v-1.5H1.1A1.1,1.1,0,0,1,0,13.2V6.757A1.1,1.1,0,0,1,1.1,5.67H3.565V.818A.824.824,0,0,1,4.394,0H11.3a.453.453,0,0,1,.406.166l2.5,2.471.054.053a.433.433,0,0,1,.169.4V5.67H16.9A1.1,1.1,0,0,1,18,6.757V13.2a1.1,1.1,0,0,1-1.1,1.087H14.622v1.5A.835.835,0,0,1,13.784,16.616ZM4.336,11.767v3.712h9.328V11.767Zm-.12-.757h9.568a.642.642,0,0,1,.646.637v1.5H16.85V6.807H14.9V9.421a.906.906,0,0,1-.91.9H4.012a.906.906,0,0,1-.91-.9V6.807H1.15V13.15H3.57v-1.5A.642.642,0,0,1,4.216,11.01Zm-.348-4.2V9.421a.143.143,0,0,0,.144.142h9.977a.143.143,0,0,0,.143-.142V6.807H3.868Zm.847-5.673V5.67h8.572V3.831H11.115c-.422,0-.444-.456-.444-.547V1.134Z" transform="translate(9 10)" fill="#1a5336"/><g transform="translate(44)"><g fill="#fff" stroke="#979797" stroke-miterlimit="10" stroke-width="1"><rect width="36" height="36" stroke="none"/><rect x="0.5" y="0.5" width="35" height="35" fill="none"/></g><g transform="translate(11.106 10)"><path d="M6.149,0a.691.691,0,0,0-.688.693V11.436L1.175,7.1a.686.686,0,0,0-1.152.311.7.7,0,0,0,.178.67l5.462,5.5a.855.855,0,0,0,.1.087h.028l.089.049h.041a.38.38,0,0,0,.089.024.57.57,0,0,0,.134,0,.618.618,0,0,0,.138,0,.4.4,0,0,0,.086-.024h.041l.089-.049h.028l.107-.087,5.459-5.5a.7.7,0,0,0,0-.981.685.685,0,0,0-.973,0L6.837,11.419V.693A.691.691,0,0,0,6.149,0Z" transform="translate(0 0)" fill="#1a5336"/><path d="M.688,1.447H11.61A.706.706,0,0,0,12.3.723.706.706,0,0,0,11.61,0H.688A.706.706,0,0,0,0,.723.706.706,0,0,0,.688,1.447Z" transform="translate(0 15.191)" fill="#1a5336"/></g></g></g><g transform="translate(143 125)"><g transform="translate(160 209)" fill="none"><path d="M0,0H804V348H0Z" stroke="none"/><path d="M 1 1 L 1 347 L 803 347 L 803 1 L 1 1 M 0 0 L 804 0 L 804 348 L 0 348 L 0 0 Z" stroke="none" fill="#979797"/></g><g transform="translate(-134.5 311.5)"><text transform="translate(318.5 7.5)" fill="#1c1c1c" font-size="16" font-family="Helvetica"><tspan x="0" y="12">AT&amp;T</tspan></text><text transform="translate(318.5 -9.5)" fill="#1c1c1c" font-size="16" font-family="Helvetica" letter-spacing="0em"><tspan x="0" y="0">Recipient Name</tspan></text></g><g transform="translate(243.5 388.5)"><text transform="translate(318.5 21.5)" fill="#1c1c1c" font-size="16" font-family="Helvetica"><tspan x="0" y="0">English</tspan></text><text transform="translate(318.5 -8.5)" fill="#1c1c1c" font-size="16" font-family="Helvetica" letter-spacing="0em"><tspan x="0" y="0">Language Preference</tspan></text></g><g transform="translate(-134.5 389.5)"><text transform="translate(318.5 7.5)" fill="#1c1c1c" font-size="16" font-family="Helvetica"><tspan x="0" y="12">(444)444-4444</tspan></text><text transform="translate(318.5 -9.5)" fill="#1c1c1c" font-size="16" font-family="Helvetica" letter-spacing="0em"><tspan x="0" y="0">Phone Number</tspan></text></g><g transform="translate(243.5 311.5)"><text transform="translate(318.5 7.5)" fill="#1c1c1c" font-size="16" font-family="Helvetica"><tspan x="0" y="12">atandt@email.com</tspan></text><text transform="translate(318.5 -9.5)" fill="#1c1c1c" font-size="16" font-family="Helvetica" letter-spacing="0em"><tspan x="0" y="0">Email</tspan></text></g><g transform="translate(-134.5 247.5)"><text transform="translate(318.5 -9.5)" fill="#1c1c1c" font-size="16" font-family="Helvetica" letter-spacing="0em"><tspan x="0" y="0">Recipient Information</tspan></text></g><line x2="804" transform="translate(160 257)" fill="none" stroke="#979797" stroke-width="1"/><g transform="translate(-134.5 467.5)"><text transform="translate(318.5 7.5)" fill="#1c1c1c" font-size="16" font-family="Helvetica"><tspan x="0" y="12">55 Commerce Valley Dr W</tspan><tspan x="0" y="32">Thornhill, ON L3T 7V9</tspan><tspan x="0" y="52">Canada</tspan></text><text transform="translate(318.5 -9.5)" fill="#1c1c1c" font-size="16" font-family="Helvetica" letter-spacing="0em"><tspan x="0" y="0">Address</tspan></text></g><g transform="translate(243.5 466.5)"><text transform="translate(318.5 8.5)" fill="#1c1c1c" font-size="16" font-family="Helvetica"><tspan x="0" y="12">Lorem ipsum dolor sit amet, consectetur </tspan><tspan x="0" y="32">adipiscing elit. Mauris quis arcu sed Lore.</tspan></text><text transform="translate(318.5 -8.5)" fill="#1c1c1c" font-size="16" font-family="Helvetica" letter-spacing="0em"><tspan x="0" y="0">Comments</tspan></text></g><g transform="translate(920 217)"><path d="M15.108.908h-.815L3.611,11.589l-.131.2L1.066,18.164l.74.744,6.4-2.386.207-.132L19.094,5.709V4.894ZM4.388,12.651l2.961,2.961-3.379,1.26-.858-.857ZM8.269,14.9,5.1,11.732l9.6-9.6L17.871,5.3Z" transform="translate(5.934 6.092)" fill="#444"/></g></g><g transform="translate(484 1156)"><g fill="#fff" stroke="#707070" stroke-width="1"><rect width="223" height="44" rx="22" stroke="none"/><rect x="0.5" y="0.5" width="222" height="43" rx="21.5" fill="none"/></g><text transform="translate(112 26)" font-size="14" font-family="Helvetica"><tspan x="-68.342" y="0">View Payment History</tspan></text></g><g transform="translate(723 1156)"><g fill="#fff" stroke="#707070" stroke-width="1"><rect width="223" height="44" rx="22" stroke="none"/><rect x="0.5" y="0.5" width="222" height="43" rx="21.5" fill="none"/></g><text transform="translate(112 26)" font-size="14" font-family="Helvetica"><tspan x="-46.686" y="0">Make Payment</tspan></text></g><g transform="translate(159 120)"><rect width="40" height="40" fill="none"/><g fill="#fff" stroke="#f0f4fb" stroke-miterlimit="10" stroke-width="1"><circle cx="20" cy="20" r="20" stroke="none"/><circle cx="20" cy="20" r="19.5" fill="none"/></g><g transform="translate(12 12)"><path d="M7.371,15.74.26,8.629a.889.889,0,0,1-.153-.2h0L.1,8.407.1,8.4.09,8.389.085,8.379l0-.007L.074,8.355h0a.892.892,0,0,1,0-.708v0l.007-.016,0-.007,0-.01L.1,7.6l0-.006.009-.017h0a.888.888,0,0,1,.153-.2L7.371.26A.889.889,0,0,1,8.629,1.517L3.035,7.111H15.111a.889.889,0,0,1,0,1.778H3.035l5.594,5.594A.889.889,0,0,1,7.371,15.74Z" transform="translate(0 0)" fill="#1c1c1c"/></g></g><g transform="translate(1208 116)"><g transform="translate(0 40)" clip-path="url(#a)"><g clip-path="url(#b)"><path d="M20,0A20,20,0,0,0,40-20,20,20,0,0,0,20-40,20,20,0,0,0,0-20,20,20,0,0,0,20,0Z" fill="#fff"/></g></g><g transform="translate(0 40)" clip-path="url(#c)"><g clip-path="url(#b)"><g transform="translate(0 -40)"><path d="M20,40A20,20,0,1,0,0,20,20,20,0,0,0,20,40Z" fill="none" stroke="#f0f3fa" stroke-width="2"/></g></g></g><g transform="translate(0 40)" clip-path="url(#e)"><g clip-path="url(#b)"><g style="isolation:isolate"><g clip-path="url(#g)"><g clip-path="url(#h)"><path d="M9-31H31V-9H9Z" fill="#1b1b1b"/></g></g></g></g></g></g><g transform="translate(143 489)"><g transform="translate(160 209)" fill="#fff"><path d="M 803.5 163.5 L 0.5 163.5 L 0.5 0.5 L 803.5 0.5 L 803.5 163.5 Z" stroke="none"/><path d="M 1 1 L 1 163 L 803 163 L 803 1 L 1 1 M 0 0 L 804 0 L 804 164 L 0 164 L 0 0 Z" stroke="none" fill="#979797"/></g><g transform="translate(-134.5 247.5)"><text transform="translate(318.5 -9.5)" fill="#1c1c1c" font-size="16" font-family="Helvetica" letter-spacing="0em"><tspan x="0" y="0">Account Information</tspan></text></g><g transform="translate(930 224)"><path d="M15.108.908h-.815L3.611,11.589l-.131.2L1.066,18.164l.74.744,6.4-2.386.207-.132L19.094,5.709V4.894ZM4.388,12.651l2.961,2.961-3.379,1.26-.858-.857ZM8.269,14.9,5.1,11.732l9.6-9.6L17.871,5.3Z" transform="translate(-1.066 -0.908)" fill="#444"/></g><g transform="translate(-1 16)"><g transform="translate(11 -32)"><rect width="756" height="44" transform="translate(174 289)" fill="#d3d3d3"/><g transform="translate(-118.5 325.5)"><text transform="translate(316.5 -9.5)" fill="#1c1c1c" font-size="14" font-family="Helvetica" letter-spacing="0em"><tspan x="0" y="0">Bank Code</tspan></text></g><g transform="translate(53.5 325.5)"><text transform="translate(260.5 -9.5)" fill="#1c1c1c" font-size="14" font-family="Helvetica" letter-spacing="0em"><tspan x="0" y="0">Transit Number</tspan></text></g><g transform="translate(-22 14)"><text transform="translate(647 302)" fill="#1c1c1c" font-size="14" font-family="Helvetica" letter-spacing="0em"><tspan x="0" y="0">Contact</tspan></text></g><text transform="translate(466 316)" fill="#1c1c1c" font-size="14" font-family="Helvetica" letter-spacing="0em"><tspan x="0" y="0">Account Number</tspan></text><text transform="translate(775 316)" fill="#1c1c1c" font-size="14" font-family="Helvetica" letter-spacing="0em"><tspan x="0" y="0">Email</tspan></text></g><g transform="translate(-8799 -261)"><rect width="756" height="40" transform="translate(8984 562)" fill="#fff"/><line x2="756" transform="translate(8984 602)" fill="none" stroke="#dadada" stroke-width="1"/><text transform="translate(9008 587)" fill="#1c1c1c" font-size="14" font-family="Helvetica"><tspan x="0" y="0">321</tspan></text><text transform="translate(9124 587)" fill="#1c1c1c" font-size="14" font-family="Helvetica"><tspan x="0" y="0">23433</tspan></text><text transform="translate(9276 587)" fill="#1c1c1c" font-size="14" font-family="Helvetica"><tspan x="0" y="0">536902492</tspan></text><text transform="translate(9435 587)" fill="#1c1c1c" font-size="14" font-family="Helvetica"><tspan x="0" y="0">Dwayne Johnson</tspan></text><text transform="translate(9585 587)" fill="#1c1c1c" font-size="14" font-family="Helvetica"><tspan x="0" y="0">therock@email.com</tspan></text></g></g><line x2="804" transform="translate(160 257)" fill="none" stroke="#979797" stroke-width="1"/></g><g transform="translate(143 669)"><g transform="translate(160 209)" fill="#fff"><path d="M 803.5 245.5 L 0.5 245.5 L 0.5 0.5 L 803.5 0.5 L 803.5 245.5 Z" stroke="none"/><path d="M 1 1 L 1 245 L 803 245 L 803 1 L 1 1 M 0 0 L 804 0 L 804 246 L 0 246 L 0 0 Z" stroke="none" fill="#979797"/></g><g transform="translate(-134.5 247.5)"><text transform="translate(318.5 -9.5)" fill="#1c1c1c" font-size="16" font-family="Helvetica" letter-spacing="0em"><tspan x="0" y="0">Activity Log</tspan></text></g><g transform="translate(0 -6)"><g transform="translate(11 -10)"><rect width="755" height="44" transform="translate(174 289)" fill="#d3d3d3"/><g transform="translate(-118.5 325.5)"><text transform="translate(316.5 -9.5)" fill="#1c1c1c" font-size="14" font-family="Helvetica" letter-spacing="0em"><tspan x="0" y="0">Date</tspan></text></g><g transform="translate(53.5 325.5)"><text transform="translate(315.5 -9.5)" fill="#1c1c1c" font-size="14" font-family="Helvetica" letter-spacing="0em"><tspan x="0" y="0">User</tspan></text></g><g transform="translate(-22 14)"><text transform="translate(682 302)" fill="#1c1c1c" font-size="14" font-family="Helvetica" letter-spacing="0em"><tspan x="0" y="0">Comments</tspan></text></g><text transform="translate(537 316)" fill="#1c1c1c" font-size="14" font-family="Helvetica" letter-spacing="0em"><tspan x="0" y="0">Action</tspan></text></g><g transform="translate(11 -10)"><rect width="755" height="40" transform="translate(174 333)" fill="#fff"/><line x2="755" transform="translate(174 373)" fill="none" stroke="#dadada" stroke-width="1"/><text transform="translate(198 358)" fill="#1c1c1c" font-size="14" font-family="Helvetica"><tspan x="0" y="0">Sep 6, 2020</tspan></text><text transform="translate(369 358)" fill="#1c1c1c" font-size="14" font-family="Helvetica"><tspan x="0" y="0">Taylor Swift</tspan></text><text transform="translate(537 358)" fill="#1c1c1c" font-size="14" font-family="Helvetica"><tspan x="0" y="0">Approve</tspan></text><text transform="translate(660 344)" fill="#1c1c1c" font-size="14" font-family="Helvetica"><tspan x="0" y="11">Looks good.</tspan></text></g><g transform="translate(11 30)"><rect width="755" height="75" transform="translate(174 333)" fill="#fff"/><line x2="752" transform="translate(177 408)" fill="none" stroke="#dadada" stroke-width="1"/><text transform="translate(198 358)" fill="#1c1c1c" font-size="14" font-family="Helvetica"><tspan x="0" y="0">Sep 5, 2020</tspan></text><text transform="translate(369 358)" fill="#1c1c1c" font-size="14" font-family="Helvetica"><tspan x="0" y="0">Bill Dawes</tspan></text><text transform="translate(537 358)" fill="#1c1c1c" font-size="14" font-family="Helvetica"><tspan x="0" y="0">Create</tspan></text><text transform="translate(660 344)" fill="#1c1c1c" font-size="14" font-family="Helvetica"><tspan x="0" y="11">Lorem ipsum dolor sit amet, </tspan><tspan x="0" y="31">consectetur adipiscing elit. Mauris quis </tspan><tspan x="0" y="51">arcu sed Lore.</tspan></text></g></g><line x2="804" transform="translate(160.5 257)" fill="none" stroke="#707070" stroke-width="1"/></g><g transform="translate(593 230)"><g transform="translate(41)" fill="#fff" stroke="#707070" stroke-width="1"><rect width="142" height="44" rx="22" stroke="none"/><rect x="0.5" y="0.5" width="141" height="43" rx="21.5" fill="none"/></g><text transform="translate(112 26)" font-size="14" font-family="Helvetica"><tspan x="-51.362" y="0">Delete Recipient</tspan></text></g></g><g transform="translate(75)"><rect width="1024" height="1964" transform="translate(1676)" fill="#f3f3f3"/><text transform="translate(1744 213)" font-size="16" font-family="Helvetica"><tspan x="0" y="12">This is the second level overlay that can be reached when the user selects a line item under Active Recipients on the </tspan><tspan x="0" y="38">Recipient Landing overlay. This screen provides more detailed information pertaining to the recipient and lists all the </tspan><tspan x="0" y="64">accounts associated with this recipient. The main actions that can be taken on this page are view payment history, make a </tspan><tspan x="0" y="90">payment, and edit recipient details. Additionally, the user may change the status on a recipient by suspending or deleting </tspan><tspan x="0" y="116">them - actions that may require authorization.</tspan></text><g transform="translate(723 8)"><circle cx="15" cy="15" r="15" transform="translate(1027 363)" fill="#ff6127"/><text transform="translate(1038 384)" fill="#fff" font-size="18" font-family="Helvetica"><tspan x="0" y="0">1</tspan></text></g><text transform="translate(1798 371)" font-size="16" font-family="Helvetica"><tspan x="0" y="12">Here, user may chose to ‘Suspend’ of ‘Delete’ a recipient. These actions may require addition authorizations to </tspan><tspan x="0" y="38">complete. Clicking on each text link will prompt the appropriate task flow accordingly. </tspan><tspan x="0" y="64"></tspan><tspan x="0" y="90">Selecting Suspend Recipient will prompt a task flow, allowing the user to add a comment and confirm their action to </tspan><tspan x="0" y="116">suspend. The status of the Recipient will be changed to “Suspended” and the suspend recipient text link will change </tspan><tspan x="0" y="142">to “Reactivate Recipient”.</tspan><tspan x="0" y="168"></tspan><tspan x="0" y="194">Selecting Delete Recipient will prompt a task flow, allowing the user to add a comment and confirm their action to </tspan><tspan x="0" y="220">delete. After deleting a recipient, the recipient will no longer appear on the Recipient Landing page for OU users, </tspan><tspan x="0" y="246">allowing only DBank employees to view the deleted recipient. With this, OU users can find related payment history </tspan><tspan x="0" y="272">for the deleted recipient within the Payments Landing page, if payments have been created for the recipient. Since </tspan><tspan x="0" y="298">deleted recipients cannot be viewed by OU users, only DBank employees will be able to view the optional comment </tspan><tspan x="0" y="324">made by the user that deleted the recipient through the Activity Log table.</tspan></text><g transform="translate(0 6)"><g transform="translate(723 362)"><circle cx="15" cy="15" r="15" transform="translate(1027 363)" fill="#ff6127"/><text transform="translate(1038 384)" fill="#fff" font-size="18" font-family="Helvetica"><tspan x="0" y="0">2</tspan></text></g><g transform="translate(723 464)"><circle cx="15" cy="15" r="15" transform="translate(1027 363)" fill="#ff6127"/><text transform="translate(1038 384)" fill="#fff" font-size="18" font-family="Helvetica"><tspan x="0" y="0">3</tspan></text></g><g transform="translate(723 568)"><circle cx="15" cy="15" r="15" transform="translate(1027 363)" fill="#ff6127"/><text transform="translate(1038 384)" fill="#fff" font-size="18" font-family="Helvetica"><tspan x="0" y="0">4</tspan></text></g><g transform="translate(723 746)"><circle cx="15" cy="15" r="15" transform="translate(1027 363)" fill="#ff6127"/><text transform="translate(1038 384)" fill="#fff" font-size="18" font-family="Helvetica"><tspan x="0" y="0">5</tspan></text></g><g transform="translate(723 900)"><circle cx="15" cy="15" r="15" transform="translate(1027 363)" fill="#ff6127"/><text transform="translate(1038 384)" fill="#fff" font-size="18" font-family="Helvetica"><tspan x="0" y="0">6</tspan></text></g><g transform="translate(723 1005)"><circle cx="15" cy="15" r="15" transform="translate(1027 363)" fill="#ff6127"/><text transform="translate(1038 384)" fill="#fff" font-size="18" font-family="Helvetica"><tspan x="0" y="0">7</tspan></text></g><text transform="translate(1798 725)" font-size="16" font-family="Helvetica"><tspan x="0" y="12">The selection of the edit icon here will prompt the edit recipient information flow starting with the ‘Edit Recipient </tspan><tspan x="0" y="38">Information’ screen which allows the user to make changes to the basic information and address of the recipient. </tspan><tspan x="0" y="64">This action may require authorization to complete.</tspan></text><text transform="translate(1798 827)" font-size="16" font-family="Helvetica"><tspan x="0" y="12">The selection of the edit icon here will prompt the edit account information flow starting with the ‘Edit Account </tspan><tspan x="0" y="38">Information’ screen which allows the user to make changes or add to the account information of the recipient. This </tspan><tspan x="0" y="64">action may require authorization to complete.</tspan></text><text transform="translate(1798 931)" font-size="16" font-family="Helvetica"><tspan x="0" y="12">The final section on this page is the Activity Log of the recipient. This section provides a view into the different </tspan><tspan x="0" y="38">actions that have been made to the recipient, giving insight into creation, editing, approval, and suspension process </tspan><tspan x="0" y="64">of a recipient. Here users will be able to see when recipient has been created, edited, approved, sent back, </tspan><tspan x="0" y="90">suspended, reactivated, and who committed each actions. Authorizers are also able to leave comments during the </tspan><tspan x="0" y="116">approval process of a recipient, as to provide additional detail into the action they took.</tspan></text><text transform="translate(1798 1109)" font-size="16" font-family="Helvetica"><tspan x="0" y="12">The selection of ‘View Payment History’ CTA will take user to the Recipient Payment History overlay where they can </tspan><tspan x="0" y="38">see all the past payments of this recipient.</tspan><tspan x="0" y="64"></tspan><tspan x="0" y="90">Selection of ‘Make Payment’ CTA takes user to the enter payment screen to start the flow for payment creation of a </tspan><tspan x="0" y="116">single recipient. </tspan></text><text transform="translate(1798 1263)" font-size="16" font-family="Helvetica"><tspan x="0" y="12">Since this is the overlay experience, the ‘x’ icon will still be visible for users to action on. If the user clicks on the ‘x’ </tspan><tspan x="0" y="38">icon then it would be essentially like clicking on the icon on Recipient Landing page (first level overlay) which will </tspan><tspan x="0" y="64">take the user back to the Payment Landing page.</tspan></text><text transform="translate(1798 1371)" font-size="16" font-family="Helvetica"><tspan x="0" y="12">The back button is to indicate that the user can go back to the previous step in the overlay experience, which in this </tspan><tspan x="0" y="38">case, is the Recipient Landing overlay.</tspan></text></g></g><g transform="translate(0 26)"><g transform="translate(-378 11)"><circle cx="15" cy="15" r="15" transform="translate(1027 363)" fill="#ff6127"/><text transform="translate(1038 384)" fill="#fff" font-size="18" font-family="Helvetica"><tspan x="0" y="0">1</tspan></text></g><g transform="translate(160 170)"><circle cx="15" cy="15" r="15" transform="translate(1027 363)" fill="#ff6127"/><text transform="translate(1037 384)" fill="#fff" font-size="18" font-family="Helvetica"><tspan x="0" y="0">2</tspan></text></g><g transform="translate(160 535)"><circle cx="15" cy="15" r="15" transform="translate(1027 363)" fill="#ff6127"/><text transform="translate(1037 384)" fill="#fff" font-size="18" font-family="Helvetica"><tspan x="0" y="0">3</tspan></text></g><g transform="translate(-473 988)"><circle cx="15" cy="15" r="15" transform="translate(1027 363)" fill="#ff6127"/><text transform="translate(1037 384)" fill="#fff" font-size="18" font-family="Helvetica"><tspan x="0" y="0">5</tspan></text></g><g transform="translate(-653 712)"><circle cx="15" cy="15" r="15" transform="translate(1027 363)" fill="#ff6127"/><text transform="translate(1037 384)" fill="#fff" font-size="18" font-family="Helvetica"><tspan x="0" y="0">4</tspan></text></g><g transform="translate(-734 -47)"><circle cx="15" cy="15" r="15" transform="translate(1027 363)" fill="#ff6127"/><text transform="translate(1037 384)" fill="#fff" font-size="18" font-family="Helvetica"><tspan x="0" y="0">7</tspan></text></g><g transform="translate(226 -52)"><circle cx="15" cy="15" r="15" transform="translate(1027 363)" fill="#ff6127"/><text transform="translate(1037 384)" fill="#fff" font-size="18" font-family="Helvetica"><tspan x="0" y="0">6</tspan></text></g></g><g transform="translate(0 21)"><g transform="translate(21)" clip-path="url(#i)"><g transform="translate(1380 195)"><g fill="#ebebeb" stroke="#ccc" stroke-miterlimit="10" stroke-width="1"><rect width="320" height="44" stroke="none"/><rect x="0.5" y="0.5" width="319" height="43" fill="none"/></g><text transform="translate(161 25.5)" fill="#1c1c1c" font-size="11" font-family="Helvetica"><tspan x="-37.305" y="0">[top navigation]</tspan></text><g fill="none" stroke="#b3b3b3" stroke-miterlimit="10" stroke-width="1"><rect width="320" height="1241" stroke="none"/><rect x="0.5" y="0.5" width="319" height="1240" fill="none"/></g></g></g><g transform="matrix(1, 0, 0, 1, 0, -21)" filter="url(#j)"><g transform="translate(1401 259)" fill="#fff"><path d="M 319.5 1606.4716796875 L 161.9786071777344 1606.4716796875 L 0.5 1606.4716796875 L 0.5 0.50003981590271 L 319.5 0.50003981590271 L 319.5 1606.4716796875 Z" stroke="none"/><path d="M 1 1 L 1 1605.9716796875 L 319 1605.9716796875 L 319 1 L 1 1 M 0 0 L 320 0 L 320 1606.9716796875 L 0 1606.9716796875 L 0 0 Z" stroke="none" fill="#979797"/></g></g><text transform="translate(1443 305.5)" fill="#1c1c1c" font-size="21" font-family="Helvetica"><tspan x="39.714" y="16">Recipient Details</tspan></text><g transform="translate(1457.598 1640)"><g transform="translate(0 111)" fill="#fff" stroke="#707070" stroke-width="1"><rect width="206.902" height="43" rx="21.5" stroke="none"/><rect x="0.5" y="0.5" width="205.902" height="42" rx="21" fill="none"/></g><text transform="translate(106.23 137)" font-size="14" font-family="Helvetica"><tspan x="-68.342" y="0">View Payment History</tspan></text></g><g transform="translate(1457.598 1520)"><g transform="translate(0 172)" fill="#fff" stroke="#707070" stroke-width="1"><rect width="206.902" height="43" rx="21.5" stroke="none"/><rect x="0.5" y="0.5" width="205.902" height="42" rx="21" fill="none"/></g><text transform="translate(106.23 198)" font-size="14" font-family="Helvetica"><tspan x="-46.686" y="0">Make Payment</tspan></text></g><g transform="translate(1673 494)"><g fill="#fff" stroke="#979797" stroke-miterlimit="10" stroke-width="1"><rect width="36" height="36" stroke="none"/><rect x="0.5" y="0.5" width="35" height="35" fill="none"/></g><g transform="translate(11.106 10)"><path d="M6.149,0a.691.691,0,0,0-.688.693V11.436L1.175,7.1a.686.686,0,0,0-1.152.311.7.7,0,0,0,.178.67l5.462,5.5a.855.855,0,0,0,.1.087h.028l.089.049h.041a.38.38,0,0,0,.089.024.57.57,0,0,0,.134,0,.618.618,0,0,0,.138,0,.4.4,0,0,0,.086-.024h.041l.089-.049h.028l.107-.087,5.459-5.5a.7.7,0,0,0,0-.981.685.685,0,0,0-.973,0L6.837,11.419V.693A.691.691,0,0,0,6.149,0Z" transform="translate(0 0)" fill="#787878"/><path d="M.688,1.447H11.61A.706.706,0,0,0,12.3.723.706.706,0,0,0,11.61,0H.688A.706.706,0,0,0,0,.723.706.706,0,0,0,.688,1.447Z" transform="translate(0 15.191)" fill="#787878"/></g></g><g transform="translate(20 99)"><g transform="translate(1391 467)"><g fill="#fff" stroke="#979797" stroke-miterlimit="10" stroke-width="1"><rect width="300" height="627" stroke="none"/><rect x="0.5" y="0.5" width="299" height="626" fill="none"/></g><g transform="translate(-305.5 323.5)"><text transform="translate(318.5 7.5)" fill="#1c1c1c" font-size="16" font-family="Helvetica"><tspan x="0" y="12">English</tspan></text><text transform="translate(318.5 -9.5)" fill="#1c1c1c" font-size="16" font-family="Helvetica" letter-spacing="0em"><tspan x="0" y="0">Language Preference</tspan></text></g><g transform="translate(-305.5 246.5)"><text transform="translate(318.5 21.5)" fill="#1c1c1c" font-size="16" font-family="Helvetica"><tspan x="0" y="0">(444)444-4444</tspan></text><text transform="translate(318.5 -8.5)" fill="#1c1c1c" font-size="16" font-family="Helvetica" letter-spacing="0em"><tspan x="0" y="0">Phone Number</tspan></text></g><g transform="translate(-305.5 95.5)"><text transform="translate(318.5 20.5)" font-size="16" font-family="Helvetica"><tspan x="0" y="0">AT&amp;T</tspan></text><text transform="translate(318.5 -9.5)" fill="#1c1c1c" font-size="16" font-family="Helvetica" letter-spacing="0em"><tspan x="0" y="0">Recipient Name</tspan></text></g><g transform="translate(7773 -125)"><text transform="translate(-7760 652)" font-size="16" font-family="Helvetica"><tspan x="0" y="12">Lorem ipsum dolor sit amet, </tspan><tspan x="0" y="32">consectetur adipiscing elit. Mauris quis </tspan><tspan x="0" y="52">arcu sed Lore.</tspan></text><text transform="translate(-7760 635)" fill="#1c1c1c" font-size="16" font-family="Helvetica" letter-spacing="0em"><tspan x="0" y="0">Comments</tspan></text></g><g transform="translate(13 147)"><text transform="translate(0 45)" fill="#1c1c1c" font-size="16" font-family="Helvetica"><tspan x="0" y="0">atandt@email.com</tspan></text><text transform="translate(0 15)" fill="#1c1c1c" font-size="16" font-family="Helvetica" letter-spacing="0em"><tspan x="0" y="0">Email</tspan></text></g><g transform="translate(-1391 -539)"><g transform="translate(1085.5 938.5)"><text transform="translate(318.5 7.5)" fill="#1c1c1c" font-size="16" font-family="Helvetica"><tspan x="0" y="12">55 Commerce Valley Dr W</tspan><tspan x="0" y="32">Thornhill, ON L3T 7V9</tspan><tspan x="0" y="52">Canada</tspan></text><text transform="translate(318.5 -9.5)" fill="#1c1c1c" font-size="16" font-family="Helvetica" letter-spacing="0em"><tspan x="0" y="0">Address</tspan></text></g></g></g><path d="M0,.5H297.828" transform="translate(1392 508.961)" fill="none" stroke="#979797" stroke-linecap="square" stroke-miterlimit="10" stroke-width="1"/><text transform="translate(1403.955 481.936)" fill="#1c1c1c" font-size="16" font-family="Helvetica" letter-spacing="0em"><tspan x="0" y="12">Recipient Information</tspan></text><g transform="translate(1655 473)"><path d="M15.108.908h-.815L3.611,11.589l-.131.2L1.066,18.164l.74.744,6.4-2.386.207-.132L19.094,5.709V4.894ZM4.388,12.651l2.961,2.961-3.379,1.26-.858-.857ZM8.269,14.9,5.1,11.732l9.6-9.6L17.871,5.3Z" transform="translate(5.934 6.092)" fill="#444"/></g></g><g transform="translate(0 102)"><g transform="translate(1411 1131)"><g fill="#fff" stroke="#979797" stroke-miterlimit="10" stroke-width="1"><rect width="300" height="137" stroke="none"/><rect x="0.5" y="0.5" width="299" height="136" fill="none"/></g></g><text transform="translate(1423.955 1145.936)" fill="#1c1c1c" font-size="16" font-family="Helvetica" letter-spacing="0em"><tspan x="0" y="12">Account Information</tspan></text><g transform="translate(14343 -17030)"><g transform="translate(-12931 18236)"><rect width="298" height="60" fill="#fff"/><text transform="translate(12 12)" font-size="14" font-family="Helvetica"><tspan x="0" y="11">321</tspan><tspan x="0" y="31">23433</tspan></text><text transform="translate(142 13)" font-size="14" font-family="Helvetica"><tspan x="36.601" y="11">Dwayne Johnson</tspan><tspan x="20.085" y="31">therock@gmail.com</tspan></text></g><g transform="translate(-12931 18204)"><rect width="298" height="32" fill="#e6e6e6"/><text transform="translate(12 21)" font-size="14" font-family="Helvetica"><tspan x="0" y="0">Account 536902492</tspan></text></g></g><path d="M0,.5H297.828" transform="translate(1412 1172.961)" fill="none" stroke="#979797" stroke-linecap="square" stroke-miterlimit="10" stroke-width="1"/><g transform="translate(1675 1136)"><path d="M15.108.908h-.815L3.611,11.589l-.131.2L1.066,18.164l.74.744,6.4-2.386.207-.132L19.094,5.709V4.894ZM4.388,12.651l2.961,2.961-3.379,1.26-.858-.857ZM8.269,14.9,5.1,11.732l9.6-9.6L17.871,5.3Z" transform="translate(5.934 6.092)" fill="#444"/></g></g><g transform="translate(0 279)"><g transform="translate(1411 1131)"><g fill="#fff" stroke="#979797" stroke-miterlimit="10" stroke-width="1"><rect width="300" height="242" stroke="none"/><rect x="0.5" y="0.5" width="299" height="241" fill="none"/></g></g><text transform="translate(1423.955 1145.936)" fill="#1c1c1c" font-size="16" font-family="Helvetica" letter-spacing="0em"><tspan x="0" y="12">Activity Log</tspan></text><g transform="translate(14343 -17030)"><g transform="translate(-12931 18236)"><rect width="298" height="60" fill="#fff"/><text transform="translate(12 12)" font-size="14" font-family="Helvetica"><tspan x="0" y="11">Taylor Swift</tspan><tspan x="0" y="31">Approve</tspan></text><text transform="translate(142 13)" font-size="14" font-family="Helvetica"><tspan x="67.718" y="11">Looks good.</tspan></text></g><g transform="translate(-12931 18204)"><rect width="298" height="32" fill="#e6e6e6"/><text transform="translate(12 21)" font-size="14" font-family="Helvetica"><tspan x="0" y="0">Sep 6, 2020</tspan></text></g></g><g transform="translate(14343 -16938)"><g transform="translate(-12931 18236)"><rect width="298" height="74" fill="#fff"/><text transform="translate(12 12)" font-size="14" font-family="Helvetica"><tspan x="0" y="11">Bill Dawes</tspan><tspan x="0" y="31">Create</tspan></text><text transform="translate(142 10)" font-size="14" font-family="Helvetica"><tspan x="10.173" y="11">Lorem ipsum dolor sit </tspan><tspan x="32.725" y="31">amet, consectetur </tspan><tspan x="45.952" y="51">adipiscing elit…</tspan></text></g><g transform="translate(-12931 18204)"><rect width="298" height="32" fill="#e6e6e6"/><text transform="translate(12 21)" font-size="14" font-family="Helvetica"><tspan x="0" y="0">Sep 5, 2020</tspan></text></g></g><path d="M0,.5H297.828" transform="translate(1412 1172.961)" fill="none" stroke="#979797" stroke-linecap="square" stroke-miterlimit="10" stroke-width="1"/></g><text transform="translate(1561 360)" fill="#707070" font-size="20" font-family="HelveticaNeue, Helvetica Neue"><tspan x="-23.34" y="0">AT&amp;T</tspan></text><text transform="translate(1562 391)" fill="#707070" font-size="16" font-family="Helvetica"><tspan x="-99.91" y="0" xml:space="preserve">Active  |  </tspan><tspan y="0" text-decoration="underline">Suspend Recipient</tspan></text><g transform="translate(1417 246)"><g fill="#fff" stroke="#f0f4fb" stroke-miterlimit="10" stroke-width="1"><circle cx="16" cy="16" r="16" stroke="none"/><circle cx="16" cy="16" r="15.5" fill="none"/></g><g transform="translate(9.6 9.6)"><path d="M5.9,12.592.208,6.9a.711.711,0,0,1-.122-.164h0L.079,6.725l0,0,0-.01,0-.008,0-.006L.059,6.684h0a.714.714,0,0,1,0-.567h0L.065,6.1l0-.006,0-.008,0-.01,0,0,.007-.013h0A.711.711,0,0,1,.208,5.9L5.9.208A.711.711,0,0,1,6.9,1.214L2.428,5.689h9.661a.711.711,0,0,1,0,1.422H2.428L6.9,11.586A.711.711,0,0,1,5.9,12.592Z" transform="translate(0 0)" fill="#1c1c1c"/></g></g><g transform="translate(1673 246)"><rect width="32" height="32" fill="none"/><g fill="#fff" stroke="#f0f4fb" stroke-miterlimit="10" stroke-width="1"><circle cx="16" cy="16" r="16" stroke="none"/><circle cx="16" cy="16" r="15.5" fill="none"/></g><g transform="translate(11.2 11.2)"><path d="M8.43,9.4,4.8,5.77,1.171,9.4A.686.686,0,0,1,.2,8.43L3.831,4.8.2,1.171A.686.686,0,0,1,1.171.2L4.8,3.831,8.43.2a.686.686,0,0,1,.969.97L5.77,4.8,9.4,8.43A.685.685,0,1,1,8.43,9.4Z" fill="#1c1c1c"/></g></g><g transform="translate(1449 418)"><g transform="translate(41)" fill="#fff" stroke="#707070" stroke-width="1"><rect width="142" height="44" rx="22" stroke="none"/><rect x="0.5" y="0.5" width="141" height="43" rx="21.5" fill="none"/></g><text transform="translate(112 26)" font-size="14" font-family="Helvetica"><tspan x="-51.362" y="0">Delete Recipient</tspan></text></g></g><g transform="translate(0 30)"><path d="M0,0H2775V59H0Z" transform="translate(0 71)" fill="#171e52"/><text transform="translate(92 107)" fill="#fff" font-size="21" font-family="LaoMN, Lao MN"><tspan x="0" y="0">2.0 - Recipients Detail Overlay - Active Recipient</tspan></text><text transform="translate(77 18)" font-size="20" font-family="LaoMN, Lao MN"><tspan x="0" y="0">DBank Business Gateway — Recipient Management (Interac e-Transfer Send)</tspan><tspan font-size="16"><tspan x="0" y="22">Detailed Design</tspan></tspan></text><g transform="translate(12 2)"><path d="M0,43H49V0H0Z" fill="#34b234"/><g fill="#171e52" stroke="#707070" stroke-width="1"><rect width="49" height="43" stroke="none"/><rect x="0.5" y="0.5" width="48" height="42" fill="none"/></g><text transform="translate(24 26)" fill="#fff" font-size="10" font-family="LaoMN, Lao MN"><tspan x="-17.458" y="0">DBANK</tspan></text></g></g></g></svg>