<svg xmlns="http://www.w3.org/2000/svg" xmlns:xlink="http://www.w3.org/1999/xlink" width="2774" height="1669" viewBox="0 0 2774 1669"><defs><clipPath id="a"><rect width="1116" height="201" fill="none"/></clipPath><clipPath id="b"><path d="M20,0A20,20,0,0,0,40-20,20,20,0,0,0,20-40,20,20,0,0,0,0-20,20,20,0,0,0,20,0Z" fill="none"/></clipPath><clipPath id="c"><path d="M0,0H40V-40H0Z" fill="none"/></clipPath><clipPath id="d"><path d="M20,0A20,20,0,0,0,40-20,20,20,0,0,0,20-40,20,20,0,0,0,0-20,20,20,0,0,0,20,0Z" fill="none" clip-rule="evenodd"/></clipPath><clipPath id="f"><path d="M24.537-25.749a.857.857,0,0,1,1.212,0,.857.857,0,0,1,0,1.212h0L21.212-20l4.537,4.537a.857.857,0,0,1,.077,1.124l-.077.088a.857.857,0,0,1-1.212,0h0L20-18.788l-4.537,4.537a.857.857,0,0,1-1.124.077l-.088-.077a.857.857,0,0,1,0-1.212h0L18.788-20l-4.537-4.537a.857.857,0,0,1-.077-1.124l.077-.088a.857.857,0,0,1,1.212,0h0L20-21.212Z" fill="none"/></clipPath><clipPath id="h"><rect width="22" height="22" transform="translate(9 -31)" fill="none"/></clipPath><clipPath id="i"><path d="M13-13H27V-27H13Z" fill="none"/></clipPath><clipPath id="j"><path d="M8.43,9.4,4.8,5.77,1.171,9.4A.686.686,0,0,1,.2,8.43L3.831,4.8.2,1.171A.686.686,0,0,1,1.171.2L4.8,3.831,8.43.2a.686.686,0,0,1,.969.97L5.77,4.8,9.4,8.43A.685.685,0,1,1,8.43,9.4Z" fill="#1c1c1c"/></clipPath><clipPath id="l"><rect width="2774" height="1669"/></clipPath></defs><g id="k" clip-path="url(#l)"><rect width="2774" height="1669" fill="#fff"/><text transform="translate(1411 371)" fill="#707070" font-size="20" font-family="HelveticaNeue, Helvetica Neue"><tspan x="89.62" y="19">AT&amp;T - Active</tspan></text><g transform="translate(91 216)"><rect width="128" height="1300" fill="#ebebeb" stroke="#ccc" stroke-miterlimit="10" stroke-width="1"/><text transform="translate(64 654)" fill="#1c1c1c" font-size="11" font-family="Helvetica"><tspan x="-21.092" y="0">[taskbar]</tspan></text><rect width="1280" height="100" transform="translate(0 1200)" fill="#ebebeb" stroke="#ccc" stroke-miterlimit="10" stroke-width="1"/><text transform="translate(640.5 1259)" fill="#1c1c1c" font-size="11" font-family="Helvetica"><tspan x="-17.12" y="0">[footer]</tspan></text><rect width="1280" height="72" fill="#ebebeb" stroke="#ccc" stroke-miterlimit="10" stroke-width="1"/><text transform="translate(640.5 40)" fill="#1c1c1c" font-size="11" font-family="Helvetica"><tspan x="-37.305" y="0">[top navigation]</tspan></text><rect width="1280" height="1300" fill="none" stroke="#b3b3b3" stroke-miterlimit="10" stroke-width="1"/><g transform="translate(0 -403)"><g transform="translate(161 735)"><path d="M0,1.976A1.988,1.988,0,0,1,2,0H1087a1.988,1.988,0,0,1,2,1.976V487.024a1.988,1.988,0,0,1-2,1.976H2a1.988,1.988,0,0,1-2-1.976Z" fill="#fff"/><rect width="1089" height="55" fill="#fafafa"/><text transform="translate(915 32.5)" fill="#1c1c1c" font-size="14" font-family="Helvetica"><tspan x="0" y="0">Status</tspan></text><text transform="translate(169 32.5)" fill="#1c1c1c" font-size="14" font-family="Helvetica"><tspan x="0" y="0">Authorization Date</tspan></text><text transform="translate(503 32.5)" fill="#1c1c1c" font-size="15" font-family="Helvetica"><tspan x="0" y="0">Sent From</tspan></text><text transform="translate(351 32.5)" fill="#1c1c1c" font-size="14" font-family="Helvetica"><tspan x="0" y="0">Payment Creator</tspan></text><text transform="translate(32 32.5)" fill="#1c1c1c" font-size="14" font-family="Helvetica"><tspan x="0" y="0">Creation Date</tspan></text><text transform="translate(725 32.5)" fill="#1c1c1c" font-size="15" font-family="Helvetica"><tspan x="0" y="0">Amount</tspan></text><rect width="1089" height="40" transform="translate(0 55)" fill="#fff"/><text transform="translate(169 68)" fill="#1c1c1c" font-size="14" font-family="Helvetica"><tspan x="0" y="11">Dec 20, 2020</tspan></text><text transform="translate(32 80)" fill="#1c1c1c" font-size="14" font-family="Helvetica"><tspan x="0" y="0">Dec 18, 2020</tspan></text><text transform="translate(916 68)" fill="#1c1c1c" font-size="14" font-family="Helvetica"><tspan x="0" y="11">Completed</tspan></text><rect width="1089" height="1" transform="translate(0 55)" fill="#e0e0e5"/><text transform="translate(352 68)" fill="#1c1c1c" font-size="14" font-family="Helvetica"><tspan x="0" y="11">Jimmy Buffet</tspan></text><text transform="translate(503 68)" fill="#1c1c1c" font-size="14" font-family="Helvetica"><tspan x="0" y="11">321- 23433- 536902492</tspan></text><text transform="translate(725 68)" fill="#1c1c1c" font-size="14" font-family="Helvetica"><tspan x="0" y="11">2,314.22 CAD</tspan></text><rect width="1089" height="40" transform="translate(0 95)" fill="#fff"/><text transform="translate(169 108)" fill="#1c1c1c" font-size="14" font-family="Helvetica"><tspan x="0" y="11">Dec 13, 2020</tspan></text><text transform="translate(32 120)" fill="#1c1c1c" font-size="14" font-family="Helvetica"><tspan x="0" y="0">Dec 7, 2020</tspan></text><text transform="translate(916 108)" fill="#1c1c1c" font-size="14" font-family="Helvetica"><tspan x="0" y="11">Completed</tspan></text><rect width="1089" height="1" transform="translate(0 95)" fill="#e0e0e5"/><text transform="translate(352 108)" fill="#1c1c1c" font-size="14" font-family="Helvetica"><tspan x="0" y="11">Jimmy Buffet</tspan></text><text transform="translate(503 108)" fill="#1c1c1c" font-size="14" font-family="Helvetica"><tspan x="0" y="11">321- 23433- 536902492</tspan></text><text transform="translate(725 108)" fill="#1c1c1c" font-size="14" font-family="Helvetica"><tspan x="0" y="11">2,314.22 CAD</tspan></text><rect width="1089" height="40" transform="translate(0 135)" fill="#fff"/><text transform="translate(169 148)" fill="#1c1c1c" font-size="14" font-family="Helvetica"><tspan x="0" y="11">-</tspan></text><text transform="translate(32 160)" fill="#1c1c1c" font-size="14" font-family="Helvetica"><tspan x="0" y="0">Dec 5, 2020</tspan></text><text transform="translate(916 148)" fill="#1c1c1c" font-size="14" font-family="Helvetica"><tspan x="0" y="11">Pending</tspan></text><rect width="1089" height="1" transform="translate(0 135)" fill="#e0e0e5"/><text transform="translate(352 148)" fill="#1c1c1c" font-size="14" font-family="Helvetica"><tspan x="0" y="11">Jimmy Buffet</tspan></text><text transform="translate(503 148)" fill="#1c1c1c" font-size="14" font-family="Helvetica"><tspan x="0" y="11">321- 23433- 536902492</tspan></text><text transform="translate(725 148)" fill="#1c1c1c" font-size="14" font-family="Helvetica"><tspan x="0" y="11">2,314.22 CAD</tspan></text><rect width="1089" height="40" transform="translate(0 175)" fill="#fff"/><text transform="translate(169 188)" fill="#1c1c1c" font-size="14" font-family="Helvetica"><tspan x="0" y="11">Dec 1, 2020</tspan></text><text transform="translate(32 200)" fill="#1c1c1c" font-size="14" font-family="Helvetica"><tspan x="0" y="0">Nov 23, 2020</tspan></text><text transform="translate(916 188)" fill="#1c1c1c" font-size="14" font-family="Helvetica"><tspan x="0" y="11">Declined</tspan></text><rect width="1089" height="1" transform="translate(0 175)" fill="#e0e0e5"/><text transform="translate(352 188)" fill="#1c1c1c" font-size="14" font-family="Helvetica"><tspan x="0" y="11">Jimmy Buffet</tspan></text><text transform="translate(503 188)" fill="#1c1c1c" font-size="14" font-family="Helvetica"><tspan x="0" y="11">321- 23433- 536902492</tspan></text><text transform="translate(725 188)" fill="#1c1c1c" font-size="14" font-family="Helvetica"><tspan x="0" y="11">2,314.22 CAD</tspan></text><rect width="1089" height="40" transform="translate(0 215)" fill="#fff"/><text transform="translate(169 228)" fill="#1c1c1c" font-size="14" font-family="Helvetica"><tspan x="0" y="11">Nov 24, 2020</tspan></text><text transform="translate(32 240)" fill="#1c1c1c" font-size="14" font-family="Helvetica"><tspan x="0" y="0">Nov 23, 2020</tspan></text><text transform="translate(916 228)" fill="#1c1c1c" font-size="14" font-family="Helvetica"><tspan x="0" y="11">Completed</tspan></text><rect width="1089" height="1" transform="translate(0 215)" fill="#e0e0e5"/><text transform="translate(352 228)" fill="#1c1c1c" font-size="14" font-family="Helvetica"><tspan x="0" y="11">Jimmy Buffet</tspan></text><text transform="translate(503 228)" fill="#1c1c1c" font-size="14" font-family="Helvetica"><tspan x="0" y="11">321- 23433- 536902492</tspan></text><text transform="translate(725 228)" fill="#1c1c1c" font-size="14" font-family="Helvetica"><tspan x="0" y="11">2,314.22 CAD</tspan></text><rect width="1089" height="40" transform="translate(0 255)" fill="#fff"/><text transform="translate(169 268)" fill="#1c1c1c" font-size="14" font-family="Helvetica"><tspan x="0" y="11">-</tspan></text><text transform="translate(32 280)" fill="#1c1c1c" font-size="14" font-family="Helvetica"><tspan x="0" y="0">Nov 23, 2020</tspan></text><text transform="translate(916 268)" fill="#1c1c1c" font-size="14" font-family="Helvetica"><tspan x="0" y="11">Pending</tspan></text><rect width="1089" height="1" transform="translate(0 255)" fill="#e0e0e5"/><text transform="translate(352 268)" fill="#1c1c1c" font-size="14" font-family="Helvetica"><tspan x="0" y="11">Jimmy Buffet</tspan></text><text transform="translate(503 268)" fill="#1c1c1c" font-size="14" font-family="Helvetica"><tspan x="0" y="11">321- 23433- 536902492</tspan></text><text transform="translate(725 268)" fill="#1c1c1c" font-size="14" font-family="Helvetica"><tspan x="0" y="11">2,314.22 CAD</tspan></text><rect width="1089" height="40" transform="translate(0 295)" fill="#fff"/><text transform="translate(169 308)" fill="#1c1c1c" font-size="14" font-family="Helvetica"><tspan x="0" y="11">Nov 18, 2020</tspan></text><text transform="translate(32 320)" fill="#1c1c1c" font-size="14" font-family="Helvetica"><tspan x="0" y="0">Nov 14, 2020</tspan></text><text transform="translate(916 308)" fill="#1c1c1c" font-size="14" font-family="Helvetica"><tspan x="0" y="11">Completed</tspan></text><rect width="1089" height="1" transform="translate(0 295)" fill="#e0e0e5"/><text transform="translate(352 308)" fill="#1c1c1c" font-size="14" font-family="Helvetica"><tspan x="0" y="11">Jimmy Buffet</tspan></text><text transform="translate(503 308)" fill="#1c1c1c" font-size="14" font-family="Helvetica"><tspan x="0" y="11">321- 23433- 536902492</tspan></text><text transform="translate(725 308)" fill="#1c1c1c" font-size="14" font-family="Helvetica"><tspan x="0" y="11">2,314.22 CAD</tspan></text><rect width="1089" height="40" transform="translate(0 335)" fill="#fff"/><text transform="translate(169 348)" fill="#1c1c1c" font-size="14" font-family="Helvetica"><tspan x="0" y="11">-</tspan></text><text transform="translate(32 360)" fill="#1c1c1c" font-size="14" font-family="Helvetica"><tspan x="0" y="0">Nov 14, 2020</tspan></text><text transform="translate(916 348)" fill="#1c1c1c" font-size="14" font-family="Helvetica"><tspan x="0" y="11">Pending</tspan></text><rect width="1089" height="1" transform="translate(0 335)" fill="#e0e0e5"/><text transform="translate(352 348)" fill="#1c1c1c" font-size="14" font-family="Helvetica"><tspan x="0" y="11">Jimmy Buffet</tspan></text><text transform="translate(503 348)" fill="#1c1c1c" font-size="14" font-family="Helvetica"><tspan x="0" y="11">321- 23433- 536902492</tspan></text><text transform="translate(725 348)" fill="#1c1c1c" font-size="14" font-family="Helvetica"><tspan x="0" y="11">2,314.22 CAD</tspan></text><rect width="1089" height="40" transform="translate(0 375)" fill="#fff"/><text transform="translate(169 388)" fill="#1c1c1c" font-size="14" font-family="Helvetica"><tspan x="0" y="11">Nov 10, 2020</tspan></text><text transform="translate(32 400)" fill="#1c1c1c" font-size="14" font-family="Helvetica"><tspan x="0" y="0">Nov 9, 2020</tspan></text><text transform="translate(916 388)" fill="#1c1c1c" font-size="14" font-family="Helvetica"><tspan x="0" y="11">Completed</tspan></text><rect width="1089" height="1" transform="translate(0 375)" fill="#e0e0e5"/><text transform="translate(352 388)" fill="#1c1c1c" font-size="14" font-family="Helvetica"><tspan x="0" y="11">Jimmy Buffet</tspan></text><text transform="translate(503 388)" fill="#1c1c1c" font-size="14" font-family="Helvetica"><tspan x="0" y="11">321- 23433- 536902492</tspan></text><text transform="translate(725 388)" fill="#1c1c1c" font-size="14" font-family="Helvetica"><tspan x="0" y="11">2,314.22 CAD</tspan></text><rect width="1089" height="40" transform="translate(0 415)" fill="#fff"/><text transform="translate(169 428)" fill="#1c1c1c" font-size="14" font-family="Helvetica"><tspan x="0" y="11">Nov 2, 2020</tspan></text><text transform="translate(32 440)" fill="#1c1c1c" font-size="14" font-family="Helvetica"><tspan x="0" y="0">Oct 31, 2020</tspan></text><text transform="translate(916 428)" fill="#1c1c1c" font-size="14" font-family="Helvetica"><tspan x="0" y="11">Completed</tspan></text><rect width="1089" height="1" transform="translate(0 415)" fill="#e0e0e5"/><text transform="translate(352 428)" fill="#1c1c1c" font-size="14" font-family="Helvetica"><tspan x="0" y="11">Jimmy Buffet</tspan></text><text transform="translate(503 428)" fill="#1c1c1c" font-size="14" font-family="Helvetica"><tspan x="0" y="11">321- 23433- 536902492</tspan></text><text transform="translate(725 428)" fill="#1c1c1c" font-size="14" font-family="Helvetica"><tspan x="0" y="11">2,314.22 CAD</tspan></text><g transform="translate(0 455)" clip-path="url(#a)"><g transform="translate(0 -455)"><rect width="1089" height="40" transform="translate(0 455)" fill="#fff"/><text transform="translate(169 468)" fill="#1c1c1c" font-size="14" font-family="Helvetica"><tspan x="0" y="11">Oct 21, 2020</tspan></text><text transform="translate(32 480)" fill="#1c1c1c" font-size="14" font-family="Helvetica"><tspan x="0" y="0">Oct 13, 2020</tspan></text><text transform="translate(916 468)" fill="#1c1c1c" font-size="14" font-family="Helvetica"><tspan x="0" y="11">Completed</tspan></text><rect width="1089" height="1" transform="translate(0 455)" fill="#e0e0e5"/><text transform="translate(352 468)" fill="#1c1c1c" font-size="14" font-family="Helvetica"><tspan x="0" y="11">Jimmy Buffet</tspan></text><text transform="translate(503 468)" fill="#1c1c1c" font-size="14" font-family="Helvetica"><tspan x="0" y="11">321- 23433- 536902492</tspan></text><text transform="translate(725 468)" fill="#1c1c1c" font-size="14" font-family="Helvetica"><tspan x="0" y="11">2,314.22 CAD</tspan></text></g><g transform="translate(0 -415)"><rect width="1089" height="40" transform="translate(0 455)" fill="#fff"/><text transform="translate(169 468)" fill="#1c1c1c" font-size="14" font-family="Helvetica"><tspan x="0" y="11">Oct 12, 2020</tspan></text><text transform="translate(32 480)" fill="#1c1c1c" font-size="14" font-family="Helvetica"><tspan x="0" y="0">Oct 3, 2020</tspan></text><text transform="translate(916 468)" fill="#1c1c1c" font-size="14" font-family="Helvetica"><tspan x="0" y="11">Completed</tspan></text><rect width="1089" height="1" transform="translate(0 455)" fill="#e0e0e5"/><text transform="translate(352 468)" fill="#1c1c1c" font-size="14" font-family="Helvetica"><tspan x="0" y="11">Jimmy Buffet</tspan></text><text transform="translate(503 468)" fill="#1c1c1c" font-size="14" font-family="Helvetica"><tspan x="0" y="11">321- 23433- 536902492</tspan></text><text transform="translate(725 468)" fill="#1c1c1c" font-size="14" font-family="Helvetica"><tspan x="0" y="11">2,314.22 CAD</tspan></text></g><g transform="translate(0 -375)"><rect width="1089" height="40" transform="translate(0 455)" fill="#fff"/><text transform="translate(169 468)" fill="#1c1c1c" font-size="14" font-family="Helvetica"><tspan x="0" y="11">Oct 9, 2020</tspan></text><text transform="translate(32 480)" fill="#1c1c1c" font-size="14" font-family="Helvetica"><tspan x="0" y="0">Oct 1, 2020</tspan></text><text transform="translate(916 468)" fill="#1c1c1c" font-size="14" font-family="Helvetica"><tspan x="0" y="11">Completed</tspan></text><rect width="1089" height="1" transform="translate(0 455)" fill="#e0e0e5"/><text transform="translate(352 468)" fill="#1c1c1c" font-size="14" font-family="Helvetica"><tspan x="0" y="11">Jimmy Buffet</tspan></text><text transform="translate(503 468)" fill="#1c1c1c" font-size="14" font-family="Helvetica"><tspan x="0" y="11">321- 23433- 536902492</tspan></text><text transform="translate(725 468)" fill="#1c1c1c" font-size="14" font-family="Helvetica"><tspan x="0" y="11">2,314.22 CAD</tspan></text></g><g transform="translate(0 -335)"><rect width="1089" height="40" transform="translate(0 455)" fill="#fff"/><text transform="translate(169 468)" fill="#1c1c1c" font-size="14" font-family="Helvetica"><tspan x="0" y="11">Oct 8, 2020</tspan></text><text transform="translate(32 480)" fill="#1c1c1c" font-size="14" font-family="Helvetica"><tspan x="0" y="0">Sept 31, 2020</tspan></text><text transform="translate(916 468)" fill="#1c1c1c" font-size="14" font-family="Helvetica"><tspan x="0" y="11">Completed</tspan></text><rect width="1089" height="1" transform="translate(0 455)" fill="#e0e0e5"/><text transform="translate(352 468)" fill="#1c1c1c" font-size="14" font-family="Helvetica"><tspan x="0" y="11">Jimmy Buffet</tspan></text><text transform="translate(503 468)" fill="#1c1c1c" font-size="14" font-family="Helvetica"><tspan x="0" y="11">321- 23433- 536902492</tspan></text><text transform="translate(725 468)" fill="#1c1c1c" font-size="14" font-family="Helvetica"><tspan x="0" y="11">2,314.22 CAD</tspan></text></g><g transform="translate(0 -295)"><rect width="1089" height="40" transform="translate(0 455)" fill="#fff"/><text transform="translate(169 468)" fill="#1c1c1c" font-size="14" font-family="Helvetica"><tspan x="0" y="11">Oct 1, 2020</tspan></text><text transform="translate(32 480)" fill="#1c1c1c" font-size="14" font-family="Helvetica"><tspan x="0" y="0">Sep 31, 2020</tspan></text><text transform="translate(916 468)" fill="#1c1c1c" font-size="14" font-family="Helvetica"><tspan x="0" y="11">Completed</tspan></text><rect width="1089" height="1" transform="translate(0 455)" fill="#e0e0e5"/><text transform="translate(352 468)" fill="#1c1c1c" font-size="14" font-family="Helvetica"><tspan x="0" y="11">Jimmy Buffet</tspan></text><text transform="translate(503 468)" fill="#1c1c1c" font-size="14" font-family="Helvetica"><tspan x="0" y="11">321- 23433- 536902492</tspan></text><text transform="translate(725 468)" fill="#1c1c1c" font-size="14" font-family="Helvetica"><tspan x="0" y="11">2,314.22 CAD</tspan></text></g><g transform="translate(0 -255)"><rect width="1089" height="40" transform="translate(0 455)" fill="#fff"/><text transform="translate(169 468)" fill="#1c1c1c" font-size="14" font-family="Helvetica"><tspan x="0" y="11">Jimmy Buffet</tspan></text><text transform="translate(32 480)" fill="#1c1c1c" font-size="14" font-family="Helvetica"><tspan x="0" y="0">Oct 31, 2020</tspan></text><text transform="translate(916 468)" fill="#1c1c1c" font-size="14" font-family="Helvetica"><tspan x="0" y="11">Completed</tspan></text><rect width="1089" height="1" transform="translate(0 455)" fill="#e0e0e5"/><text transform="translate(352 468)" fill="#1c1c1c" font-size="14" font-family="Helvetica"><tspan x="0" y="11">Nov 2, 2020</tspan></text><text transform="translate(503 468)" fill="#1c1c1c" font-size="14" font-family="Helvetica"><tspan x="0" y="11">321- 23433- 536902492</tspan></text><text transform="translate(725 468)" fill="#1c1c1c" font-size="14" font-family="Helvetica"><tspan x="0" y="11">2,314.22 CAD</tspan></text></g></g></g><g transform="translate(994 652)"><g transform="translate(0 31)"><rect width="256" height="36" fill="#fff"/><line x2="256" transform="translate(0 35.5)" fill="none" stroke="#979797" stroke-width="1"/><g transform="translate(235 16)"><path d="M-1.57-2.29l4.5-4.5,4.5,4.5" transform="translate(7.43 -2.29) rotate(180)" fill="none" stroke="#4a4a4a" stroke-linecap="round" stroke-linejoin="round" stroke-width="2"/></g><text transform="translate(0 22)" fill="#797979" font-size="14" font-family="Helvetica" letter-spacing="0em"><tspan x="0" y="0">Select</tspan></text></g><text transform="translate(0 12)" font-size="14" font-family="Helvetica"><tspan x="0" y="0">Date Range</tspan></text></g><g transform="translate(229 695)"><g transform="translate(232)"><g fill="#d8d8d8" stroke="#797979" stroke-miterlimit="10" stroke-width="1"><circle cx="12" cy="12" r="12" stroke="none"/><circle cx="12" cy="12" r="11.5" fill="none"/></g><path d="M7.792,4.125H11V.917h-.458V3.3a5.5,5.5,0,1,0,.44,2.658h-.46A5.04,5.04,0,1,1,10.2,3.667H7.792Z" transform="translate(6.5 7)" fill="#787878" stroke="#787878" stroke-width="1" fill-rule="evenodd"/></g><text transform="translate(224 17)" font-size="14" font-family="Helvetica"><tspan x="-105.841" y="0">at 10:42 AM EST</tspan></text><text transform="translate(114 17)" font-size="14" font-family="Helvetica"><tspan x="-109.484" y="0">As of Thu, Jan 30</tspan></text></g><text transform="translate(215 712)" font-size="14" font-family="Helvetica"><tspan x="-50.572" y="0">Current:</tspan></text></g><text transform="translate(698 146)" fill="#1c1c1c" font-size="26" font-family="Helvetica-Light, Helvetica" font-weight="300"><tspan x="-153.387" y="0">Recipient Payment History</tspan></text><text transform="translate(671 187)" fill="#707070" font-size="20" font-family="Helvetica"><tspan x="0" y="0">AT&amp;T</tspan></text><g transform="translate(1208 125)"><g transform="translate(0 40)" clip-path="url(#b)"><g clip-path="url(#c)"><path d="M20,0A20,20,0,0,0,40-20,20,20,0,0,0,20-40,20,20,0,0,0,0-20,20,20,0,0,0,20,0Z" fill="#fff"/></g></g><g transform="translate(0 40)" clip-path="url(#d)"><g clip-path="url(#c)"><g transform="translate(0 -40)"><path d="M20,40A20,20,0,1,0,0,20,20,20,0,0,0,20,40Z" fill="none" stroke="#f0f3fa" stroke-width="2"/></g></g></g><g transform="translate(0 40)" clip-path="url(#f)"><g clip-path="url(#c)"><g style="isolation:isolate"><g clip-path="url(#h)"><g clip-path="url(#i)"><path d="M9-31H31V-9H9Z" fill="#1b1b1b"/></g></g></g></g></g></g><g transform="translate(161 125)"><rect width="40" height="40" fill="none"/><g fill="#fff" stroke="#f0f4fb" stroke-miterlimit="10" stroke-width="1"><circle cx="20" cy="20" r="20" stroke="none"/><circle cx="20" cy="20" r="19.5" fill="none"/></g><g transform="translate(12 12)"><path d="M7.371,15.74.26,8.629a.889.889,0,0,1-.153-.2h0L.1,8.407.1,8.4.09,8.389.085,8.379l0-.007L.074,8.355h0a.892.892,0,0,1,0-.708v0l.007-.016,0-.007,0-.01L.1,7.6l0-.006.009-.017h0a.888.888,0,0,1,.153-.2L7.371.26A.889.889,0,0,1,8.629,1.517L3.035,7.111H15.111a.889.889,0,0,1,0,1.778H3.035l5.594,5.594A.889.889,0,0,1,7.371,15.74Z" transform="translate(0 0)" fill="#1c1c1c"/></g></g><text transform="translate(719 1008)" fill="#444" font-size="12" font-family="Helvetica"><tspan x="-38.358" y="0">End of the List</tspan></text></g><g transform="translate(74)"><rect width="1024" height="1669" transform="translate(1676)" fill="#f3f3f3"/><text transform="translate(1744 213)" font-size="16" font-family="Helvetica"><tspan x="0" y="12">This is the third level overlay that can be reached when the user selects ‘View Payment History’ CTA from the Recipient </tspan><tspan x="0" y="38">Details overlay. On this screen, the user can see a list of past payments to this recipient and their current status, along with </tspan><tspan x="0" y="64">other pertinent details as seen here. The Recipients are ordered by creation date (the date which the payment was sent out </tspan><tspan x="0" y="90">for approval).</tspan></text><text transform="translate(2184 557)" font-size="16" font-family="Helvetica"><tspan x="0" y="0"> </tspan></text><g transform="translate(717 10)"><circle cx="15" cy="15" r="15" transform="translate(1027 363)" fill="#ff6127"/><text transform="translate(1038 384)" fill="#fff" font-size="18" font-family="Helvetica"><tspan x="0" y="0">1</tspan></text></g><g transform="translate(717 72)"><circle cx="15" cy="15" r="15" transform="translate(1027 363)" fill="#ff6127"/><text transform="translate(1038 384)" fill="#fff" font-size="18" font-family="Helvetica"><tspan x="0" y="0">2</tspan></text></g><g transform="translate(717 198)"><circle cx="15" cy="15" r="15" transform="translate(1027 363)" fill="#ff6127"/><text transform="translate(1038 384)" fill="#fff" font-size="18" font-family="Helvetica"><tspan x="0" y="0">3</tspan></text></g><g transform="translate(717 305)"><circle cx="15" cy="15" r="15" transform="translate(1027 363)" fill="#ff6127"/><text transform="translate(1038 384)" fill="#fff" font-size="18" font-family="Helvetica"><tspan x="0" y="0">4</tspan></text></g><text transform="translate(1798 373)" font-size="16" font-family="Helvetica"><tspan x="0" y="12">The subheader has the recipient name the payment history belongs to and their current status.</tspan></text><text transform="translate(1798 435)" font-size="16" font-family="Helvetica"><tspan x="0" y="12">Here, a list of payments (excluding draft payments) made to this recipient can be seen with their current status. This </tspan><tspan x="0" y="38">table is ordered by most recent creation date to oldest. The user can click into a line item to see more details. </tspan><tspan x="0" y="64">Selecting a a line item will prompt an the Payment Details screen (see file DBBG_Payments_DD for more details).</tspan></text><text transform="translate(1798 561)" font-size="16" font-family="Helvetica"><tspan x="0" y="12">Since this is the overlay experience, the ‘x’ icon will still be visible for users to action on. If the user clicks on the ‘x’ </tspan><tspan x="0" y="38">icon then it would be essentially like clicking on the icon on Recipient Landing overlay (first level overlay) which will </tspan><tspan x="0" y="64">take the user back to the Payment Landing page.</tspan></text><text transform="translate(1798 668)" font-size="16" font-family="Helvetica"><tspan x="0" y="12">The back button is to indicate that the user can go back to the previous step in the overlay experience, which in this </tspan><tspan x="0" y="38">case, is the Recipient Details overlay.</tspan></text></g><g transform="translate(8 30)"><g transform="translate(-356 -5)"><circle cx="15" cy="15" r="15" transform="translate(1027 363)" fill="#ff6127"/><text transform="translate(1038 384)" fill="#fff" font-size="18" font-family="Helvetica"><tspan x="0" y="0">1</tspan></text></g></g><g transform="translate(586 -11)"><g transform="translate(-356 -5)"><circle cx="15" cy="15" r="15" transform="translate(1027 363)" fill="#ff6127"/><text transform="translate(1038 384)" fill="#fff" font-size="18" font-family="Helvetica"><tspan x="0" y="0">3</tspan></text></g></g><g transform="translate(-370 -11)"><g transform="translate(-356 -5)"><circle cx="15" cy="15" r="15" transform="translate(1027 363)" fill="#ff6127"/><text transform="translate(1038 384)" fill="#fff" font-size="18" font-family="Helvetica"><tspan x="0" y="0">4</tspan></text></g></g><g transform="translate(-433 202)"><g transform="translate(-356 -5)"><circle cx="15" cy="15" r="15" transform="translate(1027 363)" fill="#ff6127"/><text transform="translate(1038 384)" fill="#fff" font-size="18" font-family="Helvetica"><tspan x="0" y="0">2</tspan></text></g></g><g transform="translate(1391.24 216)"><g transform="translate(-1377.24 -195)"><rect width="320" height="1356" transform="translate(1386 195)" fill="#fafafa"/><rect width="320" height="664" transform="translate(1385 642)" fill="#fff"/><g transform="translate(14318 -17629)"><g transform="translate(-12931 18236)"><rect width="318" height="60" fill="#fff"/><text transform="translate(16 12)" font-size="14" font-family="Helvetica"><tspan x="0" y="11">Authorized Dec 20, 2020</tspan><tspan x="0" y="31">321- 23433- 536902492</tspan></text><text transform="translate(162 13)" font-size="14" font-family="Helvetica"><tspan x="56.056" y="11">2,314.22 CAD</tspan><tspan x="76.297" y="31">Completed</tspan></text></g><g transform="translate(-12931 18204)"><rect width="318" height="32" fill="#e6e6e6"/><text transform="translate(16 21)" font-size="14" font-family="Helvetica"><tspan x="0" y="0">Dec 18</tspan></text></g></g><g transform="translate(1402 444.5)"><g transform="translate(238)"><g fill="#d8d8d8" stroke="#797979" stroke-miterlimit="10" stroke-width="1"><circle cx="12" cy="12" r="12" stroke="none"/><circle cx="12" cy="12" r="11.5" fill="none"/></g><path d="M7.792,4.125H11V.917h-.458V3.3a5.5,5.5,0,1,0,.44,2.658h-.46A5.04,5.04,0,1,1,10.2,3.667H7.792Z" transform="translate(6.5 7)" fill="#787878" stroke="#787878" stroke-width="1" fill-rule="evenodd"/></g><text transform="translate(230 17)" font-size="14" font-family="Helvetica"><tspan x="-111.289" y="0">at 10:42 AM EST*</tspan></text><text transform="translate(114 17)" font-size="14" font-family="Helvetica"><tspan x="-109.484" y="0">As of Thu, Jan 30</tspan></text></g><text transform="translate(1427 302.5)" fill="#1c1c1c" font-size="21" font-family="Helvetica"><tspan x="30.373" y="16">Recipient Payment </tspan><tspan x="85.831" y="41">History</tspan></text><rect width="318" height="49" transform="translate(1387 882)" fill="#fafafa"/><g transform="translate(0 -31)"><rect width="319" height="44" transform="translate(1386 1491)" fill="#fff"/><text transform="translate(1474 1506)" font-size="14" font-family="Helvetica"><tspan x="-44.751" y="11">End of the List</tspan></text><rect width="319" height="1" transform="translate(1386 1491)" fill="#e0e0e5"/></g><g transform="translate(14318 -17537)"><g transform="translate(-12931 18236)"><rect width="318" height="60" fill="#fff"/><text transform="translate(15 12)" font-size="14" font-family="Helvetica"><tspan x="0" y="11">Authorized Dec 13, 2020</tspan><tspan x="0" y="31">321- 23433- 536902492</tspan></text><text transform="translate(162 13)" font-size="14" font-family="Helvetica"><tspan x="56.056" y="11">2,314.22 CAD</tspan><tspan x="76.297" y="31">Completed</tspan></text></g><g transform="translate(-12931 18204)"><rect width="318" height="32" fill="#e6e6e6"/><text transform="translate(15 21)" font-size="14" font-family="Helvetica"><tspan x="0" y="0">Dec 7</tspan></text></g></g><g transform="translate(14318 -17445)"><g transform="translate(-12931 18236)"><rect width="318" height="60" fill="#fff"/><text transform="translate(15 12)" font-size="14" font-family="Helvetica"><tspan x="0" y="11">-</tspan><tspan x="0" y="31">321- 23433- 536902492</tspan></text><text transform="translate(162 13)" font-size="14" font-family="Helvetica"><tspan x="56.056" y="11">2,314.22 CAD</tspan><tspan x="92.621" y="31">Pending</tspan></text></g><g transform="translate(-12931 18204)"><rect width="318" height="32" fill="#e6e6e6"/><text transform="translate(15 21)" font-size="14" font-family="Helvetica"><tspan x="0" y="0">Dec 5</tspan></text></g></g><g transform="translate(14318 -17353)"><g transform="translate(-12931 18236)"><rect width="318" height="60" fill="#fff"/><text transform="translate(15 12)" font-size="14" font-family="Helvetica"><tspan x="0" y="11">Authorized Dec 1, 2020</tspan><tspan x="0" y="31">321- 23433- 536902492</tspan></text><text transform="translate(162 13)" font-size="14" font-family="Helvetica"><tspan x="56.056" y="11">2,314.22 CAD</tspan><tspan x="89.524" y="31">Declined</tspan></text></g><g transform="translate(-12931 18204)"><rect width="318" height="32" fill="#e6e6e6"/><text transform="translate(15 21)" font-size="14" font-family="Helvetica"><tspan x="0" y="0">Nov 23</tspan></text></g></g><g transform="translate(14318 -17261)"><g transform="translate(-12931 18204)"><rect width="318" height="60" transform="translate(0 -1)" fill="#fff"/><text transform="translate(15 12)" font-size="14" font-family="Helvetica"><tspan x="0" y="11">Authorized Nov 24, 2020</tspan><tspan x="0" y="31">321- 23433- 536902492</tspan></text><text transform="translate(162 13)" font-size="14" font-family="Helvetica"><tspan x="56.056" y="11">2,314.22 CAD</tspan><tspan x="76.297" y="31">Completed</tspan></text><rect width="320" height="1" transform="translate(-1 -1)" fill="#e0e0e5"/></g></g><g transform="translate(14318 -17199)"><g transform="translate(-12931 18204)"><rect width="318" height="60" transform="translate(0 -1)" fill="#fff"/><text transform="translate(15 12)" font-size="14" font-family="Helvetica"><tspan x="0" y="11">-</tspan><tspan x="0" y="31">321- 23433- 536902492</tspan></text><text transform="translate(162 13)" font-size="14" font-family="Helvetica"><tspan x="56.056" y="11">2,314.22 CAD</tspan><tspan x="92.621" y="31">Pending</tspan></text><rect width="320" height="1" transform="translate(-1 -1)" fill="#e0e0e5"/></g></g><g transform="translate(14317 -17140)"><g transform="translate(-12931 18236)"><rect width="318" height="60" fill="#fff"/><text transform="translate(15 12)" font-size="14" font-family="Helvetica"><tspan x="0" y="11">Authorized Nov 18, 2020</tspan><tspan x="0" y="31">321- 23433- 536902492</tspan></text><text transform="translate(162 13)" font-size="14" font-family="Helvetica"><tspan x="56.056" y="11">2,314.22 CAD</tspan><tspan x="76.297" y="31">Completed</tspan></text></g><g transform="translate(-12930 18204)"><rect width="318" height="32" fill="#e6e6e6"/><text transform="translate(15 21)" font-size="14" font-family="Helvetica"><tspan x="0" y="0">Nov 14</tspan></text></g></g><g transform="translate(14318 -16929)"><g transform="translate(-12931 18177)"><rect width="318" height="60" fill="#fff"/><text transform="translate(15 12)" font-size="14" font-family="Helvetica"><tspan x="0" y="11">Authorized Nov 10, 2020</tspan><tspan x="0" y="31">321- 23433- 536902492</tspan></text><text transform="translate(162 13)" font-size="14" font-family="Helvetica"><tspan x="56.056" y="11">2,314.22 CAD</tspan><tspan x="76.297" y="31">Completed</tspan></text></g><g transform="translate(-12931 18145)"><rect width="318" height="32" fill="#e6e6e6"/><text transform="translate(15 21)" font-size="14" font-family="Helvetica"><tspan x="0" y="0">Nov 9</tspan></text></g></g><g transform="translate(14318 -16837)"><g transform="translate(-12931 18177)"><rect width="318" height="60" fill="#fff"/><text transform="translate(15 12)" font-size="14" font-family="Helvetica"><tspan x="0" y="11">Authorized Oct 8, 2020</tspan><tspan x="0" y="31">321- 23433- 536902492</tspan></text><text transform="translate(162 13)" font-size="14" font-family="Helvetica"><tspan x="56.056" y="11">2,314.22 CAD</tspan><tspan x="76.297" y="31">Completed</tspan></text></g><g transform="translate(-12931 18145)"><rect width="318" height="32" fill="#e6e6e6"/><text transform="translate(15 21)" font-size="14" font-family="Helvetica"><tspan x="0" y="0">Sept 31</tspan></text></g></g><g transform="translate(1402 247)"><g fill="#fff" stroke="#f0f4fb" stroke-miterlimit="10" stroke-width="1"><circle cx="16" cy="16" r="16" stroke="none"/><circle cx="16" cy="16" r="15.5" fill="none"/></g><g transform="translate(9.6 9.6)"><path d="M5.9,12.592.208,6.9a.711.711,0,0,1-.122-.164h0L.079,6.725l0,0,0-.01,0-.008,0-.006L.059,6.684h0a.714.714,0,0,1,0-.567h0L.065,6.1l0-.006,0-.008,0-.01,0,0,.007-.013h0A.711.711,0,0,1,.208,5.9L5.9.208A.711.711,0,0,1,6.9,1.214L2.428,5.689h9.661a.711.711,0,0,1,0,1.422H2.428L6.9,11.586A.711.711,0,0,1,5.9,12.592Z" transform="translate(0 0)" fill="#1c1c1c"/></g></g><g transform="translate(1658 247)"><rect width="32" height="32" fill="none"/><g fill="#fff" stroke="#f0f4fb" stroke-miterlimit="10" stroke-width="1"><circle cx="16" cy="16" r="16" stroke="none"/><circle cx="16" cy="16" r="15.5" fill="none"/></g><g transform="translate(11.2 11.2)"><path d="M8.43,9.4,4.8,5.77,1.171,9.4A.686.686,0,0,1,.2,8.43L3.831,4.8.2,1.171A.686.686,0,0,1,1.171.2L4.8,3.831,8.43.2a.686.686,0,0,1,.969.97L5.77,4.8,9.4,8.43A.685.685,0,1,1,8.43,9.4Z" fill="#1c1c1c"/></g></g><text transform="translate(1397 361)" fill="#707070" font-size="20" font-family="HelveticaNeue, Helvetica Neue"><tspan x="-23.34" y="19">AT&amp;T</tspan></text><g transform="translate(1386 195)"><g fill="#ebebeb" stroke="#ccc" stroke-miterlimit="10" stroke-width="1"><rect width="320" height="44" stroke="none"/><rect x="0.5" y="0.5" width="319" height="43" fill="none"/></g><text transform="translate(161 25.5)" fill="#1c1c1c" font-size="11" font-family="Helvetica"><tspan x="-37.305" y="0">[top navigation]</tspan></text><g fill="none" stroke="#b3b3b3" stroke-miterlimit="10" stroke-width="1"><rect width="320" height="1356" stroke="none"/><rect x="0.5" y="0.5" width="319" height="1355" fill="none"/></g></g><g transform="translate(14318 -17047)"><g transform="translate(-12931 18204)"><rect width="318" height="60" transform="translate(0 -1)" fill="#fff"/><text transform="translate(15 12)" font-size="14" font-family="Helvetica"><tspan x="0" y="11">-</tspan><tspan x="0" y="31">321- 23433- 536902492</tspan></text><text transform="translate(162 13)" font-size="14" font-family="Helvetica"><tspan x="56.056" y="11">2,314.22 CAD</tspan><tspan x="92.621" y="31">Pending</tspan></text><rect width="320" height="1" transform="translate(-1 -1)" fill="#e0e0e5"/></g></g><g transform="translate(14318 -16803)"><g transform="translate(-12931 18204)"><rect width="318" height="60" transform="translate(0 -1)" fill="#fff"/><text transform="translate(15 12)" font-size="14" font-family="Helvetica"><tspan x="0" y="11">Authorized Oct 1, 2020</tspan><tspan x="0" y="31">321- 23433- 536902492</tspan></text><text transform="translate(162 13)" font-size="14" font-family="Helvetica"><tspan x="56.056" y="11">2,314.22 CAD</tspan><tspan x="76.297" y="31">Completed</tspan></text><rect width="320" height="1" transform="translate(-1 -1)" fill="#e0e0e5"/></g></g><g transform="translate(1402 515)"><rect width="288" height="36" fill="#fff"/><line x2="288" transform="translate(0 35.5)" fill="none" stroke="#979797" stroke-width="1"/><g transform="translate(235 16)"><path d="M-1.57-2.29l4.5-4.5,4.5,4.5" transform="translate(39.43 -2.29) rotate(180)" fill="none" stroke="#4a4a4a" stroke-linecap="round" stroke-linejoin="round" stroke-width="2"/></g><text transform="translate(0 22)" fill="#797979" font-size="14" font-family="Helvetica" letter-spacing="0em"><tspan x="0" y="0">Select</tspan></text></g><text transform="translate(1402 496)" font-size="14" font-family="Helvetica"><tspan x="0" y="0">Date Range</tspan></text></g><g transform="translate(-131.979 359.5)"><g transform="translate(131.979 736.5)"><rect width="336" height="16" transform="translate(0.021)" fill="#fff"/><line x2="339.521" transform="translate(0 0.5)" fill="none" stroke="#707070" stroke-width="1"/><line x2="339.521" transform="translate(0 15.656)" fill="none" stroke="#707070" stroke-width="1"/></g></g></g><g transform="translate(0 30)"><path d="M0,0H2774V59H0Z" transform="translate(0 71)" fill="#171e52"/><text transform="translate(92 107)" fill="#fff" font-size="21" font-family="LaoMN, Lao MN"><tspan x="0" y="0">3.0 - Recipient Payment History Overlay</tspan></text><text transform="translate(77 18)" font-size="20" font-family="LaoMN, Lao MN"><tspan x="0" y="0">DBank Business Gateway — Recipient Management (Interac e-Transfer Send)</tspan><tspan font-size="16"><tspan x="0" y="22">Detailed Design</tspan></tspan></text><g transform="translate(12 2)"><path d="M0,43H49V0H0Z" fill="#34b234"/><g fill="#171e52" stroke="#707070" stroke-width="1"><rect width="49" height="43" stroke="none"/><rect x="0.5" y="0.5" width="48" height="42" fill="none"/></g><text transform="translate(24 26)" fill="#fff" font-size="10" font-family="LaoMN, Lao MN"><tspan x="-17.458" y="0">DBANK</tspan></text></g></g></g></svg>